<svg xmlns="http://www.w3.org/2000/svg" style="display: none;">
  <symbol id="menu" viewBox="0 0 24 24">
    <path d="M3 18V16H21V18H3ZM3 13V11H21V13H3ZM3 8V6H21V8H3Z" fill="currentColor"/>
  </symbol>

  <symbol id="close" viewBox="0 0 24 24">
    <path d="M6.39994 18.6538L5.34619 17.6L10.9462 12L5.34619 6.4L6.39994 5.34625L11.9999 10.9463L17.5999 5.34625L18.6537 6.4L13.0537 12L18.6537 17.6L17.5999 18.6538L11.9999 13.0538L6.39994 18.6538Z" fill="currentColor"/>
  </symbol>

  <symbol id="expand-more" viewBox="0 0 24 24">
    <path d="M12 15.375L6 9.37501L7.4 7.97501L12 12.575L16.6 7.97501L18 9.37501L12 15.375Z" fill="currentColor"/>
  </symbol>

  <symbol id="logout" viewBox="0 0 24 24">
    <path d="M5 21C4.45 21 3.97917 20.8042 3.5875 20.4125C3.19583 20.0208 3 19.55 3 19V5C3 4.45 3.19583 3.97917 3.5875 3.5875C3.97917 3.19583 4.45 3 5 3H12V5H5V19H12V21H5ZM16 17L14.625 15.55L17.175 13H9V11H17.175L14.625 8.45L16 7L21 12L16 17Z" fill="currentColor"/>
  </symbol>

  <symbol id="settings" viewBox="0 0 24 24">
    <path d="M9.24995 22L8.84995 18.8C8.63328 18.7167 8.42912 18.6167 8.23745 18.5C8.04578 18.3833 7.85828 18.2583 7.67495 18.125L4.69995 19.375L1.94995 14.625L4.52495 12.675C4.50828 12.5583 4.49995 12.4458 4.49995 12.3375V11.6625C4.49995 11.5542 4.50828 11.4417 4.52495 11.325L1.94995 9.375L4.69995 4.625L7.67495 5.875C7.85828 5.74167 8.04995 5.61667 8.24995 5.5C8.44995 5.38333 8.64995 5.28333 8.84995 5.2L9.24995 2H14.75L15.15 5.2C15.3666 5.28333 15.5708 5.38333 15.7625 5.5C15.9541 5.61667 16.1416 5.74167 16.325 5.875L19.3 4.625L22.05 9.375L19.475 11.325C19.4916 11.4417 19.5 11.5542 19.5 11.6625V12.3375C19.5 12.4458 19.4833 12.5583 19.45 12.675L22.025 14.625L19.275 19.375L16.325 18.125C16.1416 18.2583 15.95 18.3833 15.75 18.5C15.55 18.6167 15.35 18.7167 15.15 18.8L14.75 22H9.24995ZM11 20H12.975L13.325 17.35C13.8416 17.2167 14.3208 17.0208 14.7625 16.7625C15.2041 16.5042 15.6083 16.1917 15.975 15.825L18.45 16.85L19.425 15.15L17.275 13.525C17.3583 13.2917 17.4166 13.0458 17.45 12.7875C17.4833 12.5292 17.5 12.2667 17.5 12C17.5 11.7333 17.4833 11.4708 17.45 11.2125C17.4166 10.9542 17.3583 10.7083 17.275 10.475L19.425 8.85L18.45 7.15L15.975 8.2C15.6083 7.81667 15.2041 7.49583 14.7625 7.2375C14.3208 6.97917 13.8416 6.78333 13.325 6.65L13 4H11.025L10.675 6.65C10.1583 6.78333 9.67912 6.97917 9.23745 7.2375C8.79578 7.49583 8.39162 7.80833 8.02495 8.175L5.54995 7.15L4.57495 8.85L6.72495 10.45C6.64162 10.7 6.58328 10.95 6.54995 11.2C6.51662 11.45 6.49995 11.7167 6.49995 12C6.49995 12.2667 6.51662 12.525 6.54995 12.775C6.58328 13.025 6.64162 13.275 6.72495 13.525L4.57495 15.15L5.54995 16.85L8.02495 15.8C8.39162 16.1833 8.79578 16.5042 9.23745 16.7625C9.67912 17.0208 10.1583 17.2167 10.675 17.35L11 20ZM12.05 15.5C13.0166 15.5 13.8416 15.1583 14.525 14.475C15.2083 13.7917 15.55 12.9667 15.55 12C15.55 11.0333 15.2083 10.2083 14.525 9.525C13.8416 8.84167 13.0166 8.5 12.05 8.5C11.0666 8.5 10.2375 8.84167 9.56245 9.525C8.88745 10.2083 8.54995 11.0333 8.54995 12C8.54995 12.9667 8.88745 13.7917 9.56245 14.475C10.2375 15.1583 11.0666 15.5 12.05 15.5Z" fill="currentColor"/>
  </symbol>

  <symbol id="account-circle" viewBox="0 0 24 24">
    <path d="M6.02308 17.2923C6.87308 16.6616 7.79903 16.1635 8.80095 15.7981C9.80287 15.4327 10.8692 15.25 12 15.25C13.1307 15.25 14.1971 15.4327 15.199 15.7981C16.2009 16.1635 17.1269 16.6616 17.9769 17.2923C18.5987 16.609 19.0913 15.818 19.4548 14.9193C19.8182 14.0205 20 13.0474 20 12C20 9.78334 19.2208 7.89584 17.6625 6.33751C16.1041 4.77917 14.2166 4.00001 12 4.00001C9.78331 4.00001 7.89581 4.77917 6.33748 6.33751C4.77914 7.89584 3.99998 9.78334 3.99998 12C3.99998 13.0474 4.18171 14.0205 4.54518 14.9193C4.90864 15.818 5.40128 16.609 6.02308 17.2923ZM12.0003 12.75C11.0873 12.75 10.3173 12.4366 9.69038 11.8099C9.06346 11.1832 8.75 10.4133 8.75 9.50031C8.75 8.58729 9.06336 7.81732 9.69008 7.19041C10.3168 6.56349 11.0867 6.25003 11.9997 6.25003C12.9127 6.25003 13.6827 6.56339 14.3096 7.19011C14.9365 7.81684 15.25 8.58671 15.25 9.49971C15.25 10.4127 14.9366 11.1827 14.3099 11.8096C13.6831 12.4365 12.9133 12.75 12.0003 12.75ZM12 21.5C10.6807 21.5 9.44325 21.2519 8.2875 20.7557C7.13173 20.2596 6.12628 19.5839 5.27115 18.7288C4.41603 17.8737 3.7404 16.8682 3.24425 15.7125C2.74808 14.5567 2.5 13.3192 2.5 12C2.5 10.6808 2.74808 9.44328 3.24425 8.28753C3.7404 7.13176 4.41603 6.12631 5.27115 5.27118C6.12628 4.41606 7.13173 3.74043 8.2875 3.24428C9.44325 2.74811 10.6807 2.50003 12 2.50003C13.3192 2.50003 14.5567 2.74811 15.7125 3.24428C16.8682 3.74043 17.8737 4.41606 18.7288 5.27118C19.5839 6.12631 20.2596 7.13176 20.7557 8.28753C21.2519 9.44328 21.5 10.6808 21.5 12C21.5 13.3192 21.2519 14.5567 20.7557 15.7125C20.2596 16.8682 19.5839 17.8737 18.7288 18.7288C17.8737 19.5839 16.8682 20.2596 15.7125 20.7557C14.5567 21.2519 13.3192 21.5 12 21.5ZM12 20C12.9025 20 13.7727 19.8548 14.6106 19.5644C15.4484 19.274 16.1923 18.868 16.8423 18.3462C16.1923 17.8436 15.458 17.4519 14.6394 17.1712C13.8208 16.8904 12.941 16.75 12 16.75C11.0589 16.75 10.1775 16.8888 9.35573 17.1663C8.53393 17.4439 7.80123 17.8372 7.15765 18.3462C7.80765 18.868 8.55157 19.274 9.3894 19.5644C10.2272 19.8548 11.0974 20 12 20ZM12 11.25C12.4974 11.25 12.9134 11.0827 13.2481 10.7481C13.5827 10.4135 13.75 9.99744 13.75 9.50001C13.75 9.00257 13.5827 8.58654 13.2481 8.25191C12.9134 7.91729 12.4974 7.74998 12 7.74998C11.5025 7.74998 11.0865 7.91729 10.7519 8.25191C10.4173 8.58654 10.25 9.00257 10.25 9.50001C10.25 9.99744 10.4173 10.4135 10.7519 10.7481C11.0865 11.0827 11.5025 11.25 12 11.25Z" fill="currentColor"/>
  </symbol>

  <symbol id="feed" viewBox="0 0 24 24">
    <path d="M5.3077 20.5C4.80257 20.5 4.375 20.325 4.025 19.975C3.675 19.625 3.5 19.1974 3.5 18.6923V5.30773C3.5 4.8026 3.675 4.37503 4.025 4.02503C4.375 3.67503 4.80257 3.50003 5.3077 3.50003H15.7884L20.5 8.21156V18.6923C20.5 19.1974 20.325 19.625 19.975 19.975C19.625 20.325 19.1974 20.5 18.6922 20.5H5.3077ZM5.3077 19H18.6922C18.782 19 18.8557 18.9712 18.9134 18.9135C18.9711 18.8558 19 18.782 19 18.6923V9.00001H15V5.00001H5.3077C5.21795 5.00001 5.14423 5.02886 5.08653 5.08656C5.02883 5.14426 4.99997 5.21798 4.99997 5.30773V18.6923C4.99997 18.782 5.02883 18.8558 5.08653 18.9135C5.14423 18.9712 5.21795 19 5.3077 19ZM7.25 16.5H16.75V15H7.25V16.5ZM7.25 9.00001H12V7.50003H7.25V9.00001ZM7.25 12.75H16.75V11.25H7.25V12.75Z" fill="currentColor"/>
  </symbol>

  <symbol id="chat" viewBox="0 0 24 24">
    <path d="M6.25 13.75H13.75V12.25H6.25V13.75ZM6.25 10.75H17.75V9.25003H6.25V10.75ZM6.25 7.74998H17.75V6.25003H6.25V7.74998ZM2.5 21.0384V4.30773C2.5 3.8026 2.675 3.37503 3.025 3.02503C3.375 2.67503 3.80257 2.50003 4.3077 2.50003H19.6923C20.1974 2.50003 20.625 2.67503 20.975 3.02503C21.325 3.37503 21.5 3.8026 21.5 4.30773V15.6923C21.5 16.1974 21.325 16.625 20.975 16.975C20.625 17.325 20.1974 17.5 19.6923 17.5H6.03845L2.5 21.0384ZM5.4 16H19.6923C19.7692 16 19.8397 15.968 19.9038 15.9039C19.9679 15.8397 20 15.7692 20 15.6923V4.30773C20 4.2308 19.9679 4.16027 19.9038 4.09616C19.8397 4.03206 19.7692 4.00001 19.6923 4.00001H4.3077C4.23077 4.00001 4.16024 4.03206 4.09612 4.09616C4.03202 4.16027 3.99998 4.2308 3.99998 4.30773V17.3846L5.4 16Z" fill="currentColor"/>
  </symbol>

  <symbol id="phone" viewBox="0 0 24 24">
    <path d="M19.4402 20.5C17.5557 20.5 15.6625 20.0618 13.7605 19.1855C11.8587 18.3092 10.1097 17.073 8.5135 15.477C6.92383 13.8808 5.69083 12.1333 4.8145 10.2345C3.93817 8.33583 3.5 6.44425 3.5 4.55975C3.5 4.25975 3.6 4.00808 3.8 3.80475C4 3.60158 4.25 3.5 4.55 3.5H7.8115C8.064 3.5 8.28675 3.58242 8.47975 3.74725C8.67275 3.91192 8.7955 4.11542 8.848 4.35775L9.42125 7.3C9.46092 7.573 9.45258 7.80758 9.39625 8.00375C9.33975 8.19992 9.23842 8.36467 9.09225 8.498L6.78275 10.7462C7.15442 11.4269 7.57908 12.0708 8.05675 12.678C8.53425 13.285 9.05125 13.8648 9.60775 14.4173C10.1564 14.9661 10.7398 15.4758 11.3578 15.9463C11.9758 16.4168 12.6431 16.8546 13.3598 17.2598L15.6038 14.9963C15.7603 14.8334 15.9498 14.7193 16.1723 14.6538C16.3946 14.5884 16.6257 14.5724 16.8655 14.6058L19.6423 15.1713C19.8948 15.2379 20.1008 15.3668 20.2605 15.5578C20.4202 15.7488 20.5 15.9654 20.5 16.2078V19.45C20.5 19.75 20.3984 20 20.1953 20.2C19.9919 20.4 19.7402 20.5 19.4402 20.5Z" fill="currentColor"/>
  </symbol>

  <symbol id="bell" viewBox="0 0 24 24">
    <path d="M4.5 18.8845V17.3848H6.30775V9.923C6.30775 8.57817 6.72283 7.38908 7.553 6.35575C8.383 5.32242 9.44867 4.6615 10.75 4.373V3.75C10.75 3.40283 10.8714 3.10767 11.1143 2.8645C11.3571 2.6215 11.6519 2.5 11.9988 2.5C12.3458 2.5 12.641 2.6215 12.8845 2.8645C13.1282 3.10767 13.25 3.40283 13.25 3.75V4.373C14.5513 4.6615 15.617 5.32242 16.447 6.35575C17.2772 7.38908 17.6923 8.57817 17.6923 9.923V17.3848H19.5V18.8845H4.5ZM11.9982 21.6923C11.5007 21.6923 11.0754 21.5153 10.7223 21.1613C10.3689 20.8073 10.1923 20.3817 10.1923 19.8845H13.8078C13.8078 20.3833 13.6306 20.8093 13.2762 21.1625C12.9219 21.5157 12.4959 21.6923 11.9982 21.6923Z" fill="currentColor"/>
  </symbol>

  <symbol id="mail" viewBox="0 0 24 24">
    <path d="M4.30775 19.5C3.80258 19.5 3.375 19.325 3.025 18.975C2.675 18.625 2.5 18.1974 2.5 17.6923V6.30775C2.5 5.80258 2.675 5.375 3.025 5.025C3.375 4.675 3.80258 4.5 4.30775 4.5H19.6923C20.1974 4.5 20.625 4.675 20.975 5.025C21.325 5.375 21.5 5.80258 21.5 6.30775V17.6923C21.5 18.1974 21.325 18.625 20.975 18.975C20.625 19.325 20.1974 19.5 19.6923 19.5H4.30775ZM12 12.5578L20 7.44225L19.8462 6L12 11L4.15375 6L4 7.44225L12 12.5578Z" fill="currentColor"/>
  </symbol>
</svg>
