<svg width="360" height="200" viewBox="0 0 360 200" fill="none" xmlns="http://www.w3.org/2000/svg">
<g clip-path="url(#clip0_103_5)">
<rect width="360" height="200" fill="#C6DBEF"/>
<rect x="21" y="77" width="93" height="46" rx="23" fill="#1A7FDC"/>
<path d="M46.3061 105.5V95.3182H50.0348C50.7573 95.3182 51.3556 95.4375 51.8295 95.6761C52.3035 95.9115 52.6581 96.2313 52.8935 96.6357C53.1288 97.0367 53.2464 97.4891 53.2464 97.9929C53.2464 98.4171 53.1686 98.7751 53.0128 99.0668C52.857 99.3551 52.6482 99.5871 52.3864 99.7628C52.1278 99.9351 51.8428 100.061 51.5312 100.141V100.24C51.8693 100.257 52.1991 100.366 52.5206 100.568C52.8454 100.767 53.1139 101.05 53.326 101.418C53.5381 101.786 53.6442 102.234 53.6442 102.761C53.6442 103.281 53.5215 103.748 53.2763 104.163C53.0343 104.574 52.6598 104.9 52.1527 105.142C51.6456 105.381 50.9976 105.5 50.2088 105.5H46.3061ZM47.8423 104.183H50.0597C50.7955 104.183 51.3224 104.04 51.6406 103.755C51.9588 103.47 52.1179 103.114 52.1179 102.686C52.1179 102.365 52.0367 102.07 51.8743 101.801C51.7119 101.533 51.4799 101.319 51.1783 101.16C50.88 101.001 50.5253 100.921 50.1143 100.921H47.8423V104.183ZM47.8423 99.723H49.9006C50.2453 99.723 50.5552 99.6567 50.8303 99.5241C51.1087 99.3916 51.3291 99.206 51.4915 98.9673C51.6572 98.7254 51.7401 98.4403 51.7401 98.1122C51.7401 97.6913 51.5926 97.3383 51.2976 97.0533C51.0026 96.7682 50.5502 96.6257 49.9403 96.6257H47.8423V99.723ZM60.1843 102.333V97.8636H61.6758V105.5H60.2141V104.178H60.1346C59.9589 104.585 59.6772 104.925 59.2894 105.197C58.9049 105.465 58.426 105.599 57.8526 105.599C57.3621 105.599 56.9279 105.492 56.5501 105.276C56.1755 105.058 55.8806 104.734 55.6651 104.307C55.453 103.879 55.3469 103.351 55.3469 102.721V97.8636H56.8335V102.542C56.8335 103.062 56.9776 103.477 57.266 103.785C57.5543 104.093 57.9289 104.247 58.3896 104.247C58.668 104.247 58.9447 104.178 59.2198 104.038C59.4982 103.899 59.7286 103.689 59.9109 103.407C60.0965 103.125 60.1876 102.767 60.1843 102.333ZM67.2377 97.8636V99.0568H63.0666V97.8636H67.2377ZM64.1852 96.0341H65.6717V103.258C65.6717 103.546 65.7148 103.763 65.801 103.909C65.8871 104.052 65.9982 104.149 66.1341 104.202C66.2733 104.252 66.4241 104.277 66.5865 104.277C66.7058 104.277 66.8102 104.269 66.8997 104.252C66.9892 104.236 67.0588 104.222 67.1085 104.212L67.377 105.44C67.2908 105.473 67.1681 105.507 67.0091 105.54C66.85 105.576 66.6511 105.596 66.4125 105.599C66.0214 105.606 65.6568 105.536 65.3187 105.391C64.9806 105.245 64.7072 105.019 64.4984 104.714C64.2896 104.41 64.1852 104.027 64.1852 103.566V96.0341ZM72.4467 97.8636V99.0568H68.2756V97.8636H72.4467ZM69.3942 96.0341H70.8807V103.258C70.8807 103.546 70.9238 103.763 71.0099 103.909C71.0961 104.052 71.2071 104.149 71.343 104.202C71.4822 104.252 71.633 104.277 71.7955 104.277C71.9148 104.277 72.0192 104.269 72.1087 104.252C72.1982 104.236 72.2678 104.222 72.3175 104.212L72.5859 105.44C72.4998 105.473 72.3771 105.507 72.218 105.54C72.0589 105.576 71.8601 105.596 71.6214 105.599C71.2304 105.606 70.8658 105.536 70.5277 105.391C70.1896 105.245 69.9162 105.019 69.7074 104.714C69.4986 104.41 69.3942 104.027 69.3942 103.566V96.0341ZM77.2257 105.654C76.5098 105.654 75.885 105.49 75.3514 105.162C74.8178 104.834 74.4035 104.375 74.1085 103.785C73.8135 103.195 73.666 102.505 73.666 101.717C73.666 100.924 73.8135 100.232 74.1085 99.6385C74.4035 99.0452 74.8178 98.5845 75.3514 98.2564C75.885 97.9283 76.5098 97.7642 77.2257 97.7642C77.9416 97.7642 78.5663 97.9283 79.1 98.2564C79.6336 98.5845 80.0479 99.0452 80.3429 99.6385C80.6378 100.232 80.7853 100.924 80.7853 101.717C80.7853 102.505 80.6378 103.195 80.3429 103.785C80.0479 104.375 79.6336 104.834 79.1 105.162C78.5663 105.49 77.9416 105.654 77.2257 105.654ZM77.2306 104.406C77.6947 104.406 78.0791 104.284 78.3841 104.038C78.689 103.793 78.9144 103.467 79.0602 103.059C79.2093 102.651 79.2839 102.202 79.2839 101.712C79.2839 101.224 79.2093 100.777 79.0602 100.369C78.9144 99.9583 78.689 99.6286 78.3841 99.38C78.0791 99.1314 77.6947 99.0071 77.2306 99.0071C76.7633 99.0071 76.3755 99.1314 76.0673 99.38C75.7624 99.6286 75.5353 99.9583 75.3862 100.369C75.2404 100.777 75.1674 101.224 75.1674 101.712C75.1674 102.202 75.2404 102.651 75.3862 103.059C75.5353 103.467 75.7624 103.793 76.0673 104.038C76.3755 104.284 76.7633 104.406 77.2306 104.406ZM83.9311 100.966V105.5H82.4446V97.8636H83.8714V99.1065H83.9659C84.1416 98.7022 84.4167 98.3774 84.7912 98.1321C85.169 97.8868 85.6446 97.7642 86.218 97.7642C86.7384 97.7642 87.1941 97.8736 87.5852 98.0923C87.9763 98.3078 88.2796 98.6293 88.495 99.0568C88.7105 99.4844 88.8182 100.013 88.8182 100.643V105.5H87.3317V100.822C87.3317 100.268 87.1875 99.8357 86.8991 99.5241C86.6108 99.2093 86.2147 99.0518 85.7109 99.0518C85.3662 99.0518 85.0597 99.1264 84.7912 99.2756C84.526 99.4247 84.3156 99.6435 84.1598 99.9318C84.0073 100.217 83.9311 100.562 83.9311 100.966Z" fill="white"/>
<rect x="127.5" y="77.5" width="92" height="45" rx="22.5" fill="#C6DBEF"/>
<rect x="127.5" y="77.5" width="92" height="45" rx="22.5" stroke="#1A7FDC"/>
<path d="M152.306 105.5V95.3182H156.035C156.757 95.3182 157.356 95.4375 157.83 95.6761C158.304 95.9115 158.658 96.2313 158.893 96.6357C159.129 97.0367 159.246 97.4891 159.246 97.9929C159.246 98.4171 159.169 98.7751 159.013 99.0668C158.857 99.3551 158.648 99.5871 158.386 99.7628C158.128 99.9351 157.843 100.061 157.531 100.141V100.24C157.869 100.257 158.199 100.366 158.521 100.568C158.845 100.767 159.114 101.05 159.326 101.418C159.538 101.786 159.644 102.234 159.644 102.761C159.644 103.281 159.522 103.748 159.276 104.163C159.034 104.574 158.66 104.9 158.153 105.142C157.646 105.381 156.998 105.5 156.209 105.5H152.306ZM153.842 104.183H156.06C156.795 104.183 157.322 104.04 157.641 103.755C157.959 103.47 158.118 103.114 158.118 102.686C158.118 102.365 158.037 102.07 157.874 101.801C157.712 101.533 157.48 101.319 157.178 101.16C156.88 101.001 156.525 100.921 156.114 100.921H153.842V104.183ZM153.842 99.723H155.901C156.245 99.723 156.555 99.6567 156.83 99.5241C157.109 99.3916 157.329 99.206 157.491 98.9673C157.657 98.7254 157.74 98.4403 157.74 98.1122C157.74 97.6913 157.593 97.3383 157.298 97.0533C157.003 96.7682 156.55 96.6257 155.94 96.6257H153.842V99.723ZM166.184 102.333V97.8636H167.676V105.5H166.214V104.178H166.135C165.959 104.585 165.677 104.925 165.289 105.197C164.905 105.465 164.426 105.599 163.853 105.599C163.362 105.599 162.928 105.492 162.55 105.276C162.176 105.058 161.881 104.734 161.665 104.307C161.453 103.879 161.347 103.351 161.347 102.721V97.8636H162.833V102.542C162.833 103.062 162.978 103.477 163.266 103.785C163.554 104.093 163.929 104.247 164.39 104.247C164.668 104.247 164.945 104.178 165.22 104.038C165.498 103.899 165.729 103.689 165.911 103.407C166.096 103.125 166.188 102.767 166.184 102.333ZM173.238 97.8636V99.0568H169.067V97.8636H173.238ZM170.185 96.0341H171.672V103.258C171.672 103.546 171.715 103.763 171.801 103.909C171.887 104.052 171.998 104.149 172.134 104.202C172.273 104.252 172.424 104.277 172.586 104.277C172.706 104.277 172.81 104.269 172.9 104.252C172.989 104.236 173.059 104.222 173.108 104.212L173.377 105.44C173.291 105.473 173.168 105.507 173.009 105.54C172.85 105.576 172.651 105.596 172.412 105.599C172.021 105.606 171.657 105.536 171.319 105.391C170.981 105.245 170.707 105.019 170.498 104.714C170.29 104.41 170.185 104.027 170.185 103.566V96.0341ZM178.447 97.8636V99.0568H174.276V97.8636H178.447ZM175.394 96.0341H176.881V103.258C176.881 103.546 176.924 103.763 177.01 103.909C177.096 104.052 177.207 104.149 177.343 104.202C177.482 104.252 177.633 104.277 177.795 104.277C177.915 104.277 178.019 104.269 178.109 104.252C178.198 104.236 178.268 104.222 178.317 104.212L178.586 105.44C178.5 105.473 178.377 105.507 178.218 105.54C178.059 105.576 177.86 105.596 177.621 105.599C177.23 105.606 176.866 105.536 176.528 105.391C176.19 105.245 175.916 105.019 175.707 104.714C175.499 104.41 175.394 104.027 175.394 103.566V96.0341ZM183.226 105.654C182.51 105.654 181.885 105.49 181.351 105.162C180.818 104.834 180.403 104.375 180.108 103.785C179.814 103.195 179.666 102.505 179.666 101.717C179.666 100.924 179.814 100.232 180.108 99.6385C180.403 99.0452 180.818 98.5845 181.351 98.2564C181.885 97.9283 182.51 97.7642 183.226 97.7642C183.942 97.7642 184.566 97.9283 185.1 98.2564C185.634 98.5845 186.048 99.0452 186.343 99.6385C186.638 100.232 186.785 100.924 186.785 101.717C186.785 102.505 186.638 103.195 186.343 103.785C186.048 104.375 185.634 104.834 185.1 105.162C184.566 105.49 183.942 105.654 183.226 105.654ZM183.231 104.406C183.695 104.406 184.079 104.284 184.384 104.038C184.689 103.793 184.914 103.467 185.06 103.059C185.209 102.651 185.284 102.202 185.284 101.712C185.284 101.224 185.209 100.777 185.06 100.369C184.914 99.9583 184.689 99.6286 184.384 99.38C184.079 99.1314 183.695 99.0071 183.231 99.0071C182.763 99.0071 182.376 99.1314 182.067 99.38C181.762 99.6286 181.535 99.9583 181.386 100.369C181.24 100.777 181.167 101.224 181.167 101.712C181.167 102.202 181.24 102.651 181.386 103.059C181.535 103.467 181.762 103.793 182.067 104.038C182.376 104.284 182.763 104.406 183.231 104.406ZM189.931 100.966V105.5H188.445V97.8636H189.871V99.1065H189.966C190.142 98.7022 190.417 98.3774 190.791 98.1321C191.169 97.8868 191.645 97.7642 192.218 97.7642C192.738 97.7642 193.194 97.8736 193.585 98.0923C193.976 98.3078 194.28 98.6293 194.495 99.0568C194.71 99.4844 194.818 100.013 194.818 100.643V105.5H193.332V100.822C193.332 100.268 193.188 99.8357 192.899 99.5241C192.611 99.2093 192.215 99.0518 191.711 99.0518C191.366 99.0518 191.06 99.1264 190.791 99.2756C190.526 99.4247 190.316 99.6435 190.16 99.9318C190.007 100.217 189.931 100.562 189.931 100.966Z" fill="#1A7FDC"/>
<rect x="233" y="77" width="46" height="46" rx="23" fill="#1A7FDC"/>
<path d="M248.308 107.5C247.803 107.5 247.375 107.325 247.025 106.975C246.675 106.625 246.5 106.197 246.5 105.692V94.3077C246.5 93.8026 246.675 93.375 247.025 93.025C247.375 92.675 247.803 92.5 248.308 92.5H263.692C264.197 92.5 264.625 92.675 264.975 93.025C265.325 93.375 265.5 93.8026 265.5 94.3077V105.692C265.5 106.197 265.325 106.625 264.975 106.975C264.625 107.325 264.197 107.5 263.692 107.5H248.308ZM256 100.558L264 95.4423L263.846 94L256 99L248.154 94L248 95.4423L256 100.558Z" fill="#E8EAED"/>
<rect x="292.5" y="76.5" width="45" height="45" rx="22.5" fill="#C6DBEF" stroke="#1A7FDC"/>
<path d="M307.308 106.5C306.803 106.5 306.375 106.325 306.025 105.975C305.675 105.625 305.5 105.197 305.5 104.692V93.3077C305.5 92.8026 305.675 92.375 306.025 92.025C306.375 91.675 306.803 91.5 307.308 91.5H322.692C323.197 91.5 323.625 91.675 323.975 92.025C324.325 92.375 324.5 92.8026 324.5 93.3077V104.692C324.5 105.197 324.325 105.625 323.975 105.975C323.625 106.325 323.197 106.5 322.692 106.5H307.308ZM315 99.5578L323 94.4423L322.846 93L315 98L307.154 93L307 94.4423L315 99.5578Z" fill="#1A7FDC"/>
</g>
<defs>
<clipPath id="clip0_103_5">
<rect width="360" height="200" fill="white"/>
</clipPath>
</defs>
</svg>
