<svg width="360" height="200" viewBox="0 0 360 200" fill="none" xmlns="http://www.w3.org/2000/svg">
<g clip-path="url(#clip0_121_3)">
<rect width="360" height="200" fill="#C6DBEF"/>
<rect x="45.5" y="23.5" width="269" height="45" rx="7.5" fill="white" stroke="#CCCCCC"/>
<path d="M56.3487 51V39.3636H63.6442V40.875H58.1044V44.4205H63.2635V45.9261H58.1044V49.4886H63.7124V51H56.3487ZM65.853 51V42.2727H67.4837V43.6932H67.5916C67.7734 43.2121 68.0708 42.8371 68.4837 42.5682C68.8965 42.2955 69.3909 42.1591 69.9666 42.1591C70.55 42.1591 71.0386 42.2955 71.4325 42.5682C71.8303 42.8409 72.1238 43.2159 72.3132 43.6932H72.4041C72.6125 43.2273 72.9439 42.8561 73.3984 42.5795C73.853 42.2992 74.3946 42.1591 75.0234 42.1591C75.8151 42.1591 76.4609 42.4072 76.9609 42.9034C77.4647 43.3996 77.7166 44.1477 77.7166 45.1477V51H76.0178V45.3068C76.0178 44.7159 75.8568 44.2879 75.5348 44.0227C75.2128 43.7576 74.8284 43.625 74.3814 43.625C73.8284 43.625 73.3984 43.7955 73.0916 44.1364C72.7848 44.4735 72.6314 44.9072 72.6314 45.4375V51H70.9382V45.1989C70.9382 44.7254 70.7905 44.3447 70.495 44.0568C70.1996 43.7689 69.8151 43.625 69.3416 43.625C69.0196 43.625 68.7223 43.7102 68.4496 43.8807C68.1806 44.0473 67.9628 44.2803 67.7962 44.5795C67.6333 44.8788 67.5518 45.2254 67.5518 45.6193V51H65.853ZM82.5334 51.1932C81.9804 51.1932 81.4804 51.0909 81.0334 50.8864C80.5864 50.678 80.2322 50.3769 79.9709 49.983C79.7133 49.589 79.5845 49.1061 79.5845 48.5341C79.5845 48.0417 79.6792 47.6364 79.8686 47.3182C80.058 47 80.3137 46.7481 80.6357 46.5625C80.9576 46.3769 81.3175 46.2367 81.7152 46.142C82.1129 46.0473 82.5182 45.9754 82.9311 45.9261C83.4538 45.8655 83.8781 45.8163 84.2038 45.7784C84.5296 45.7367 84.7663 45.6705 84.9141 45.5795C85.0618 45.4886 85.1357 45.3409 85.1357 45.1364V45.0966C85.1357 44.6004 84.9955 44.2159 84.7152 43.9432C84.4387 43.6705 84.0258 43.5341 83.4766 43.5341C82.9046 43.5341 82.4538 43.661 82.1243 43.9148C81.7985 44.1648 81.5732 44.4432 81.4482 44.75L79.8516 44.3864C80.041 43.8561 80.3175 43.428 80.6811 43.1023C81.0485 42.7727 81.4709 42.5341 81.9482 42.3864C82.4254 42.2348 82.9273 42.1591 83.4538 42.1591C83.8023 42.1591 84.1716 42.2008 84.5618 42.2841C84.9557 42.3636 85.3232 42.5114 85.6641 42.7273C86.0088 42.9432 86.291 43.2519 86.5107 43.6534C86.7304 44.0511 86.8402 44.5682 86.8402 45.2045V51H85.1811V49.8068H85.1129C85.0031 50.0265 84.8383 50.2424 84.6186 50.4545C84.3989 50.6667 84.1167 50.8428 83.772 50.983C83.4273 51.1231 83.0144 51.1932 82.5334 51.1932ZM82.9027 49.8295C83.3724 49.8295 83.7739 49.7367 84.1072 49.5511C84.4444 49.3655 84.7 49.1231 84.8743 48.8239C85.0523 48.5208 85.1413 48.197 85.1413 47.8523V46.7273C85.0807 46.7879 84.9633 46.8447 84.7891 46.8977C84.6186 46.947 84.4235 46.9905 84.2038 47.0284C83.9841 47.0625 83.7701 47.0947 83.5618 47.125C83.3535 47.1515 83.1792 47.1742 83.0391 47.1932C82.7095 47.2348 82.4084 47.3049 82.1357 47.4034C81.8667 47.5019 81.6508 47.6439 81.4879 47.8295C81.3288 48.0114 81.2493 48.2538 81.2493 48.5568C81.2493 48.9773 81.4046 49.2955 81.7152 49.5114C82.0258 49.7235 82.4216 49.8295 82.9027 49.8295ZM89.103 51V42.2727H90.8018V51H89.103ZM89.9609 40.9261C89.6655 40.9261 89.4117 40.8277 89.1996 40.6307C88.9912 40.4299 88.8871 40.1913 88.8871 39.9148C88.8871 39.6345 88.9912 39.3958 89.1996 39.1989C89.4117 38.9981 89.6655 38.8977 89.9609 38.8977C90.2564 38.8977 90.5083 38.9981 90.7166 39.1989C90.9287 39.3958 91.0348 39.6345 91.0348 39.9148C91.0348 40.1913 90.9287 40.4299 90.7166 40.6307C90.5083 40.8277 90.2564 40.9261 89.9609 40.9261ZM94.7862 39.3636V51H93.0874V39.3636H94.7862Z" fill="#757575"/>
<rect x="45.5" y="84.5" width="269" height="91.9347" rx="7.5" fill="white" stroke="#CCCCCC"/>
<path d="M60.1783 109H56.4112V97.3636H60.2976C61.4377 97.3636 62.4169 97.5966 63.2351 98.0625C64.0533 98.5246 64.6802 99.1894 65.1158 100.057C65.5552 100.92 65.7749 101.956 65.7749 103.165C65.7749 104.377 65.5533 105.419 65.1101 106.29C64.6707 107.161 64.0343 107.831 63.201 108.301C62.3677 108.767 61.3601 109 60.1783 109ZM58.1669 107.466H60.0817C60.968 107.466 61.7048 107.299 62.2919 106.966C62.879 106.629 63.3184 106.142 63.6101 105.506C63.9018 104.866 64.0476 104.085 64.0476 103.165C64.0476 102.252 63.9018 101.477 63.6101 100.841C63.3222 100.205 62.8923 99.7216 62.3203 99.392C61.7483 99.0625 61.0381 98.8977 60.1896 98.8977H58.1669V107.466ZM71.5831 109.176C70.7232 109.176 69.9827 108.992 69.3615 108.625C68.7441 108.254 68.2668 107.733 67.9297 107.062C67.5964 106.388 67.4297 105.598 67.4297 104.693C67.4297 103.799 67.5964 103.011 67.9297 102.33C68.2668 101.648 68.7365 101.116 69.3388 100.733C69.9448 100.35 70.6532 100.159 71.4638 100.159C71.9562 100.159 72.4335 100.241 72.8956 100.403C73.3577 100.566 73.7725 100.822 74.1399 101.17C74.5073 101.519 74.7971 101.972 75.0092 102.528C75.2214 103.081 75.3274 103.754 75.3274 104.545V105.148H68.3899V103.875H73.6626C73.6626 103.428 73.5717 103.032 73.3899 102.688C73.2081 102.339 72.9524 102.064 72.6229 101.864C72.2971 101.663 71.9145 101.562 71.4751 101.562C70.9979 101.562 70.5812 101.68 70.2251 101.915C69.8729 102.146 69.6001 102.449 69.407 102.824C69.2176 103.195 69.1229 103.598 69.1229 104.034V105.028C69.1229 105.612 69.2251 106.108 69.4297 106.517C69.638 106.926 69.9278 107.239 70.299 107.455C70.6702 107.667 71.1039 107.773 71.6001 107.773C71.9221 107.773 72.2157 107.727 72.4808 107.636C72.746 107.542 72.9751 107.402 73.1683 107.216C73.3615 107.03 73.5092 106.801 73.6115 106.528L75.2195 106.818C75.0907 107.292 74.8596 107.706 74.5263 108.062C74.1967 108.415 73.782 108.689 73.282 108.886C72.7857 109.08 72.2195 109.176 71.5831 109.176ZM83.7521 102.403L82.2124 102.676C82.148 102.479 82.0457 102.292 81.9055 102.114C81.7692 101.936 81.5836 101.79 81.3487 101.676C81.1139 101.562 80.8203 101.506 80.468 101.506C79.987 101.506 79.5855 101.614 79.2635 101.83C78.9415 102.042 78.7805 102.316 78.7805 102.653C78.7805 102.945 78.8885 103.18 79.1044 103.358C79.3203 103.536 79.6688 103.682 80.1499 103.795L81.5362 104.114C82.3393 104.299 82.9377 104.585 83.3317 104.972C83.7256 105.358 83.9226 105.86 83.9226 106.477C83.9226 107 83.7711 107.466 83.468 107.875C83.1688 108.28 82.7502 108.598 82.2124 108.83C81.6783 109.061 81.0589 109.176 80.3544 109.176C79.3771 109.176 78.5798 108.968 77.9624 108.551C77.3449 108.131 76.9661 107.534 76.826 106.761L78.468 106.511C78.5703 106.939 78.7805 107.263 79.0987 107.483C79.4169 107.699 79.8317 107.807 80.343 107.807C80.8999 107.807 81.3449 107.691 81.6783 107.46C82.0116 107.225 82.1783 106.939 82.1783 106.602C82.1783 106.33 82.076 106.1 81.8714 105.915C81.6707 105.729 81.362 105.589 80.9453 105.494L79.468 105.17C78.6536 104.985 78.0514 104.689 77.6612 104.284C77.2749 103.879 77.0817 103.366 77.0817 102.744C77.0817 102.229 77.2256 101.778 77.5135 101.392C77.8014 101.006 78.1991 100.705 78.7067 100.489C79.2143 100.269 79.7957 100.159 80.451 100.159C81.3942 100.159 82.1366 100.364 82.6783 100.773C83.2199 101.178 83.5779 101.722 83.7521 102.403ZM89.4666 109.176C88.6219 109.176 87.8946 108.985 87.2848 108.602C86.6787 108.216 86.2128 107.684 85.8871 107.006C85.5613 106.328 85.3984 105.551 85.3984 104.676C85.3984 103.79 85.5651 103.008 85.8984 102.33C86.2318 101.648 86.7015 101.116 87.3075 100.733C87.9136 100.35 88.6276 100.159 89.4496 100.159C90.1125 100.159 90.7034 100.282 91.2223 100.528C91.7412 100.771 92.1598 101.112 92.478 101.551C92.8 101.991 92.9912 102.504 93.0518 103.091H91.3984C91.3075 102.682 91.0992 102.33 90.7734 102.034C90.4515 101.739 90.0196 101.591 89.478 101.591C89.0045 101.591 88.5897 101.716 88.2337 101.966C87.8814 102.212 87.6068 102.564 87.4098 103.023C87.2128 103.477 87.1143 104.015 87.1143 104.636C87.1143 105.273 87.2109 105.822 87.4041 106.284C87.5973 106.746 87.87 107.104 88.2223 107.358C88.5784 107.612 88.9969 107.739 89.478 107.739C89.8 107.739 90.0916 107.68 90.353 107.562C90.6181 107.441 90.8397 107.269 91.0178 107.045C91.1996 106.822 91.3265 106.553 91.3984 106.239H93.0518C92.9912 106.803 92.8075 107.307 92.5007 107.75C92.1939 108.193 91.7829 108.542 91.2678 108.795C90.7564 109.049 90.156 109.176 89.4666 109.176ZM94.8686 109V100.273H96.5107V101.659H96.6016C96.7607 101.189 97.041 100.82 97.4425 100.551C97.8478 100.278 98.3061 100.142 98.8175 100.142C98.9235 100.142 99.0485 100.146 99.1925 100.153C99.3402 100.161 99.4557 100.17 99.5391 100.182V101.807C99.4709 101.788 99.3497 101.767 99.1754 101.744C99.0012 101.718 98.8269 101.705 98.6527 101.705C98.2512 101.705 97.8932 101.79 97.5788 101.96C97.2682 102.127 97.022 102.36 96.8402 102.659C96.6584 102.955 96.5675 103.292 96.5675 103.67V109H94.8686ZM101.009 109V100.273H102.708V109H101.009ZM101.867 98.9261C101.572 98.9261 101.318 98.8277 101.106 98.6307C100.897 98.4299 100.793 98.1913 100.793 97.9148C100.793 97.6345 100.897 97.3958 101.106 97.1989C101.318 96.9981 101.572 96.8977 101.867 96.8977C102.163 96.8977 102.415 96.9981 102.623 97.1989C102.835 97.3958 102.941 97.6345 102.941 97.9148C102.941 98.1913 102.835 98.4299 102.623 98.6307C102.415 98.8277 102.163 98.9261 101.867 98.9261ZM104.994 112.273V100.273H106.653V101.688H106.795C106.893 101.506 107.035 101.295 107.221 101.057C107.406 100.818 107.664 100.61 107.994 100.432C108.323 100.25 108.759 100.159 109.3 100.159C110.005 100.159 110.634 100.337 111.187 100.693C111.74 101.049 112.174 101.562 112.488 102.233C112.806 102.903 112.965 103.71 112.965 104.653C112.965 105.597 112.808 106.405 112.494 107.08C112.179 107.75 111.747 108.267 111.198 108.631C110.649 108.991 110.022 109.17 109.317 109.17C108.787 109.17 108.353 109.081 108.016 108.903C107.683 108.725 107.422 108.517 107.232 108.278C107.043 108.04 106.897 107.828 106.795 107.642H106.692V112.273H104.994ZM106.658 104.636C106.658 105.25 106.747 105.788 106.925 106.25C107.103 106.712 107.361 107.074 107.698 107.335C108.035 107.593 108.448 107.722 108.937 107.722C109.444 107.722 109.869 107.587 110.21 107.318C110.55 107.045 110.808 106.676 110.982 106.21C111.16 105.744 111.249 105.22 111.249 104.636C111.249 104.061 111.162 103.544 110.988 103.085C110.817 102.627 110.56 102.265 110.215 102C109.874 101.735 109.448 101.602 108.937 101.602C108.444 101.602 108.028 101.729 107.687 101.983C107.35 102.237 107.094 102.591 106.92 103.045C106.746 103.5 106.658 104.03 106.658 104.636ZM118.942 100.273V101.636H114.175V100.273H118.942ZM115.454 98.1818H117.153V106.438C117.153 106.767 117.202 107.015 117.3 107.182C117.399 107.345 117.526 107.456 117.681 107.517C117.84 107.574 118.013 107.602 118.198 107.602C118.335 107.602 118.454 107.593 118.556 107.574C118.658 107.555 118.738 107.54 118.795 107.528L119.102 108.932C119.003 108.97 118.863 109.008 118.681 109.045C118.499 109.087 118.272 109.11 117.999 109.114C117.552 109.121 117.136 109.042 116.749 108.875C116.363 108.708 116.05 108.451 115.812 108.102C115.573 107.754 115.454 107.316 115.454 106.79V98.1818ZM120.822 109V100.273H122.521V109H120.822ZM121.68 98.9261C121.384 98.9261 121.13 98.8277 120.918 98.6307C120.71 98.4299 120.606 98.1913 120.606 97.9148C120.606 97.6345 120.71 97.3958 120.918 97.1989C121.13 96.9981 121.384 96.8977 121.68 96.8977C121.975 96.8977 122.227 96.9981 122.435 97.1989C122.647 97.3958 122.754 97.6345 122.754 97.9148C122.754 98.1913 122.647 98.4299 122.435 98.6307C122.227 98.8277 121.975 98.9261 121.68 98.9261ZM128.482 109.176C127.664 109.176 126.95 108.989 126.34 108.614C125.73 108.239 125.257 107.714 124.92 107.04C124.583 106.366 124.414 105.578 124.414 104.676C124.414 103.771 124.583 102.979 124.92 102.301C125.257 101.623 125.73 101.097 126.34 100.722C126.95 100.347 127.664 100.159 128.482 100.159C129.3 100.159 130.014 100.347 130.624 100.722C131.234 101.097 131.708 101.623 132.045 102.301C132.382 102.979 132.55 103.771 132.55 104.676C132.55 105.578 132.382 106.366 132.045 107.04C131.708 107.714 131.234 108.239 130.624 108.614C130.014 108.989 129.3 109.176 128.482 109.176ZM128.488 107.75C129.018 107.75 129.458 107.61 129.806 107.33C130.155 107.049 130.412 106.676 130.579 106.21C130.749 105.744 130.835 105.231 130.835 104.67C130.835 104.114 130.749 103.602 130.579 103.136C130.412 102.667 130.155 102.29 129.806 102.006C129.458 101.722 129.018 101.58 128.488 101.58C127.954 101.58 127.511 101.722 127.158 102.006C126.81 102.29 126.55 102.667 126.38 103.136C126.213 103.602 126.13 104.114 126.13 104.67C126.13 105.231 126.213 105.744 126.38 106.21C126.55 106.676 126.81 107.049 127.158 107.33C127.511 107.61 127.954 107.75 128.488 107.75ZM136.146 103.818V109H134.447V100.273H136.077V101.693H136.185C136.386 101.231 136.701 100.86 137.129 100.58C137.56 100.299 138.104 100.159 138.759 100.159C139.354 100.159 139.875 100.284 140.322 100.534C140.769 100.78 141.115 101.148 141.362 101.636C141.608 102.125 141.731 102.729 141.731 103.449V109H140.032V103.653C140.032 103.021 139.867 102.527 139.538 102.17C139.208 101.811 138.755 101.631 138.18 101.631C137.786 101.631 137.435 101.716 137.129 101.886C136.826 102.057 136.585 102.307 136.407 102.636C136.233 102.962 136.146 103.356 136.146 103.818Z" fill="#757575"/>
</g>
<defs>
<clipPath id="clip0_121_3">
<rect width="360" height="200" fill="white"/>
</clipPath>
</defs>
</svg>
