<svg width="360" height="200" viewBox="0 0 360 200" fill="none" xmlns="http://www.w3.org/2000/svg">
<g clip-path="url(#clip0_122_3)">
<rect width="360" height="200" fill="#C6DBEF"/>
<circle cx="143" cy="70" r="9.5" fill="white" stroke="#1A7FDC"/>
<path d="M171.132 64.8182H172.673V71.5149C172.673 72.2275 172.506 72.8589 172.171 73.4091C171.836 73.956 171.366 74.3868 170.759 74.7017C170.153 75.0133 169.442 75.169 168.626 75.169C167.814 75.169 167.105 75.0133 166.498 74.7017C165.892 74.3868 165.421 73.956 165.087 73.4091C164.752 72.8589 164.584 72.2275 164.584 71.5149V64.8182H166.121V71.3906C166.121 71.8513 166.222 72.2607 166.424 72.6186C166.629 72.9766 166.919 73.2583 167.294 73.4638C167.668 73.666 168.113 73.767 168.626 73.767C169.143 73.767 169.589 73.666 169.964 73.4638C170.342 73.2583 170.63 72.9766 170.829 72.6186C171.031 72.2607 171.132 71.8513 171.132 71.3906V64.8182ZM176.155 72.4098L176.145 70.5952H176.403L179.446 67.3636H181.226L177.755 71.0426H177.522L176.155 72.4098ZM174.787 75V64.8182H176.274V75H174.787ZM179.61 75L176.875 71.3707L177.9 70.3317L181.434 75H179.61ZM182.58 75V67.3636H184.017V68.5767H184.097C184.236 68.1657 184.481 67.8426 184.832 67.6072C185.187 67.3686 185.588 67.2493 186.036 67.2493C186.128 67.2493 186.238 67.2526 186.364 67.2592C186.493 67.2659 186.594 67.2741 186.667 67.2841V68.706C186.607 68.6894 186.501 68.6712 186.349 68.6513C186.196 68.6281 186.044 68.6165 185.891 68.6165C185.54 68.6165 185.227 68.6911 184.952 68.8402C184.68 68.986 184.465 69.1899 184.305 69.4517C184.146 69.7102 184.067 70.0052 184.067 70.3366V75H182.58ZM190.107 75.169C189.623 75.169 189.186 75.0795 188.795 74.9006C188.404 74.7183 188.094 74.4548 187.865 74.1101C187.64 73.7654 187.527 73.3428 187.527 72.8423C187.527 72.4115 187.61 72.0568 187.776 71.7784C187.941 71.5 188.165 71.2796 188.447 71.1172C188.729 70.9548 189.043 70.8321 189.391 70.7493C189.739 70.6664 190.094 70.6035 190.455 70.5604C190.913 70.5073 191.284 70.4643 191.569 70.4311C191.854 70.3946 192.061 70.3366 192.19 70.2571C192.32 70.1776 192.384 70.0483 192.384 69.8693V69.8345C192.384 69.4003 192.262 69.0639 192.016 68.8253C191.774 68.5866 191.413 68.4673 190.933 68.4673C190.432 68.4673 190.038 68.5784 189.749 68.8004C189.464 69.0192 189.267 69.2628 189.158 69.5312L187.761 69.2131C187.926 68.7491 188.168 68.3745 188.487 68.0895C188.808 67.8011 189.178 67.5923 189.595 67.4631C190.013 67.3305 190.452 67.2642 190.913 67.2642C191.218 67.2642 191.541 67.3007 191.882 67.3736C192.227 67.4432 192.548 67.5724 192.847 67.7614C193.148 67.9503 193.395 68.2204 193.587 68.5717C193.78 68.9197 193.876 69.3722 193.876 69.929V75H192.424V73.956H192.364C192.268 74.1482 192.124 74.3371 191.932 74.5227C191.74 74.7083 191.493 74.8625 191.191 74.9851C190.89 75.1077 190.528 75.169 190.107 75.169ZM190.43 73.9759C190.841 73.9759 191.193 73.8946 191.484 73.7322C191.779 73.5698 192.003 73.3577 192.156 73.0959C192.311 72.8307 192.389 72.5473 192.389 72.2457V71.2614C192.336 71.3144 192.234 71.3641 192.081 71.4105C191.932 71.4536 191.761 71.4917 191.569 71.5249C191.377 71.5547 191.189 71.5829 191.007 71.6094C190.825 71.6326 190.672 71.6525 190.55 71.669C190.261 71.7055 189.998 71.7668 189.759 71.853C189.524 71.9392 189.335 72.0634 189.193 72.2259C189.053 72.3849 188.984 72.5971 188.984 72.8622C188.984 73.2301 189.12 73.5085 189.391 73.6974C189.663 73.883 190.01 73.9759 190.43 73.9759ZM195.856 75V67.3636H197.342V75H195.856ZM196.606 66.1854C196.348 66.1854 196.126 66.0992 195.94 65.9268C195.758 65.7512 195.667 65.5424 195.667 65.3004C195.667 65.0552 195.758 64.8464 195.94 64.674C196.126 64.4983 196.348 64.4105 196.606 64.4105C196.865 64.4105 197.085 64.4983 197.268 64.674C197.453 64.8464 197.546 65.0552 197.546 65.3004C197.546 65.5424 197.453 65.7512 197.268 65.9268C197.085 66.0992 196.865 66.1854 196.606 66.1854ZM200.829 70.4659V75H199.342V67.3636H200.769V68.6065H200.863C201.039 68.2022 201.314 67.8774 201.689 67.6321C202.066 67.3868 202.542 67.2642 203.116 67.2642C203.636 67.2642 204.092 67.3736 204.483 67.5923C204.874 67.8078 205.177 68.1293 205.392 68.5568C205.608 68.9844 205.716 69.513 205.716 70.1428V75H204.229V70.3217C204.229 69.7682 204.085 69.3357 203.797 69.0241C203.508 68.7093 203.112 68.5518 202.608 68.5518C202.264 68.5518 201.957 68.6264 201.689 68.7756C201.424 68.9247 201.213 69.1435 201.057 69.4318C200.905 69.7169 200.829 70.0616 200.829 70.4659ZM207.709 75V67.3636H209.196V75H207.709ZM208.46 66.1854C208.201 66.1854 207.979 66.0992 207.794 65.9268C207.611 65.7512 207.52 65.5424 207.52 65.3004C207.52 65.0552 207.611 64.8464 207.794 64.674C207.979 64.4983 208.201 64.4105 208.46 64.4105C208.718 64.4105 208.939 64.4983 209.121 64.674C209.307 64.8464 209.4 65.0552 209.4 65.3004C209.4 65.5424 209.307 65.7512 209.121 65.9268C208.939 66.0992 208.718 66.1854 208.46 66.1854ZM213.418 75.169C212.934 75.169 212.496 75.0795 212.105 74.9006C211.714 74.7183 211.404 74.4548 211.176 74.1101C210.95 73.7654 210.838 73.3428 210.838 72.8423C210.838 72.4115 210.92 72.0568 211.086 71.7784C211.252 71.5 211.476 71.2796 211.757 71.1172C212.039 70.9548 212.354 70.8321 212.702 70.7493C213.05 70.6664 213.405 70.6035 213.766 70.5604C214.223 70.5073 214.594 70.4643 214.88 70.4311C215.165 70.3946 215.372 70.3366 215.501 70.2571C215.63 70.1776 215.695 70.0483 215.695 69.8693V69.8345C215.695 69.4003 215.572 69.0639 215.327 68.8253C215.085 68.5866 214.724 68.4673 214.243 68.4673C213.743 68.4673 213.348 68.5784 213.06 68.8004C212.775 69.0192 212.578 69.2628 212.468 69.5312L211.071 69.2131C211.237 68.7491 211.479 68.3745 211.797 68.0895C212.119 67.8011 212.488 67.5923 212.906 67.4631C213.323 67.3305 213.763 67.2642 214.223 67.2642C214.528 67.2642 214.851 67.3007 215.193 67.3736C215.537 67.4432 215.859 67.5724 216.157 67.7614C216.459 67.9503 216.706 68.2204 216.898 68.5717C217.09 68.9197 217.186 69.3722 217.186 69.929V75H215.735V73.956H215.675C215.579 74.1482 215.435 74.3371 215.242 74.5227C215.05 74.7083 214.803 74.8625 214.502 74.9851C214.2 75.1077 213.839 75.169 213.418 75.169ZM213.741 73.9759C214.152 73.9759 214.503 73.8946 214.795 73.7322C215.09 73.5698 215.314 73.3577 215.466 73.0959C215.622 72.8307 215.7 72.5473 215.7 72.2457V71.2614C215.647 71.3144 215.544 71.3641 215.392 71.4105C215.242 71.4536 215.072 71.4917 214.88 71.5249C214.687 71.5547 214.5 71.5829 214.318 71.6094C214.135 71.6326 213.983 71.6525 213.86 71.669C213.572 71.7055 213.309 71.7668 213.07 71.853C212.835 71.9392 212.646 72.0634 212.503 72.2259C212.364 72.3849 212.294 72.5971 212.294 72.8622C212.294 73.2301 212.43 73.5085 212.702 73.6974C212.974 73.883 213.32 73.9759 213.741 73.9759ZM220.653 70.4659V75H219.166V67.3636H220.593V68.6065H220.688C220.863 68.2022 221.138 67.8774 221.513 67.6321C221.891 67.3868 222.366 67.2642 222.94 67.2642C223.46 67.2642 223.916 67.3736 224.307 67.5923C224.698 67.8078 225.001 68.1293 225.217 68.5568C225.432 68.9844 225.54 69.513 225.54 70.1428V75H224.053V70.3217C224.053 69.7682 223.909 69.3357 223.621 69.0241C223.332 68.7093 222.936 68.5518 222.433 68.5518C222.088 68.5518 221.781 68.6264 221.513 68.7756C221.248 68.9247 221.037 69.1435 220.881 69.4318C220.729 69.7169 220.653 70.0616 220.653 70.4659Z" fill="black"/>
<circle cx="143" cy="70" r="5" fill="#1A7FDC"/>
<circle cx="143" cy="100" r="9.5" fill="white" stroke="#BBBBBB"/>
<path d="M164.447 105V94.8182H170.83V96.1406H165.983V99.2429H170.497V100.56H165.983V103.678H170.89V105H164.447ZM174.249 100.466V105H172.763V97.3636H174.19V98.6065H174.284C174.46 98.2022 174.735 97.8774 175.11 97.6321C175.487 97.3868 175.963 97.2642 176.536 97.2642C177.057 97.2642 177.512 97.3736 177.904 97.5923C178.295 97.8078 178.598 98.1293 178.813 98.5568C179.029 98.9844 179.137 99.513 179.137 100.143V105H177.65V100.322C177.65 99.7682 177.506 99.3357 177.218 99.0241C176.929 98.7093 176.533 98.5518 176.029 98.5518C175.685 98.5518 175.378 98.6264 175.11 98.7756C174.844 98.9247 174.634 99.1435 174.478 99.4318C174.326 99.7169 174.249 100.062 174.249 100.466ZM184.332 108.023C183.725 108.023 183.203 107.943 182.766 107.784C182.332 107.625 181.977 107.415 181.702 107.153C181.427 106.891 181.221 106.604 181.085 106.293L182.363 105.766C182.453 105.911 182.572 106.066 182.721 106.228C182.874 106.394 183.079 106.535 183.338 106.651C183.599 106.767 183.936 106.825 184.347 106.825C184.91 106.825 185.376 106.687 185.744 106.412C186.112 106.14 186.296 105.706 186.296 105.109V103.608H186.201C186.112 103.77 185.982 103.951 185.813 104.15C185.648 104.349 185.419 104.521 185.127 104.667C184.836 104.813 184.456 104.886 183.989 104.886C183.386 104.886 182.842 104.745 182.358 104.463C181.878 104.178 181.496 103.759 181.215 103.205C180.936 102.648 180.797 101.964 180.797 101.152C180.797 100.34 180.935 99.6439 181.21 99.0639C181.488 98.4839 181.869 98.0398 182.353 97.7315C182.837 97.42 183.386 97.2642 183.999 97.2642C184.473 97.2642 184.856 97.3438 185.147 97.5028C185.439 97.6586 185.666 97.8409 185.828 98.0497C185.994 98.2585 186.122 98.4425 186.211 98.6016H186.32V97.3636H187.777V105.169C187.777 105.825 187.625 106.364 187.32 106.785C187.015 107.206 186.602 107.517 186.082 107.719C185.565 107.922 184.981 108.023 184.332 108.023ZM184.317 103.653C184.744 103.653 185.106 103.553 185.401 103.354C185.699 103.152 185.924 102.864 186.077 102.489C186.233 102.112 186.311 101.659 186.311 101.132C186.311 100.618 186.234 100.166 186.082 99.7749C185.929 99.3838 185.706 99.0788 185.411 98.8601C185.116 98.638 184.751 98.527 184.317 98.527C183.869 98.527 183.497 98.643 183.198 98.875C182.9 99.1037 182.675 99.4152 182.522 99.8097C182.373 100.204 182.298 100.645 182.298 101.132C182.298 101.633 182.375 102.072 182.527 102.45C182.68 102.827 182.905 103.122 183.203 103.335C183.505 103.547 183.876 103.653 184.317 103.653ZM191.257 94.8182V105H189.771V94.8182H191.257ZM193.257 105V97.3636H194.744V105H193.257ZM194.008 96.1854C193.749 96.1854 193.527 96.0992 193.342 95.9268C193.159 95.7512 193.068 95.5424 193.068 95.3004C193.068 95.0552 193.159 94.8464 193.342 94.674C193.527 94.4983 193.749 94.4105 194.008 94.4105C194.266 94.4105 194.487 94.4983 194.669 94.674C194.855 94.8464 194.947 95.0552 194.947 95.3004C194.947 95.5424 194.855 95.7512 194.669 95.9268C194.487 96.0992 194.266 96.1854 194.008 96.1854ZM202.466 99.228L201.118 99.4666C201.062 99.2943 200.973 99.1302 200.85 98.9744C200.731 98.8187 200.568 98.6911 200.363 98.5916C200.157 98.4922 199.9 98.4425 199.592 98.4425C199.171 98.4425 198.82 98.5369 198.538 98.7259C198.256 98.9115 198.116 99.1518 198.116 99.4467C198.116 99.7019 198.21 99.9074 198.399 100.063C198.588 100.219 198.893 100.347 199.314 100.446L200.527 100.724C201.229 100.887 201.753 101.137 202.098 101.475C202.443 101.813 202.615 102.252 202.615 102.793C202.615 103.25 202.482 103.658 202.217 104.016C201.955 104.37 201.589 104.649 201.118 104.851C200.651 105.053 200.109 105.154 199.493 105.154C198.638 105.154 197.94 104.972 197.4 104.607C196.859 104.239 196.528 103.717 196.405 103.041L197.842 102.822C197.932 103.197 198.116 103.48 198.394 103.673C198.672 103.862 199.035 103.956 199.483 103.956C199.97 103.956 200.359 103.855 200.651 103.653C200.943 103.447 201.089 103.197 201.089 102.902C201.089 102.663 200.999 102.463 200.82 102.3C200.644 102.138 200.374 102.015 200.01 101.933L198.717 101.649C198.005 101.487 197.478 101.228 197.136 100.874C196.798 100.519 196.629 100.07 196.629 99.5263C196.629 99.0755 196.755 98.6811 197.007 98.343C197.259 98.005 197.607 97.7415 198.051 97.5526C198.495 97.3603 199.004 97.2642 199.577 97.2642C200.403 97.2642 201.052 97.4432 201.526 97.8011C202 98.1558 202.313 98.6314 202.466 99.228ZM205.736 100.466V105H204.249V94.8182H205.716V98.6065H205.81C205.989 98.1955 206.263 97.8691 206.631 97.6271C206.999 97.3852 207.479 97.2642 208.072 97.2642C208.596 97.2642 209.054 97.3719 209.445 97.5874C209.839 97.8028 210.144 98.1243 210.359 98.5518C210.578 98.9761 210.688 99.5064 210.688 100.143V105H209.201V100.322C209.201 99.7616 209.057 99.3274 208.768 99.0192C208.48 98.7076 208.079 98.5518 207.565 98.5518C207.214 98.5518 206.899 98.6264 206.621 98.7756C206.346 98.9247 206.129 99.1435 205.969 99.4318C205.814 99.7169 205.736 100.062 205.736 100.466Z" fill="black"/>
<circle cx="143" cy="130" r="9.5" fill="white" stroke="#BBBBBB"/>
<path d="M171.116 128.035C171.02 127.733 170.89 127.463 170.728 127.224C170.569 126.982 170.378 126.777 170.156 126.608C169.934 126.436 169.681 126.305 169.396 126.215C169.114 126.126 168.804 126.081 168.466 126.081C167.892 126.081 167.375 126.228 166.915 126.523C166.454 126.818 166.089 127.251 165.821 127.821C165.556 128.388 165.423 129.082 165.423 129.904C165.423 130.729 165.557 131.427 165.826 131.997C166.094 132.567 166.462 133 166.93 133.295C167.397 133.59 167.929 133.737 168.525 133.737C169.079 133.737 169.561 133.625 169.972 133.399C170.387 133.174 170.706 132.856 170.932 132.445C171.16 132.03 171.275 131.543 171.275 130.983L171.672 131.058H168.759V129.79H172.761V130.948C172.761 131.803 172.579 132.546 172.214 133.175C171.853 133.802 171.353 134.286 170.713 134.627C170.077 134.969 169.347 135.139 168.525 135.139C167.604 135.139 166.795 134.927 166.099 134.503C165.407 134.079 164.866 133.477 164.479 132.698C164.091 131.916 163.897 130.988 163.897 129.914C163.897 129.102 164.01 128.373 164.235 127.727C164.46 127.08 164.777 126.532 165.185 126.081C165.596 125.627 166.078 125.281 166.631 125.042C167.188 124.8 167.796 124.679 168.456 124.679C169.006 124.679 169.518 124.76 169.992 124.923C170.469 125.085 170.894 125.315 171.265 125.614C171.639 125.912 171.949 126.267 172.195 126.678C172.44 127.085 172.605 127.538 172.692 128.035H171.116ZM177.883 135.154C177.131 135.154 176.483 134.993 175.939 134.672C175.399 134.347 174.982 133.891 174.687 133.305C174.395 132.715 174.249 132.024 174.249 131.232C174.249 130.449 174.395 129.76 174.687 129.163C174.982 128.567 175.392 128.101 175.919 127.766C176.45 127.432 177.07 127.264 177.779 127.264C178.21 127.264 178.627 127.335 179.032 127.478C179.436 127.621 179.799 127.844 180.12 128.149C180.442 128.454 180.696 128.85 180.881 129.337C181.067 129.821 181.16 130.41 181.16 131.102V131.629H175.089V130.516H179.703C179.703 130.125 179.623 129.778 179.464 129.477C179.305 129.172 179.081 128.931 178.793 128.756C178.508 128.58 178.173 128.492 177.789 128.492C177.371 128.492 177.007 128.595 176.695 128.8C176.387 129.003 176.148 129.268 175.979 129.596C175.813 129.921 175.731 130.274 175.731 130.655V131.525C175.731 132.035 175.82 132.469 175.999 132.827C176.181 133.185 176.435 133.459 176.76 133.648C177.084 133.833 177.464 133.926 177.898 133.926C178.18 133.926 178.437 133.886 178.669 133.807C178.901 133.724 179.101 133.601 179.27 133.439C179.439 133.277 179.569 133.076 179.658 132.837L181.065 133.091C180.952 133.505 180.75 133.868 180.459 134.18C180.17 134.488 179.807 134.728 179.37 134.901C178.936 135.07 178.44 135.154 177.883 135.154ZM182.809 135V127.364H184.246V128.577H184.325C184.464 128.166 184.71 127.843 185.061 127.607C185.416 127.369 185.817 127.249 186.264 127.249C186.357 127.249 186.466 127.253 186.592 127.259C186.722 127.266 186.823 127.274 186.896 127.284V128.706C186.836 128.689 186.73 128.671 186.577 128.651C186.425 128.628 186.272 128.616 186.12 128.616C185.769 128.616 185.455 128.691 185.18 128.84C184.909 128.986 184.693 129.19 184.534 129.452C184.375 129.71 184.295 130.005 184.295 130.337V135H182.809ZM188.182 135V127.364H189.609V128.607H189.703C189.862 128.186 190.122 127.857 190.484 127.622C190.845 127.384 191.278 127.264 191.781 127.264C192.292 127.264 192.719 127.384 193.064 127.622C193.412 127.861 193.669 128.189 193.835 128.607H193.914C194.096 128.199 194.386 127.874 194.784 127.632C195.182 127.387 195.656 127.264 196.206 127.264C196.899 127.264 197.464 127.481 197.901 127.915C198.342 128.35 198.563 129.004 198.563 129.879V135H197.076V130.018C197.076 129.501 196.935 129.127 196.653 128.895C196.372 128.663 196.035 128.547 195.644 128.547C195.16 128.547 194.784 128.696 194.516 128.994C194.247 129.289 194.113 129.669 194.113 130.133V135H192.631V129.924C192.631 129.51 192.502 129.177 192.244 128.925C191.985 128.673 191.649 128.547 191.234 128.547C190.953 128.547 190.693 128.621 190.454 128.771C190.219 128.916 190.028 129.12 189.882 129.382C189.74 129.644 189.668 129.947 189.668 130.292V135H188.182ZM202.777 135.169C202.293 135.169 201.856 135.08 201.465 134.901C201.074 134.718 200.764 134.455 200.535 134.11C200.31 133.765 200.197 133.343 200.197 132.842C200.197 132.411 200.28 132.057 200.446 131.778C200.611 131.5 200.835 131.28 201.117 131.117C201.398 130.955 201.713 130.832 202.061 130.749C202.409 130.666 202.764 130.603 203.125 130.56C203.583 130.507 203.954 130.464 204.239 130.431C204.524 130.395 204.731 130.337 204.86 130.257C204.99 130.178 205.054 130.048 205.054 129.869V129.835C205.054 129.4 204.932 129.064 204.686 128.825C204.444 128.587 204.083 128.467 203.603 128.467C203.102 128.467 202.708 128.578 202.419 128.8C202.134 129.019 201.937 129.263 201.828 129.531L200.431 129.213C200.596 128.749 200.838 128.375 201.157 128.089C201.478 127.801 201.848 127.592 202.265 127.463C202.683 127.33 203.122 127.264 203.583 127.264C203.888 127.264 204.211 127.301 204.552 127.374C204.897 127.443 205.218 127.572 205.517 127.761C205.818 127.95 206.065 128.22 206.257 128.572C206.45 128.92 206.546 129.372 206.546 129.929V135H205.094V133.956H205.034C204.938 134.148 204.794 134.337 204.602 134.523C204.41 134.708 204.163 134.862 203.861 134.985C203.559 135.108 203.198 135.169 202.777 135.169ZM203.1 133.976C203.511 133.976 203.863 133.895 204.154 133.732C204.449 133.57 204.673 133.358 204.826 133.096C204.981 132.831 205.059 132.547 205.059 132.246V131.261C205.006 131.314 204.903 131.364 204.751 131.411C204.602 131.454 204.431 131.492 204.239 131.525C204.047 131.555 203.859 131.583 203.677 131.609C203.495 131.633 203.342 131.652 203.22 131.669C202.931 131.705 202.668 131.767 202.429 131.853C202.194 131.939 202.005 132.063 201.862 132.226C201.723 132.385 201.654 132.597 201.654 132.862C201.654 133.23 201.79 133.509 202.061 133.697C202.333 133.883 202.679 133.976 203.1 133.976ZM210.012 130.466V135H208.526V127.364H209.953V128.607H210.047C210.223 128.202 210.498 127.877 210.872 127.632C211.25 127.387 211.726 127.264 212.299 127.264C212.819 127.264 213.275 127.374 213.666 127.592C214.057 127.808 214.361 128.129 214.576 128.557C214.792 128.984 214.899 129.513 214.899 130.143V135H213.413V130.322C213.413 129.768 213.269 129.336 212.98 129.024C212.692 128.709 212.296 128.552 211.792 128.552C211.447 128.552 211.141 128.626 210.872 128.776C210.607 128.925 210.397 129.143 210.241 129.432C210.088 129.717 210.012 130.062 210.012 130.466Z" fill="black"/>
</g>
<defs>
<clipPath id="clip0_122_3">
<rect width="360" height="200" fill="white"/>
</clipPath>
</defs>
</svg>
