<svg width="360" height="200" viewBox="0 0 360 200" fill="none" xmlns="http://www.w3.org/2000/svg">
<g clip-path="url(#clip0_127_5)">
<rect width="360" height="200" fill="#C6DBEF"/>
<rect x="45.5" y="23.5" width="269" height="45" rx="7.5" fill="white" stroke="#CCCCCC"/>
<path d="M69.3597 37.1108H68.0302C67.979 36.8267 67.8839 36.5767 67.7447 36.3608C67.6055 36.1449 67.435 35.9616 67.2333 35.8111C67.0316 35.6605 66.8058 35.5469 66.5558 35.4702C66.3086 35.3935 66.0458 35.3551 65.7674 35.3551C65.2646 35.3551 64.8143 35.4815 64.4165 35.7344C64.0217 35.9872 63.7092 36.358 63.479 36.8466C63.2518 37.3352 63.1381 37.9318 63.1381 38.6364C63.1381 39.3466 63.2518 39.946 63.479 40.4347C63.7092 40.9233 64.0231 41.2926 64.4208 41.5426C64.8185 41.7926 65.266 41.9176 65.7631 41.9176C66.0387 41.9176 66.3001 41.8807 66.5472 41.8068C66.7972 41.7301 67.0231 41.6179 67.2248 41.4702C67.4265 41.3224 67.5969 41.142 67.7362 40.929C67.8782 40.7131 67.9762 40.4659 68.0302 40.1875L69.3597 40.1918C69.2887 40.6207 69.1509 41.0156 68.9464 41.3764C68.7447 41.7344 68.4847 42.044 68.1665 42.3054C67.8512 42.5639 67.4904 42.7642 67.0842 42.9062C66.6779 43.0483 66.2347 43.1193 65.7546 43.1193C64.9989 43.1193 64.3256 42.9403 63.7347 42.5824C63.1438 42.2216 62.6779 41.706 62.337 41.0355C61.9989 40.3651 61.8299 39.5653 61.8299 38.6364C61.8299 37.7045 62.0004 36.9048 62.3413 36.2372C62.6822 35.5668 63.1481 35.0526 63.739 34.6946C64.3299 34.3338 65.0018 34.1534 65.7546 34.1534C66.2177 34.1534 66.6495 34.2202 67.0501 34.3537C67.4535 34.4844 67.8157 34.6776 68.1367 34.9332C68.4577 35.1861 68.7234 35.4957 68.9336 35.8622C69.1438 36.2259 69.2859 36.642 69.3597 37.1108ZM72.1072 39.1136V43H70.8331V34.2727H72.0902V37.5199H72.1712C72.3246 37.1676 72.5589 36.8878 72.8743 36.6804C73.1896 36.473 73.6016 36.3693 74.1101 36.3693C74.5589 36.3693 74.951 36.4616 75.2862 36.6463C75.6243 36.831 75.8857 37.1065 76.0703 37.473C76.2578 37.8366 76.3516 38.2912 76.3516 38.8366V43H75.0774V38.9901C75.0774 38.5099 74.9538 38.1378 74.7067 37.8736C74.4595 37.6065 74.1158 37.473 73.6754 37.473C73.3743 37.473 73.1044 37.5369 72.8658 37.6648C72.63 37.7926 72.4439 37.9801 72.3075 38.2273C72.174 38.4716 72.1072 38.767 72.1072 39.1136ZM80.8089 43.1321C80.1953 43.1321 79.6598 42.9915 79.2024 42.7102C78.745 42.429 78.3899 42.0355 78.1371 41.5298C77.8842 41.0241 77.7578 40.4332 77.7578 39.7571C77.7578 39.0781 77.8842 38.4844 78.1371 37.9759C78.3899 37.4673 78.745 37.0724 79.2024 36.7912C79.6598 36.5099 80.1953 36.3693 80.8089 36.3693C81.4226 36.3693 81.9581 36.5099 82.4155 36.7912C82.8729 37.0724 83.228 37.4673 83.4808 37.9759C83.7337 38.4844 83.8601 39.0781 83.8601 39.7571C83.8601 40.4332 83.7337 41.0241 83.4808 41.5298C83.228 42.0355 82.8729 42.429 82.4155 42.7102C81.9581 42.9915 81.4226 43.1321 80.8089 43.1321ZM80.8132 42.0625C81.2109 42.0625 81.5405 41.9574 81.8018 41.7472C82.0632 41.5369 82.2564 41.2571 82.3814 40.9077C82.5092 40.5582 82.5732 40.1733 82.5732 39.7528C82.5732 39.3352 82.5092 38.9517 82.3814 38.6023C82.2564 38.25 82.0632 37.9673 81.8018 37.7543C81.5405 37.5412 81.2109 37.4347 80.8132 37.4347C80.4126 37.4347 80.0803 37.5412 79.8161 37.7543C79.5547 37.9673 79.3601 38.25 79.2322 38.6023C79.1072 38.9517 79.0447 39.3352 79.0447 39.7528C79.0447 40.1733 79.1072 40.5582 79.2322 40.9077C79.3601 41.2571 79.5547 41.5369 79.8161 41.7472C80.0803 41.9574 80.4126 42.0625 80.8132 42.0625ZM88.0394 43.1321C87.4258 43.1321 86.8903 42.9915 86.4329 42.7102C85.9755 42.429 85.6204 42.0355 85.3675 41.5298C85.1147 41.0241 84.9883 40.4332 84.9883 39.7571C84.9883 39.0781 85.1147 38.4844 85.3675 37.9759C85.6204 37.4673 85.9755 37.0724 86.4329 36.7912C86.8903 36.5099 87.4258 36.3693 88.0394 36.3693C88.6531 36.3693 89.1886 36.5099 89.646 36.7912C90.1033 37.0724 90.4585 37.4673 90.7113 37.9759C90.9641 38.4844 91.0906 39.0781 91.0906 39.7571C91.0906 40.4332 90.9641 41.0241 90.7113 41.5298C90.4585 42.0355 90.1033 42.429 89.646 42.7102C89.1886 42.9915 88.6531 43.1321 88.0394 43.1321ZM88.0437 42.0625C88.4414 42.0625 88.771 41.9574 89.0323 41.7472C89.2937 41.5369 89.4869 41.2571 89.6119 40.9077C89.7397 40.5582 89.8036 40.1733 89.8036 39.7528C89.8036 39.3352 89.7397 38.9517 89.6119 38.6023C89.4869 38.25 89.2937 37.9673 89.0323 37.7543C88.771 37.5412 88.4414 37.4347 88.0437 37.4347C87.6431 37.4347 87.3107 37.5412 87.0465 37.7543C86.7852 37.9673 86.5906 38.25 86.4627 38.6023C86.3377 38.9517 86.2752 39.3352 86.2752 39.7528C86.2752 40.1733 86.3377 40.5582 86.4627 40.9077C86.5906 41.2571 86.7852 41.5369 87.0465 41.7472C87.3107 41.9574 87.6431 42.0625 88.0437 42.0625ZM97.4176 38.0526L96.2628 38.2571C96.2145 38.1094 96.1378 37.9687 96.0327 37.8352C95.9304 37.7017 95.7912 37.5923 95.6151 37.5071C95.4389 37.4219 95.2188 37.3793 94.9545 37.3793C94.5938 37.3793 94.2926 37.4602 94.0511 37.6222C93.8097 37.7812 93.6889 37.9872 93.6889 38.2401C93.6889 38.4588 93.7699 38.6349 93.9318 38.7685C94.0938 38.902 94.3551 39.0114 94.7159 39.0966L95.7557 39.3352C96.358 39.4744 96.8068 39.6889 97.1023 39.9787C97.3977 40.2685 97.5455 40.6449 97.5455 41.108C97.5455 41.5 97.4318 41.8494 97.2045 42.1562C96.9801 42.4602 96.6662 42.6989 96.2628 42.8722C95.8622 43.0455 95.3977 43.1321 94.8693 43.1321C94.1364 43.1321 93.5384 42.9759 93.0753 42.6634C92.6122 42.348 92.3281 41.9006 92.223 41.321L93.4545 41.1335C93.5313 41.4545 93.6889 41.6974 93.9276 41.8622C94.1662 42.0241 94.4773 42.1051 94.8608 42.1051C95.2784 42.1051 95.6122 42.0185 95.8622 41.8452C96.1122 41.669 96.2372 41.4545 96.2372 41.2017C96.2372 40.9972 96.1605 40.8253 96.0071 40.6861C95.8565 40.5469 95.625 40.4418 95.3125 40.3707L94.2045 40.1278C93.5938 39.9886 93.142 39.767 92.8494 39.4631C92.5597 39.1591 92.4148 38.7741 92.4148 38.3082C92.4148 37.9219 92.5227 37.5838 92.7386 37.294C92.9545 37.0043 93.2528 36.7784 93.6335 36.6165C94.0142 36.4517 94.4503 36.3693 94.9418 36.3693C95.6491 36.3693 96.206 36.5227 96.6122 36.8295C97.0185 37.1335 97.2869 37.5412 97.4176 38.0526ZM101.767 43.1321C101.123 43.1321 100.567 42.9943 100.101 42.7188C99.6381 42.4403 99.2802 42.0497 99.0273 41.5469C98.7773 41.0412 98.6523 40.4489 98.6523 39.7699C98.6523 39.0994 98.7773 38.5085 99.0273 37.9972C99.2802 37.4858 99.6325 37.0866 100.084 36.7997C100.539 36.5128 101.07 36.3693 101.678 36.3693C102.047 36.3693 102.405 36.4304 102.752 36.5526C103.098 36.6747 103.409 36.8665 103.685 37.1278C103.961 37.3892 104.178 37.7287 104.337 38.1463C104.496 38.5611 104.576 39.0653 104.576 39.6591V40.1108H99.3725V39.1562H103.327C103.327 38.821 103.259 38.5241 103.123 38.2656C102.986 38.0043 102.794 37.7983 102.547 37.6477C102.303 37.4972 102.016 37.4219 101.686 37.4219C101.328 37.4219 101.016 37.5099 100.749 37.6861C100.485 37.8594 100.28 38.0866 100.135 38.3679C99.9933 38.6463 99.9222 38.9489 99.9222 39.2756V40.0213C99.9222 40.4588 99.9989 40.831 100.152 41.1378C100.309 41.4446 100.526 41.679 100.804 41.8409C101.083 42 101.408 42.0795 101.78 42.0795C102.022 42.0795 102.242 42.0455 102.441 41.9773C102.64 41.9062 102.811 41.8011 102.956 41.6619C103.101 41.5227 103.212 41.3509 103.289 41.1463L104.495 41.3636C104.398 41.7187 104.225 42.0298 103.975 42.2969C103.728 42.5611 103.417 42.767 103.042 42.9148C102.669 43.0597 102.245 43.1321 101.767 43.1321ZM109.971 45.4545C109.78 45.4545 109.607 45.4389 109.451 45.4077C109.294 45.3793 109.178 45.348 109.101 45.3139L109.408 44.2699C109.641 44.3324 109.848 44.3594 110.03 44.3509C110.212 44.3423 110.373 44.2741 110.512 44.1463C110.654 44.0185 110.779 43.8097 110.887 43.5199L111.044 43.0852L108.65 36.4545H110.013L111.671 41.5341H111.739L113.397 36.4545H114.765L112.067 43.8736C111.942 44.2145 111.783 44.5028 111.59 44.7386C111.397 44.9773 111.167 45.1563 110.9 45.2756C110.632 45.3949 110.323 45.4545 109.971 45.4545ZM118.496 43.1321C117.883 43.1321 117.347 42.9915 116.89 42.7102C116.433 42.429 116.077 42.0355 115.825 41.5298C115.572 41.0241 115.445 40.4332 115.445 39.7571C115.445 39.0781 115.572 38.4844 115.825 37.9759C116.077 37.4673 116.433 37.0724 116.89 36.7912C117.347 36.5099 117.883 36.3693 118.496 36.3693C119.11 36.3693 119.646 36.5099 120.103 36.7912C120.56 37.0724 120.915 37.4673 121.168 37.9759C121.421 38.4844 121.548 39.0781 121.548 39.7571C121.548 40.4332 121.421 41.0241 121.168 41.5298C120.915 42.0355 120.56 42.429 120.103 42.7102C119.646 42.9915 119.11 43.1321 118.496 43.1321ZM118.501 42.0625C118.898 42.0625 119.228 41.9574 119.489 41.7472C119.751 41.5369 119.944 41.2571 120.069 40.9077C120.197 40.5582 120.261 40.1733 120.261 39.7528C120.261 39.3352 120.197 38.9517 120.069 38.6023C119.944 38.25 119.751 37.9673 119.489 37.7543C119.228 37.5412 118.898 37.4347 118.501 37.4347C118.1 37.4347 117.768 37.5412 117.504 37.7543C117.242 37.9673 117.048 38.25 116.92 38.6023C116.795 38.9517 116.732 39.3352 116.732 39.7528C116.732 40.1733 116.795 40.5582 116.92 40.9077C117.048 41.2571 117.242 41.5369 117.504 41.7472C117.768 41.9574 118.1 42.0625 118.501 42.0625ZM127.116 40.2855V36.4545H128.395V43H127.142V41.8665H127.074C126.923 42.2159 126.681 42.5071 126.349 42.7401C126.02 42.9702 125.609 43.0852 125.118 43.0852C124.697 43.0852 124.325 42.9929 124.001 42.8082C123.68 42.6207 123.427 42.3438 123.243 41.9773C123.061 41.6108 122.97 41.1577 122.97 40.6179V36.4545H124.244V40.4645C124.244 40.9105 124.368 41.2656 124.615 41.5298C124.862 41.794 125.183 41.9261 125.578 41.9261C125.816 41.9261 126.054 41.8665 126.289 41.7472C126.528 41.6278 126.725 41.4474 126.882 41.206C127.041 40.9645 127.119 40.6577 127.116 40.2855ZM130.107 43V36.4545H131.338V37.4943H131.406C131.526 37.142 131.736 36.8651 132.037 36.6634C132.341 36.4588 132.685 36.3565 133.068 36.3565C133.148 36.3565 133.241 36.3594 133.349 36.3651C133.46 36.3707 133.547 36.3778 133.609 36.3864V37.6051C133.558 37.5909 133.467 37.5753 133.337 37.5582C133.206 37.5384 133.075 37.5284 132.945 37.5284C132.643 37.5284 132.375 37.5923 132.139 37.7202C131.906 37.8452 131.722 38.0199 131.585 38.2443C131.449 38.4659 131.381 38.7187 131.381 39.0028V43H130.107ZM139.162 34.2727V43H137.888V34.2727H139.162ZM142.781 43.1449C142.366 43.1449 141.991 43.0682 141.656 42.9148C141.321 42.7585 141.055 42.5327 140.859 42.2372C140.666 41.9418 140.569 41.5795 140.569 41.1506C140.569 40.7812 140.64 40.4773 140.782 40.2386C140.924 40 141.116 39.8111 141.358 39.6719C141.599 39.5327 141.869 39.4276 142.167 39.3565C142.466 39.2855 142.77 39.2315 143.079 39.1946C143.471 39.1491 143.789 39.1122 144.034 39.0838C144.278 39.0526 144.456 39.0028 144.566 38.9347C144.677 38.8665 144.733 38.7557 144.733 38.6023V38.5724C144.733 38.2003 144.627 37.9119 144.417 37.7074C144.21 37.5028 143.9 37.4006 143.488 37.4006C143.059 37.4006 142.721 37.4957 142.474 37.6861C142.23 37.8736 142.061 38.0824 141.967 38.3125L140.77 38.0398C140.912 37.642 141.119 37.321 141.392 37.0767C141.667 36.8295 141.984 36.6506 142.342 36.5398C142.7 36.4261 143.076 36.3693 143.471 36.3693C143.733 36.3693 144.01 36.4006 144.302 36.4631C144.598 36.5227 144.873 36.6335 145.129 36.7955C145.387 36.9574 145.599 37.1889 145.764 37.4901C145.929 37.7884 146.011 38.1761 146.011 38.6534V43H144.767V42.1051H144.716C144.633 42.2699 144.51 42.4318 144.345 42.5909C144.18 42.75 143.968 42.8821 143.71 42.9872C143.451 43.0923 143.142 43.1449 142.781 43.1449ZM143.058 42.1222C143.41 42.1222 143.711 42.0526 143.961 41.9134C144.214 41.7741 144.406 41.5923 144.537 41.3679C144.67 41.1406 144.737 40.8977 144.737 40.6392V39.7955C144.691 39.8409 144.603 39.8835 144.473 39.9233C144.345 39.9602 144.199 39.9929 144.034 40.0213C143.869 40.0469 143.708 40.071 143.552 40.0938C143.396 40.1136 143.265 40.1307 143.16 40.1449C142.913 40.1761 142.687 40.2287 142.483 40.3026C142.281 40.3764 142.119 40.483 141.997 40.6222C141.877 40.7585 141.818 40.9403 141.818 41.1676C141.818 41.483 141.934 41.7216 142.167 41.8835C142.4 42.0426 142.697 42.1222 143.058 42.1222ZM148.982 39.1136V43H147.708V36.4545H148.931V37.5199H149.012C149.163 37.1733 149.398 36.8949 149.719 36.6847C150.043 36.4744 150.451 36.3693 150.942 36.3693C151.388 36.3693 151.779 36.4631 152.114 36.6506C152.45 36.8352 152.71 37.1108 152.894 37.4773C153.079 37.8437 153.171 38.2969 153.171 38.8366V43H151.897V38.9901C151.897 38.5156 151.773 38.1449 151.526 37.8778C151.279 37.608 150.94 37.473 150.508 37.473C150.212 37.473 149.95 37.5369 149.719 37.6648C149.492 37.7926 149.312 37.9801 149.178 38.2273C149.048 38.4716 148.982 38.767 148.982 39.1136ZM157.624 45.5909C157.104 45.5909 156.657 45.5227 156.282 45.3864C155.91 45.25 155.606 45.0696 155.37 44.8452C155.134 44.6207 154.958 44.375 154.842 44.108L155.937 43.6562C156.013 43.7812 156.116 43.9134 156.244 44.0526C156.374 44.1946 156.55 44.3153 156.772 44.4148C156.996 44.5142 157.285 44.5639 157.637 44.5639C158.12 44.5639 158.519 44.446 158.835 44.2102C159.15 43.9773 159.308 43.6051 159.308 43.0938V41.8068H159.227C159.15 41.946 159.039 42.1009 158.894 42.2713C158.752 42.4418 158.556 42.5895 158.306 42.7145C158.056 42.8395 157.731 42.902 157.33 42.902C156.813 42.902 156.347 42.7812 155.933 42.5398C155.521 42.2955 155.194 41.9361 154.952 41.4616C154.714 40.9844 154.594 40.3977 154.594 39.7017C154.594 39.0057 154.712 38.4091 154.948 37.9119C155.187 37.4148 155.513 37.0341 155.928 36.7699C156.343 36.5028 156.813 36.3693 157.339 36.3693C157.745 36.3693 158.073 36.4375 158.323 36.5739C158.573 36.7074 158.768 36.8636 158.907 37.0426C159.049 37.2216 159.158 37.3793 159.235 37.5156H159.329V36.4545H160.577V43.1449C160.577 43.7074 160.447 44.169 160.185 44.5298C159.924 44.8906 159.57 45.1577 159.124 45.331C158.681 45.5043 158.181 45.5909 157.624 45.5909ZM157.612 41.8452C157.978 41.8452 158.288 41.7599 158.54 41.5895C158.796 41.4162 158.989 41.169 159.12 40.848C159.254 40.5241 159.32 40.1364 159.32 39.6847C159.32 39.2443 159.255 38.8565 159.124 38.5213C158.994 38.1861 158.802 37.9247 158.549 37.7372C158.296 37.5469 157.984 37.4517 157.612 37.4517C157.228 37.4517 156.908 37.5511 156.653 37.75C156.397 37.946 156.204 38.2131 156.073 38.5511C155.945 38.8892 155.881 39.267 155.881 39.6847C155.881 40.1136 155.947 40.4901 156.077 40.8139C156.208 41.1378 156.401 41.3906 156.657 41.5724C156.915 41.7543 157.234 41.8452 157.612 41.8452ZM166.433 40.2855V36.4545H167.711V43H166.458V41.8665H166.39C166.239 42.2159 165.998 42.5071 165.665 42.7401C165.336 42.9702 164.925 43.0852 164.434 43.0852C164.013 43.0852 163.641 42.9929 163.317 42.8082C162.996 42.6207 162.744 42.3438 162.559 41.9773C162.377 41.6108 162.286 41.1577 162.286 40.6179V36.4545H163.56V40.4645C163.56 40.9105 163.684 41.2656 163.931 41.5298C164.178 41.794 164.499 41.9261 164.894 41.9261C165.133 41.9261 165.37 41.8665 165.606 41.7472C165.844 41.6278 166.042 41.4474 166.198 41.206C166.357 40.9645 166.435 40.6577 166.433 40.2855ZM171.328 43.1449C170.913 43.1449 170.538 43.0682 170.203 42.9148C169.868 42.7585 169.602 42.5327 169.406 42.2372C169.213 41.9418 169.116 41.5795 169.116 41.1506C169.116 40.7812 169.187 40.4773 169.329 40.2386C169.471 40 169.663 39.8111 169.904 39.6719C170.146 39.5327 170.416 39.4276 170.714 39.3565C171.012 39.2855 171.316 39.2315 171.626 39.1946C172.018 39.1491 172.336 39.1122 172.581 39.0838C172.825 39.0526 173.002 39.0028 173.113 38.9347C173.224 38.8665 173.279 38.7557 173.279 38.6023V38.5724C173.279 38.2003 173.174 37.9119 172.964 37.7074C172.757 37.5028 172.447 37.4006 172.035 37.4006C171.606 37.4006 171.268 37.4957 171.021 37.6861C170.777 37.8736 170.608 38.0824 170.514 38.3125L169.316 38.0398C169.458 37.642 169.666 37.321 169.939 37.0767C170.214 36.8295 170.531 36.6506 170.889 36.5398C171.247 36.4261 171.623 36.3693 172.018 36.3693C172.279 36.3693 172.556 36.4006 172.849 36.4631C173.145 36.5227 173.42 36.6335 173.676 36.7955C173.934 36.9574 174.146 37.1889 174.311 37.4901C174.475 37.7884 174.558 38.1761 174.558 38.6534V43H173.314V42.1051H173.262C173.18 42.2699 173.056 42.4318 172.892 42.5909C172.727 42.75 172.515 42.8821 172.257 42.9872C171.998 43.0923 171.689 43.1449 171.328 43.1449ZM171.605 42.1222C171.957 42.1222 172.258 42.0526 172.508 41.9134C172.761 41.7741 172.953 41.5923 173.083 41.3679C173.217 41.1406 173.284 40.8977 173.284 40.6392V39.7955C173.238 39.8409 173.15 39.8835 173.02 39.9233C172.892 39.9602 172.745 39.9929 172.581 40.0213C172.416 40.0469 172.255 40.071 172.099 40.0938C171.943 40.1136 171.812 40.1307 171.707 40.1449C171.46 40.1761 171.234 40.2287 171.029 40.3026C170.828 40.3764 170.666 40.483 170.544 40.6222C170.424 40.7585 170.365 40.9403 170.365 41.1676C170.365 41.483 170.481 41.7216 170.714 41.8835C170.947 42.0426 171.244 42.1222 171.605 42.1222ZM178.999 45.5909C178.479 45.5909 178.032 45.5227 177.657 45.3864C177.285 45.25 176.981 45.0696 176.745 44.8452C176.509 44.6207 176.333 44.375 176.217 44.108L177.312 43.6562C177.388 43.7812 177.491 43.9134 177.619 44.0526C177.749 44.1946 177.925 44.3153 178.147 44.4148C178.371 44.5142 178.66 44.5639 179.012 44.5639C179.495 44.5639 179.894 44.446 180.21 44.2102C180.525 43.9773 180.683 43.6051 180.683 43.0938V41.8068H180.602C180.525 41.946 180.414 42.1009 180.269 42.2713C180.127 42.4418 179.931 42.5895 179.681 42.7145C179.431 42.8395 179.106 42.902 178.705 42.902C178.188 42.902 177.722 42.7812 177.308 42.5398C176.896 42.2955 176.569 41.9361 176.327 41.4616C176.089 40.9844 175.969 40.3977 175.969 39.7017C175.969 39.0057 176.087 38.4091 176.323 37.9119C176.562 37.4148 176.888 37.0341 177.303 36.7699C177.718 36.5028 178.188 36.3693 178.714 36.3693C179.12 36.3693 179.448 36.4375 179.698 36.5739C179.948 36.7074 180.143 36.8636 180.282 37.0426C180.424 37.2216 180.533 37.3793 180.61 37.5156H180.704V36.4545H181.952V43.1449C181.952 43.7074 181.822 44.169 181.56 44.5298C181.299 44.8906 180.945 45.1577 180.499 45.331C180.056 45.5043 179.556 45.5909 178.999 45.5909ZM178.987 41.8452C179.353 41.8452 179.663 41.7599 179.915 41.5895C180.171 41.4162 180.364 41.169 180.495 40.848C180.629 40.5241 180.695 40.1364 180.695 39.6847C180.695 39.2443 180.63 38.8565 180.499 38.5213C180.369 38.1861 180.177 37.9247 179.924 37.7372C179.671 37.5469 179.359 37.4517 178.987 37.4517C178.603 37.4517 178.283 37.5511 178.028 37.75C177.772 37.946 177.579 38.2131 177.448 38.5511C177.32 38.8892 177.256 39.267 177.256 39.6847C177.256 40.1136 177.322 40.4901 177.452 40.8139C177.583 41.1378 177.776 41.3906 178.032 41.5724C178.29 41.7543 178.609 41.8452 178.987 41.8452ZM186.482 43.1321C185.837 43.1321 185.282 42.9943 184.816 42.7188C184.353 42.4403 183.995 42.0497 183.742 41.5469C183.492 41.0412 183.367 40.4489 183.367 39.7699C183.367 39.0994 183.492 38.5085 183.742 37.9972C183.995 37.4858 184.347 37.0866 184.799 36.7997C185.254 36.5128 185.785 36.3693 186.393 36.3693C186.762 36.3693 187.12 36.4304 187.467 36.5526C187.813 36.6747 188.124 36.8665 188.4 37.1278C188.675 37.3892 188.893 37.7287 189.052 38.1463C189.211 38.5611 189.29 39.0653 189.29 39.6591V40.1108H184.087V39.1562H188.042C188.042 38.821 187.974 38.5241 187.837 38.2656C187.701 38.0043 187.509 37.7983 187.262 37.6477C187.018 37.4972 186.731 37.4219 186.401 37.4219C186.043 37.4219 185.731 37.5099 185.464 37.6861C185.2 37.8594 184.995 38.0866 184.85 38.3679C184.708 38.6463 184.637 38.9489 184.637 39.2756V40.0213C184.637 40.4588 184.714 40.831 184.867 41.1378C185.023 41.4446 185.241 41.679 185.519 41.8409C185.798 42 186.123 42.0795 186.495 42.0795C186.737 42.0795 186.957 42.0455 187.156 41.9773C187.354 41.9062 187.526 41.8011 187.671 41.6619C187.816 41.5227 187.927 41.3509 188.004 41.1463L189.21 41.3636C189.113 41.7187 188.94 42.0298 188.69 42.2969C188.442 42.5611 188.131 42.767 187.756 42.9148C187.384 43.0597 186.96 43.1321 186.482 43.1321Z" fill="#757575"/>
<path d="M62.3001 60V49.0909H69.1396V50.5078H63.946V53.8317H68.7827V55.2433H63.946V58.5831H69.2035V60H62.3001ZM72.803 55.142V60H71.2103V51.8182H72.7391V53.1499H72.8403C73.0285 52.7166 73.3232 52.3686 73.7245 52.1058C74.1294 51.843 74.6389 51.7116 75.2533 51.7116C75.8108 51.7116 76.2991 51.8288 76.7181 52.0632C77.1372 52.294 77.4621 52.6385 77.6929 53.0966C77.9237 53.5547 78.0392 54.1211 78.0392 54.7958V60H76.4465V54.9876C76.4465 54.3945 76.292 53.9311 75.983 53.5973C75.6741 53.2599 75.2497 53.0913 74.71 53.0913C74.3406 53.0913 74.0122 53.1712 73.7245 53.331C73.4404 53.4908 73.2149 53.7251 73.048 54.0341C72.8847 54.3395 72.803 54.7088 72.803 55.142ZM83.6056 63.2386C82.9557 63.2386 82.3964 63.1534 81.9276 62.983C81.4624 62.8125 81.0825 62.587 80.7877 62.3065C80.493 62.0259 80.2728 61.7188 80.1272 61.3849L81.4962 60.8203C81.5921 60.9766 81.7199 61.1417 81.8797 61.3157C82.0431 61.4933 82.2632 61.6442 82.5402 61.7685C82.8208 61.8928 83.1812 61.9549 83.6215 61.9549C84.2252 61.9549 84.7242 61.8075 85.1183 61.5128C85.5125 61.2216 85.7096 60.7564 85.7096 60.1172V58.5085H85.6084C85.5125 58.6825 85.374 58.8761 85.1929 59.0891C85.0154 59.3022 84.7703 59.4869 84.4578 59.6431C84.1453 59.7994 83.7387 59.8775 83.238 59.8775C82.5917 59.8775 82.0093 59.7266 81.4909 59.4247C80.9759 59.1193 80.5676 58.6701 80.2657 58.0771C79.9674 57.4805 79.8183 56.7472 79.8183 55.8771C79.8183 55.0071 79.9656 54.2614 80.2604 53.6399C80.5587 53.0185 80.9671 52.5426 81.4855 52.2124C82.004 51.8786 82.5917 51.7116 83.2487 51.7116C83.7565 51.7116 84.1666 51.7969 84.4791 51.9673C84.7916 52.1342 85.0349 52.3295 85.2089 52.5533C85.3865 52.777 85.5232 52.9741 85.6191 53.1445H85.7362V51.8182H87.297V60.1811C87.297 60.8842 87.1336 61.4613 86.8069 61.9123C86.4802 62.3633 86.0381 62.6971 85.4806 62.9137C84.9266 63.1303 84.3016 63.2386 83.6056 63.2386ZM83.5896 58.5565C84.0477 58.5565 84.4347 58.4499 84.7508 58.2369C85.0704 58.0202 85.3119 57.7113 85.4752 57.31C85.6421 56.9052 85.7256 56.4205 85.7256 55.8558C85.7256 55.3054 85.6439 54.8207 85.4806 54.4016C85.3172 53.9826 85.0775 53.6559 84.7615 53.4215C84.4454 53.1836 84.0548 53.0646 83.5896 53.0646C83.1102 53.0646 82.7107 53.1889 82.3911 53.4375C82.0715 53.6825 81.83 54.0163 81.6666 54.4389C81.5068 54.8615 81.4269 55.3338 81.4269 55.8558C81.4269 56.392 81.5086 56.8626 81.672 57.2674C81.8353 57.6722 82.0768 57.9883 82.3964 58.2156C82.7195 58.4428 83.1173 58.5565 83.5896 58.5565ZM91.0257 49.0909V60H89.433V49.0909H91.0257ZM93.1683 60V51.8182H94.761V60H93.1683ZM93.9727 50.5558C93.6957 50.5558 93.4577 50.4634 93.2589 50.2788C93.0636 50.0906 92.9659 49.8668 92.9659 49.6076C92.9659 49.3448 93.0636 49.1211 93.2589 48.9364C93.4577 48.7482 93.6957 48.6541 93.9727 48.6541C94.2496 48.6541 94.4858 48.7482 94.6811 48.9364C94.88 49.1211 94.9794 49.3448 94.9794 49.6076C94.9794 49.8668 94.88 50.0906 94.6811 50.2788C94.4858 50.4634 94.2496 50.5558 93.9727 50.5558ZM103.035 53.8157L101.591 54.0714C101.531 53.8867 101.435 53.7109 101.304 53.544C101.176 53.3771 101.002 53.2404 100.782 53.1339C100.561 53.0273 100.286 52.9741 99.9559 52.9741C99.5049 52.9741 99.1285 53.0753 98.8266 53.2777C98.5248 53.4766 98.3738 53.734 98.3738 54.0501C98.3738 54.3235 98.4751 54.5437 98.6775 54.7106C98.8799 54.8775 99.2066 55.0142 99.6576 55.1207L100.957 55.419C101.71 55.593 102.271 55.8612 102.641 56.2234C103.01 56.5856 103.195 57.0561 103.195 57.6349C103.195 58.125 103.052 58.5618 102.768 58.9453C102.488 59.3253 102.095 59.6236 101.591 59.8402C101.09 60.0568 100.51 60.1651 99.8493 60.1651C98.9331 60.1651 98.1856 59.9698 97.6068 59.5792C97.028 59.185 96.6729 58.6257 96.5415 57.9013L98.0809 57.6669C98.1768 58.0682 98.3738 58.3718 98.6721 58.5778C98.9704 58.7802 99.3593 58.8814 99.8387 58.8814C100.361 58.8814 100.778 58.7731 101.09 58.5565C101.403 58.3363 101.559 58.0682 101.559 57.7521C101.559 57.4964 101.463 57.2816 101.272 57.1076C101.083 56.9336 100.794 56.8022 100.403 56.7134L99.0184 56.4098C98.2549 56.2358 97.6903 55.9588 97.3245 55.5788C96.9623 55.1989 96.7812 54.7177 96.7812 54.1353C96.7812 53.6523 96.9161 53.2298 97.186 52.8675C97.4559 52.5053 97.8287 52.223 98.3046 52.0206C98.7805 51.8146 99.3256 51.7116 99.9399 51.7116C100.824 51.7116 101.52 51.9034 102.028 52.2869C102.536 52.6669 102.871 53.1765 103.035 53.8157ZM106.538 55.142V60H104.946V49.0909H106.517V53.1499H106.618C106.81 52.7095 107.103 52.3597 107.497 52.1005C107.891 51.8413 108.406 51.7116 109.042 51.7116C109.603 51.7116 110.093 51.8271 110.512 52.0579C110.935 52.2887 111.261 52.6332 111.492 53.0913C111.727 53.5458 111.844 54.114 111.844 54.7958V60H110.251V54.9876C110.251 54.3874 110.097 53.9222 109.788 53.592C109.479 53.2582 109.049 53.0913 108.499 53.0913C108.122 53.0913 107.785 53.1712 107.487 53.331C107.192 53.4908 106.959 53.7251 106.789 54.0341C106.622 54.3395 106.538 54.7088 106.538 55.142Z" fill="black"/>
<path d="M288 42.625L294 48.625L292.6 50.025L288 45.425L283.4 50.025L282 48.625L288 42.625Z" fill="black"/>
<rect x="45.5" y="74.5" width="269" height="101" rx="7.5" fill="white" stroke="#CCCCCC"/>
<rect x="307" y="78" width="4" height="57" rx="2" fill="#1A7FDC"/>
<path d="M69.132 94.8182H70.6732V101.515C70.6732 102.228 70.5058 102.859 70.1711 103.409C69.8363 103.956 69.3657 104.387 68.7591 104.702C68.1526 105.013 67.4417 105.169 66.6263 105.169C65.8143 105.169 65.105 105.013 64.4985 104.702C63.892 104.387 63.4213 103.956 63.0866 103.409C62.7518 102.859 62.5844 102.228 62.5844 101.515V94.8182H64.1206V101.391C64.1206 101.851 64.2217 102.261 64.4239 102.619C64.6294 102.977 64.9194 103.258 65.2939 103.464C65.6685 103.666 66.1126 103.767 66.6263 103.767C67.1434 103.767 67.5892 103.666 67.9637 103.464C68.3415 103.258 68.6299 102.977 68.8287 102.619C69.0309 102.261 69.132 101.851 69.132 101.391V94.8182ZM74.1546 102.41L74.1446 100.595H74.4031L77.4458 97.3636H79.2256L75.7554 101.043H75.5218L74.1546 102.41ZM72.7874 105V94.8182H74.2739V105H72.7874ZM77.6098 105L74.8754 101.371L75.8996 100.332L79.4344 105H77.6098ZM80.5803 105V97.3636H82.0171V98.5767H82.0967C82.2359 98.1657 82.4811 97.8426 82.8325 97.6072C83.1871 97.3686 83.5882 97.2493 84.0356 97.2493C84.1284 97.2493 84.2378 97.2526 84.3637 97.2592C84.493 97.2659 84.5941 97.2741 84.667 97.2841V98.706C84.6073 98.6894 84.5013 98.6712 84.3488 98.6513C84.1963 98.6281 84.0439 98.6165 83.8914 98.6165C83.5401 98.6165 83.2269 98.6911 82.9518 98.8402C82.68 98.986 82.4646 99.1899 82.3055 99.4517C82.1464 99.7102 82.0669 100.005 82.0669 100.337V105H80.5803ZM88.1073 105.169C87.6234 105.169 87.1859 105.08 86.7948 104.901C86.4037 104.718 86.0938 104.455 85.8651 104.11C85.6398 103.765 85.5271 103.343 85.5271 102.842C85.5271 102.411 85.6099 102.057 85.7757 101.778C85.9414 101.5 86.1651 101.28 86.4468 101.117C86.7285 100.955 87.0434 100.832 87.3914 100.749C87.7394 100.666 88.0941 100.603 88.4553 100.56C88.9127 100.507 89.2839 100.464 89.569 100.431C89.854 100.395 90.0612 100.337 90.1904 100.257C90.3197 100.178 90.3843 100.048 90.3843 99.8693V99.8345C90.3843 99.4003 90.2617 99.0639 90.0164 98.8253C89.7745 98.5866 89.4132 98.4673 88.9326 98.4673C88.4321 98.4673 88.0377 98.5784 87.7494 98.8004C87.4643 99.0192 87.2671 99.2628 87.1578 99.5312L85.7607 99.2131C85.9265 98.7491 86.1684 98.3745 86.4866 98.0895C86.8081 97.8011 87.1776 97.5923 87.5953 97.4631C88.0129 97.3305 88.452 97.2642 88.9127 97.2642C89.2177 97.2642 89.5408 97.3007 89.8822 97.3736C90.2269 97.4432 90.5484 97.5724 90.8467 97.7614C91.1483 97.9503 91.3952 98.2204 91.5874 98.5717C91.7797 98.9197 91.8758 99.3722 91.8758 99.929V105H90.4241V103.956H90.3644C90.2683 104.148 90.1241 104.337 89.9319 104.523C89.7397 104.708 89.4927 104.862 89.1911 104.985C88.8895 105.108 88.5283 105.169 88.1073 105.169ZM88.4305 103.976C88.8415 103.976 89.1928 103.895 89.4845 103.732C89.7794 103.57 90.0032 103.358 90.1556 103.096C90.3114 102.831 90.3893 102.547 90.3893 102.246V101.261C90.3363 101.314 90.2335 101.364 90.0811 101.411C89.9319 101.454 89.7612 101.492 89.569 101.525C89.3767 101.555 89.1895 101.583 89.0072 101.609C88.8249 101.633 88.6724 101.652 88.5498 101.669C88.2615 101.705 87.998 101.767 87.7593 101.853C87.524 101.939 87.3351 102.063 87.1926 102.226C87.0534 102.385 86.9838 102.597 86.9838 102.862C86.9838 103.23 87.1196 103.509 87.3914 103.697C87.6632 103.883 88.0096 103.976 88.4305 103.976ZM93.8557 105V97.3636H95.3422V105H93.8557ZM94.6064 96.1854C94.3479 96.1854 94.1259 96.0992 93.9403 95.9268C93.758 95.7512 93.6668 95.5424 93.6668 95.3004C93.6668 95.0552 93.758 94.8464 93.9403 94.674C94.1259 94.4983 94.3479 94.4105 94.6064 94.4105C94.865 94.4105 95.0854 94.4983 95.2677 94.674C95.4533 94.8464 95.5461 95.0552 95.5461 95.3004C95.5461 95.5424 95.4533 95.7512 95.2677 95.9268C95.0854 96.0992 94.865 96.1854 94.6064 96.1854ZM98.8286 100.466V105H97.3421V97.3636H98.7689V98.6065H98.8634C99.039 98.2022 99.3141 97.8774 99.6887 97.6321C100.066 97.3868 100.542 97.2642 101.116 97.2642C101.636 97.2642 102.092 97.3736 102.483 97.5923C102.874 97.8078 103.177 98.1293 103.392 98.5568C103.608 98.9844 103.716 99.513 103.716 100.143V105H102.229V100.322C102.229 99.7682 102.085 99.3357 101.797 99.0241C101.508 98.7093 101.112 98.5518 100.608 98.5518C100.264 98.5518 99.9571 98.6264 99.6887 98.7756C99.4235 98.9247 99.213 99.1435 99.0573 99.4318C98.9048 99.7169 98.8286 100.062 98.8286 100.466ZM105.709 105V97.3636H107.196V105H105.709ZM106.46 96.1854C106.201 96.1854 105.979 96.0992 105.794 95.9268C105.611 95.7512 105.52 95.5424 105.52 95.3004C105.52 95.0552 105.611 94.8464 105.794 94.674C105.979 94.4983 106.201 94.4105 106.46 94.4105C106.718 94.4105 106.939 94.4983 107.121 94.674C107.307 94.8464 107.4 95.0552 107.4 95.3004C107.4 95.5424 107.307 95.7512 107.121 95.9268C106.939 96.0992 106.718 96.1854 106.46 96.1854ZM111.418 105.169C110.934 105.169 110.496 105.08 110.105 104.901C109.714 104.718 109.404 104.455 109.176 104.11C108.95 103.765 108.838 103.343 108.838 102.842C108.838 102.411 108.92 102.057 109.086 101.778C109.252 101.5 109.476 101.28 109.757 101.117C110.039 100.955 110.354 100.832 110.702 100.749C111.05 100.666 111.405 100.603 111.766 100.56C112.223 100.507 112.594 100.464 112.88 100.431C113.165 100.395 113.372 100.337 113.501 100.257C113.63 100.178 113.695 100.048 113.695 99.8693V99.8345C113.695 99.4003 113.572 99.0639 113.327 98.8253C113.085 98.5866 112.724 98.4673 112.243 98.4673C111.743 98.4673 111.348 98.5784 111.06 98.8004C110.775 99.0192 110.578 99.2628 110.468 99.5312L109.071 99.2131C109.237 98.7491 109.479 98.3745 109.797 98.0895C110.119 97.8011 110.488 97.5923 110.906 97.4631C111.323 97.3305 111.763 97.2642 112.223 97.2642C112.528 97.2642 112.851 97.3007 113.193 97.3736C113.537 97.4432 113.859 97.5724 114.157 97.7614C114.459 97.9503 114.706 98.2204 114.898 98.5717C115.09 98.9197 115.186 99.3722 115.186 99.929V105H113.735V103.956H113.675C113.579 104.148 113.435 104.337 113.242 104.523C113.05 104.708 112.803 104.862 112.502 104.985C112.2 105.108 111.839 105.169 111.418 105.169ZM111.741 103.976C112.152 103.976 112.503 103.895 112.795 103.732C113.09 103.57 113.314 103.358 113.466 103.096C113.622 102.831 113.7 102.547 113.7 102.246V101.261C113.647 101.314 113.544 101.364 113.392 101.411C113.242 101.454 113.072 101.492 112.88 101.525C112.687 101.555 112.5 101.583 112.318 101.609C112.135 101.633 111.983 101.652 111.86 101.669C111.572 101.705 111.309 101.767 111.07 101.853C110.835 101.939 110.646 102.063 110.503 102.226C110.364 102.385 110.294 102.597 110.294 102.862C110.294 103.23 110.43 103.509 110.702 103.697C110.974 103.883 111.32 103.976 111.741 103.976ZM118.653 100.466V105H117.166V97.3636H118.593V98.6065H118.688C118.863 98.2022 119.138 97.8774 119.513 97.6321C119.891 97.3868 120.366 97.2642 120.94 97.2642C121.46 97.2642 121.916 97.3736 122.307 97.5923C122.698 97.8078 123.001 98.1293 123.217 98.5568C123.432 98.9844 123.54 99.513 123.54 100.143V105H122.053V100.322C122.053 99.7682 121.909 99.3357 121.621 99.0241C121.332 98.7093 120.936 98.5518 120.433 98.5518C120.088 98.5518 119.781 98.6264 119.513 98.7756C119.248 98.9247 119.037 99.1435 118.881 99.4318C118.729 99.7169 118.653 100.062 118.653 100.466Z" fill="black"/>
<path d="M46 125H304V175H53C49.134 175 46 171.866 46 168V125Z" fill="#E2ECF9"/>
<path d="M62.4467 155V144.818H68.8303V146.141H63.983V149.243H68.4972V150.56H63.983V153.678H68.8899V155H62.4467ZM72.2495 150.466V155H70.763V147.364H72.1898V148.607H72.2843C72.4599 148.202 72.735 147.877 73.1096 147.632C73.4874 147.387 73.963 147.264 74.5364 147.264C75.0568 147.264 75.5125 147.374 75.9036 147.592C76.2947 147.808 76.598 148.129 76.8134 148.557C77.0288 148.984 77.1365 149.513 77.1365 150.143V155H75.65V150.322C75.65 149.768 75.5059 149.336 75.2175 149.024C74.9292 148.709 74.5331 148.552 74.0293 148.552C73.6846 148.552 73.378 148.626 73.1096 148.776C72.8444 148.925 72.6339 149.143 72.4782 149.432C72.3257 149.717 72.2495 150.062 72.2495 150.466ZM82.3319 158.023C81.7253 158.023 81.2033 157.943 80.7658 157.784C80.3316 157.625 79.977 157.415 79.7019 157.153C79.4268 156.891 79.2213 156.604 79.0854 156.293L80.3631 155.766C80.4526 155.911 80.5719 156.066 80.7211 156.228C80.8735 156.394 81.079 156.535 81.3375 156.651C81.5994 156.767 81.9358 156.825 82.3468 156.825C82.9102 156.825 83.3759 156.687 83.7438 156.412C84.1117 156.14 84.2956 155.706 84.2956 155.109V153.608H84.2012C84.1117 153.77 83.9824 153.951 83.8134 154.15C83.6477 154.349 83.419 154.521 83.1273 154.667C82.8356 154.813 82.4561 154.886 81.9888 154.886C81.3856 154.886 80.842 154.745 80.3581 154.463C79.8775 154.178 79.4964 153.759 79.2147 153.205C78.9363 152.648 78.7971 151.964 78.7971 151.152C78.7971 150.34 78.9346 149.644 79.2097 149.064C79.4881 148.484 79.8693 148.04 80.3532 147.732C80.8371 147.42 81.3856 147.264 81.9988 147.264C82.4727 147.264 82.8555 147.344 83.1472 147.503C83.4389 147.659 83.6659 147.841 83.8283 148.05C83.994 148.259 84.1216 148.442 84.2111 148.602H84.3205V147.364H85.7772V155.169C85.7772 155.825 85.6247 156.364 85.3198 156.785C85.0149 157.206 84.6022 157.517 84.0819 157.719C83.5648 157.922 82.9815 158.023 82.3319 158.023ZM82.3169 153.653C82.7445 153.653 83.1058 153.553 83.4007 153.354C83.699 153.152 83.9244 152.864 84.0769 152.489C84.2327 152.112 84.3105 151.659 84.3105 151.132C84.3105 150.618 84.2343 150.166 84.0819 149.775C83.9294 149.384 83.7057 149.079 83.4107 148.86C83.1157 148.638 82.7511 148.527 82.3169 148.527C81.8695 148.527 81.4966 148.643 81.1983 148.875C80.9 149.104 80.6747 149.415 80.5222 149.81C80.373 150.204 80.2985 150.645 80.2985 151.132C80.2985 151.633 80.3747 152.072 80.5272 152.45C80.6796 152.827 80.905 153.122 81.2033 153.335C81.5049 153.547 81.8761 153.653 82.3169 153.653ZM89.2573 144.818V155H87.7708V144.818H89.2573ZM91.2571 155V147.364H92.7436V155H91.2571ZM92.0078 146.185C91.7493 146.185 91.5272 146.099 91.3416 145.927C91.1593 145.751 91.0682 145.542 91.0682 145.3C91.0682 145.055 91.1593 144.846 91.3416 144.674C91.5272 144.498 91.7493 144.411 92.0078 144.411C92.2663 144.411 92.4867 144.498 92.669 144.674C92.8546 144.846 92.9474 145.055 92.9474 145.3C92.9474 145.542 92.8546 145.751 92.669 145.927C92.4867 146.099 92.2663 146.185 92.0078 146.185ZM100.466 149.228L99.1184 149.467C99.0621 149.294 98.9726 149.13 98.85 148.974C98.7306 148.819 98.5682 148.691 98.3627 148.592C98.1573 148.492 97.9004 148.442 97.5922 148.442C97.1712 148.442 96.8199 148.537 96.5382 148.726C96.2565 148.911 96.1156 149.152 96.1156 149.447C96.1156 149.702 96.21 149.907 96.399 150.063C96.5879 150.219 96.8928 150.347 97.3137 150.446L98.5268 150.724C99.2295 150.887 99.7531 151.137 100.098 151.475C100.443 151.813 100.615 152.252 100.615 152.793C100.615 153.25 100.482 153.658 100.217 154.016C99.9553 154.37 99.5891 154.649 99.1184 154.851C98.6511 155.053 98.1092 155.154 97.4927 155.154C96.6376 155.154 95.9399 154.972 95.3997 154.607C94.8594 154.239 94.528 153.717 94.4054 153.041L95.8422 152.822C95.9316 153.197 96.1156 153.48 96.394 153.673C96.6724 153.862 97.0353 153.956 97.4828 153.956C97.97 153.956 98.3594 153.855 98.6511 153.653C98.9428 153.447 99.0886 153.197 99.0886 152.902C99.0886 152.663 98.9991 152.463 98.8201 152.3C98.6445 152.138 98.3743 152.015 98.0098 151.933L96.7172 151.649C96.0046 151.487 95.4776 151.228 95.1362 150.874C94.7981 150.519 94.6291 150.07 94.6291 149.526C94.6291 149.076 94.755 148.681 95.0069 148.343C95.2588 148.005 95.6068 147.741 96.051 147.553C96.4951 147.36 97.0038 147.264 97.5772 147.264C98.4025 147.264 99.0521 147.443 99.5261 147.801C100 148.156 100.313 148.631 100.466 149.228ZM103.736 150.466V155H102.249V144.818H103.716V148.607H103.81C103.989 148.196 104.263 147.869 104.631 147.627C104.999 147.385 105.479 147.264 106.072 147.264C106.596 147.264 107.054 147.372 107.445 147.587C107.839 147.803 108.144 148.124 108.359 148.552C108.578 148.976 108.688 149.506 108.688 150.143V155H107.201V150.322C107.201 149.762 107.057 149.327 106.768 149.019C106.48 148.708 106.079 148.552 105.565 148.552C105.214 148.552 104.899 148.626 104.621 148.776C104.346 148.925 104.129 149.143 103.969 149.432C103.814 149.717 103.736 150.062 103.736 150.466Z" fill="#1A7FDC"/>
</g>
<defs>
<clipPath id="clip0_127_5">
<rect width="360" height="200" fill="white"/>
</clipPath>
</defs>
</svg>
