<svg width="360" height="200" viewBox="0 0 360 200" fill="none" xmlns="http://www.w3.org/2000/svg">
<g clip-path="url(#clip0_159_3)">
<rect width="360" height="200" fill="#C6DBEF"/>
<path d="M208.284 128.284C202.69 133.878 195.563 137.688 187.804 139.231C180.044 140.775 172.002 139.983 164.693 136.955C157.384 133.928 151.136 128.801 146.741 122.223C142.346 115.645 140 107.911 140 100C140 92.0888 142.346 84.3552 146.741 77.7772C151.136 71.1992 157.384 66.0723 164.693 63.0448C172.002 60.0173 180.044 59.2252 187.804 60.7686C195.563 62.312 202.69 66.1216 208.284 71.7157L203.305 76.6952C198.696 72.086 192.823 68.9471 186.43 67.6754C180.037 66.4037 173.41 67.0564 167.388 69.5509C161.365 72.0454 156.218 76.2697 152.597 81.6896C148.975 87.1095 147.042 93.4815 147.042 100C147.042 106.518 148.975 112.891 152.597 118.31C156.218 123.73 161.365 127.955 167.388 130.449C173.41 132.944 180.037 133.596 186.43 132.325C192.823 131.053 198.696 127.914 203.305 123.305L208.284 128.284Z" fill="#1A7FDC"/>
</g>
<defs>
<clipPath id="clip0_159_3">
<rect width="360" height="200" fill="white"/>
</clipPath>
</defs>
</svg>
