<svg width="360" height="200" viewBox="0 0 360 200" fill="none" xmlns="http://www.w3.org/2000/svg">
<rect width="360" height="200" fill="#C6DBEF"/>
<line x1="33" y1="68.5" x2="327" y2="68.5" stroke="white"/>
<mask id="path-3-inside-1_98_14" fill="white">
<path d="M33 19H131V69H33V19Z"/>
</mask>
<path d="M131 67H33V71H131V67Z" fill="#1A7FDC" mask="url(#path-3-inside-1_98_14)"/>
<path d="M66.6587 49V38.8182H72.7638V39.9119H67.8917V43.3523H72.3065V44.446H67.8917V49H66.6587ZM74.7164 49V41.3636H75.8897V49H74.7164ZM75.313 40.0909C75.0843 40.0909 74.8871 40.013 74.7214 39.8572C74.559 39.7015 74.4778 39.5142 74.4778 39.2955C74.4778 39.0767 74.559 38.8894 74.7214 38.7337C74.8871 38.5779 75.0843 38.5 75.313 38.5C75.5417 38.5 75.7373 38.5779 75.8997 38.7337C76.0654 38.8894 76.1483 39.0767 76.1483 39.2955C76.1483 39.5142 76.0654 39.7015 75.8997 39.8572C75.7373 40.013 75.5417 40.0909 75.313 40.0909ZM78.0387 49V41.3636H79.1722V42.517H79.2518C79.391 42.1392 79.6429 41.8326 80.0075 41.5973C80.372 41.362 80.783 41.2443 81.2404 41.2443C81.3266 41.2443 81.4343 41.246 81.5636 41.2493C81.6928 41.2526 81.7906 41.2576 81.8569 41.2642V42.4574C81.8171 42.4474 81.726 42.4325 81.5835 42.4126C81.4442 42.3894 81.2968 42.3778 81.141 42.3778C80.7698 42.3778 80.4383 42.4557 80.1467 42.6115C79.8583 42.764 79.6296 42.9761 79.4606 43.2479C79.2949 43.5163 79.212 43.8229 79.212 44.1676V49H78.0387ZM88.6568 43.0739L87.6028 43.3722C87.5365 43.1965 87.4387 43.0258 87.3095 42.8601C87.1835 42.6911 87.0112 42.5518 86.7924 42.4425C86.5737 42.3331 86.2936 42.2784 85.9522 42.2784C85.4849 42.2784 85.0955 42.3861 84.7839 42.6016C84.4757 42.8137 84.3216 43.0838 84.3216 43.4119C84.3216 43.7036 84.4276 43.9339 84.6397 44.103C84.8519 44.272 85.1833 44.4129 85.6341 44.5256L86.7676 44.804C87.4503 44.9697 87.9591 45.2232 88.2939 45.5646C88.6286 45.9027 88.796 46.3385 88.796 46.8722C88.796 47.3097 88.67 47.7008 88.4181 48.0455C88.1696 48.3902 87.8216 48.6619 87.3741 48.8608C86.9267 49.0597 86.4063 49.1591 85.813 49.1591C85.0342 49.1591 84.3895 48.9901 83.8791 48.652C83.3687 48.3139 83.0455 47.8201 82.9096 47.1705L84.0233 46.892C84.1293 47.303 84.3298 47.6113 84.6248 47.8168C84.9231 48.0223 85.3126 48.125 85.7931 48.125C86.34 48.125 86.7742 48.009 87.0957 47.777C87.4205 47.5417 87.5829 47.2599 87.5829 46.9318C87.5829 46.6667 87.4901 46.4446 87.3045 46.2656C87.1189 46.0833 86.8339 45.9474 86.4494 45.858L85.1767 45.5597C84.4773 45.3939 83.9636 45.1371 83.6355 44.7891C83.3107 44.4377 83.1483 43.9986 83.1483 43.4716C83.1483 43.0407 83.2692 42.6596 83.5112 42.3281C83.7565 41.9967 84.0895 41.7365 84.5105 41.5476C84.9347 41.3587 85.4153 41.2642 85.9522 41.2642C86.7079 41.2642 87.3012 41.4299 87.7321 41.7614C88.1663 42.0928 88.4745 42.5303 88.6568 43.0739ZM93.8832 41.3636V42.358H89.9258V41.3636H93.8832ZM91.0792 39.5341H92.2525V46.8125C92.2525 47.1439 92.3005 47.3925 92.3967 47.5582C92.4961 47.7206 92.622 47.83 92.7745 47.8864C92.9303 47.9394 93.0943 47.9659 93.2667 47.9659C93.396 47.9659 93.502 47.9593 93.5849 47.946C93.6677 47.9295 93.734 47.9162 93.7837 47.9062L94.0224 48.9602C93.9428 48.9901 93.8318 49.0199 93.6893 49.0497C93.5468 49.0829 93.3661 49.0994 93.1474 49.0994C92.8159 49.0994 92.4911 49.0282 92.1729 48.8857C91.8581 48.7431 91.5962 48.526 91.3874 48.2344C91.1819 47.9427 91.0792 47.5748 91.0792 47.1307V39.5341Z" fill="#333333"/>
<path d="M160.234 41.3636C160.174 40.8598 159.932 40.4688 159.508 40.1903C159.084 39.9119 158.563 39.7727 157.947 39.7727C157.496 39.7727 157.102 39.8456 156.764 39.9915C156.429 40.1373 156.167 40.3378 155.978 40.593C155.792 40.8482 155.7 41.1383 155.7 41.4631C155.7 41.7348 155.764 41.9685 155.894 42.1641C156.026 42.3563 156.195 42.517 156.401 42.6463C156.606 42.7723 156.822 42.8767 157.047 42.9595C157.272 43.0391 157.479 43.1037 157.668 43.1534L158.703 43.4318C158.968 43.5014 159.263 43.5975 159.587 43.7202C159.916 43.8428 160.229 44.0102 160.527 44.2223C160.829 44.4311 161.077 44.6996 161.273 45.0277C161.468 45.3558 161.566 45.7585 161.566 46.2358C161.566 46.786 161.422 47.2831 161.134 47.7273C160.849 48.1714 160.431 48.5244 159.881 48.7862C159.334 49.0481 158.669 49.179 157.887 49.179C157.158 49.179 156.527 49.0613 155.993 48.826C155.463 48.5907 155.045 48.2625 154.74 47.8416C154.439 47.4207 154.268 46.9318 154.228 46.375H155.501C155.534 46.7595 155.663 47.0777 155.889 47.3295C156.117 47.5781 156.406 47.7637 156.754 47.8864C157.105 48.0057 157.483 48.0653 157.887 48.0653C158.358 48.0653 158.78 47.9891 159.155 47.8366C159.529 47.6809 159.826 47.4654 160.045 47.1903C160.264 46.9119 160.373 46.5871 160.373 46.2159C160.373 45.8778 160.278 45.6027 160.09 45.3906C159.901 45.1785 159.652 45.0062 159.344 44.8736C159.036 44.741 158.703 44.625 158.345 44.5256L157.092 44.1676C156.296 43.9389 155.667 43.6125 155.203 43.1882C154.738 42.764 154.506 42.2088 154.506 41.5227C154.506 40.9527 154.661 40.4555 154.969 40.0312C155.28 39.6037 155.698 39.2723 156.222 39.0369C156.749 38.7983 157.337 38.679 157.987 38.679C158.643 38.679 159.226 38.7966 159.737 39.032C160.247 39.264 160.651 39.5821 160.95 39.9865C161.251 40.3909 161.41 40.8499 161.427 41.3636H160.234ZM166.636 49.1591C165.9 49.1591 165.265 48.9967 164.732 48.6719C164.201 48.3438 163.792 47.8864 163.504 47.2997C163.219 46.7098 163.076 46.0237 163.076 45.2415C163.076 44.4593 163.219 43.7699 163.504 43.1733C163.792 42.5734 164.193 42.1061 164.707 41.7713C165.224 41.4332 165.827 41.2642 166.517 41.2642C166.914 41.2642 167.307 41.3305 167.695 41.4631C168.083 41.5956 168.436 41.8111 168.754 42.1094C169.072 42.4044 169.326 42.7955 169.514 43.2827C169.703 43.7699 169.798 44.3698 169.798 45.0824V45.5795H163.911V44.5653H168.605C168.605 44.1345 168.518 43.75 168.346 43.4119C168.177 43.0739 167.935 42.8071 167.62 42.6115C167.309 42.416 166.941 42.3182 166.517 42.3182C166.049 42.3182 165.645 42.4342 165.304 42.6662C164.965 42.8949 164.705 43.1932 164.523 43.5611C164.341 43.929 164.25 44.3234 164.25 44.7443V45.4205C164.25 45.9972 164.349 46.486 164.548 46.8871C164.75 47.2848 165.03 47.5881 165.388 47.7969C165.746 48.0024 166.162 48.1051 166.636 48.1051C166.944 48.1051 167.223 48.062 167.471 47.9759C167.723 47.8864 167.94 47.7538 168.122 47.5781C168.305 47.3991 168.446 47.1771 168.545 46.9119L169.679 47.2301C169.559 47.6146 169.359 47.9527 169.077 48.2443C168.795 48.5327 168.447 48.758 168.033 48.9205C167.619 49.0795 167.153 49.1591 166.636 49.1591ZM174.685 49.1591C173.969 49.1591 173.353 48.9901 172.835 48.652C172.318 48.3139 171.921 47.8482 171.642 47.255C171.364 46.6617 171.225 45.9839 171.225 45.2216C171.225 44.446 171.367 43.7616 171.652 43.1683C171.941 42.5717 172.342 42.1061 172.855 41.7713C173.372 41.4332 173.976 41.2642 174.665 41.2642C175.202 41.2642 175.686 41.3636 176.117 41.5625C176.548 41.7614 176.901 42.0398 177.176 42.3977C177.451 42.7557 177.621 43.1733 177.688 43.6506H176.514C176.425 43.3026 176.226 42.9943 175.918 42.7259C175.613 42.4541 175.202 42.3182 174.685 42.3182C174.228 42.3182 173.826 42.4375 173.482 42.6761C173.14 42.9115 172.874 43.2446 172.681 43.6754C172.492 44.103 172.398 44.6051 172.398 45.1818C172.398 45.7718 172.491 46.2855 172.676 46.723C172.865 47.1605 173.13 47.5002 173.472 47.7422C173.817 47.9841 174.221 48.1051 174.685 48.1051C174.99 48.1051 175.267 48.0521 175.515 47.946C175.764 47.84 175.974 47.6875 176.147 47.4886C176.319 47.2898 176.442 47.0511 176.514 46.7727H177.688C177.621 47.2235 177.457 47.6295 177.196 47.9908C176.937 48.3487 176.594 48.6338 176.166 48.8459C175.742 49.0547 175.248 49.1591 174.685 49.1591ZM182.505 49.1591C181.816 49.1591 181.211 48.995 180.691 48.6669C180.174 48.3388 179.769 47.8797 179.478 47.2898C179.189 46.6998 179.045 46.0104 179.045 45.2216C179.045 44.4261 179.189 43.7318 179.478 43.1385C179.769 42.5452 180.174 42.0845 180.691 41.7564C181.211 41.4283 181.816 41.2642 182.505 41.2642C183.195 41.2642 183.798 41.4283 184.315 41.7564C184.835 42.0845 185.24 42.5452 185.528 43.1385C185.82 43.7318 185.965 44.4261 185.965 45.2216C185.965 46.0104 185.82 46.6998 185.528 47.2898C185.24 47.8797 184.835 48.3388 184.315 48.6669C183.798 48.995 183.195 49.1591 182.505 49.1591ZM182.505 48.1051C183.029 48.1051 183.46 47.9709 183.798 47.7024C184.136 47.4339 184.386 47.081 184.549 46.6435C184.711 46.206 184.792 45.732 184.792 45.2216C184.792 44.7112 184.711 44.2356 184.549 43.7947C184.386 43.3539 184.136 42.9976 183.798 42.7259C183.46 42.4541 183.029 42.3182 182.505 42.3182C181.982 42.3182 181.551 42.4541 181.213 42.7259C180.875 42.9976 180.624 43.3539 180.462 43.7947C180.3 44.2356 180.218 44.7112 180.218 45.2216C180.218 45.732 180.3 46.206 180.462 46.6435C180.624 47.081 180.875 47.4339 181.213 47.7024C181.551 47.9709 181.982 48.1051 182.505 48.1051ZM188.93 44.4062V49H187.756V41.3636H188.89V42.5568H188.989C189.168 42.169 189.44 41.8575 189.805 41.6222C190.169 41.3835 190.64 41.2642 191.217 41.2642C191.734 41.2642 192.186 41.3703 192.574 41.5824C192.962 41.7912 193.263 42.1094 193.479 42.5369C193.694 42.9612 193.802 43.4981 193.802 44.1477V49H192.629V44.2273C192.629 43.6274 192.473 43.16 192.161 42.8253C191.85 42.4872 191.422 42.3182 190.879 42.3182C190.504 42.3182 190.169 42.3994 189.874 42.5618C189.583 42.7242 189.352 42.9612 189.183 43.2727C189.014 43.5843 188.93 43.9621 188.93 44.4062ZM198.829 49.1591C198.193 49.1591 197.631 48.9983 197.144 48.6768C196.657 48.352 196.276 47.8946 196.001 47.3047C195.726 46.7114 195.588 46.0104 195.588 45.2017C195.588 44.3996 195.726 43.7036 196.001 43.1136C196.276 42.5237 196.659 42.0679 197.149 41.7464C197.64 41.425 198.206 41.2642 198.849 41.2642C199.347 41.2642 199.739 41.3471 200.028 41.5128C200.319 41.6752 200.541 41.8608 200.694 42.0696C200.85 42.2751 200.971 42.4441 201.057 42.5767H201.156V38.8182H202.329V49H201.196V47.8267H201.057C200.971 47.9659 200.848 48.1416 200.689 48.3537C200.53 48.5625 200.303 48.7498 200.008 48.9155C199.713 49.0779 199.32 49.1591 198.829 49.1591ZM198.989 48.1051C199.459 48.1051 199.857 47.9825 200.182 47.7372C200.507 47.4886 200.753 47.1456 200.922 46.7081C201.092 46.2673 201.176 45.7585 201.176 45.1818C201.176 44.6117 201.093 44.1129 200.927 43.6854C200.762 43.2545 200.516 42.9197 200.192 42.6811C199.867 42.4392 199.466 42.3182 198.989 42.3182C198.491 42.3182 198.077 42.4458 197.746 42.701C197.418 42.9529 197.171 43.2959 197.005 43.7301C196.842 44.161 196.761 44.6449 196.761 45.1818C196.761 45.7254 196.844 46.2192 197.01 46.6634C197.179 47.1042 197.427 47.4555 197.756 47.7173C198.087 47.9759 198.498 48.1051 198.989 48.1051Z" fill="#333333"/>
<path d="M260.052 39.9119V38.8182H267.688V39.9119H264.487V49H263.254V39.9119H260.052ZM270.606 44.4062V49H269.432V38.8182H270.606V42.5568H270.705C270.884 42.1624 271.152 41.8492 271.51 41.6172C271.872 41.3819 272.352 41.2642 272.952 41.2642C273.473 41.2642 273.928 41.3686 274.319 41.5774C274.71 41.7829 275.014 42.0994 275.229 42.527C275.448 42.9512 275.557 43.4915 275.557 44.1477V49H274.384V44.2273C274.384 43.6207 274.227 43.1518 273.912 42.8203C273.6 42.4856 273.168 42.3182 272.614 42.3182C272.23 42.3182 271.885 42.3994 271.58 42.5618C271.278 42.7242 271.04 42.9612 270.864 43.2727C270.692 43.5843 270.606 43.9621 270.606 44.4062ZM277.704 49V41.3636H278.877V49H277.704ZM278.3 40.0909C278.072 40.0909 277.874 40.013 277.709 39.8572C277.546 39.7015 277.465 39.5142 277.465 39.2955C277.465 39.0767 277.546 38.8894 277.709 38.7337C277.874 38.5779 278.072 38.5 278.3 38.5C278.529 38.5 278.725 38.5779 278.887 38.7337C279.053 38.8894 279.136 39.0767 279.136 39.2955C279.136 39.5142 279.053 39.7015 278.887 39.8572C278.725 40.013 278.529 40.0909 278.3 40.0909ZM281.026 49V41.3636H282.16V42.517H282.239C282.378 42.1392 282.63 41.8326 282.995 41.5973C283.359 41.362 283.77 41.2443 284.228 41.2443C284.314 41.2443 284.422 41.246 284.551 41.2493C284.68 41.2526 284.778 41.2576 284.844 41.2642V42.4574C284.804 42.4474 284.713 42.4325 284.571 42.4126C284.432 42.3894 284.284 42.3778 284.128 42.3778C283.757 42.3778 283.426 42.4557 283.134 42.6115C282.846 42.764 282.617 42.9761 282.448 43.2479C282.282 43.5163 282.199 43.8229 282.199 44.1676V49H281.026ZM288.886 49.1591C288.25 49.1591 287.688 48.9983 287.201 48.6768C286.714 48.352 286.332 47.8946 286.057 47.3047C285.782 46.7114 285.645 46.0104 285.645 45.2017C285.645 44.3996 285.782 43.7036 286.057 43.1136C286.332 42.5237 286.715 42.0679 287.206 41.7464C287.696 41.425 288.263 41.2642 288.906 41.2642C289.403 41.2642 289.796 41.3471 290.084 41.5128C290.376 41.6752 290.598 41.8608 290.75 42.0696C290.906 42.2751 291.027 42.4441 291.113 42.5767H291.213V38.8182H292.386V49H291.253V47.8267H291.113C291.027 47.9659 290.905 48.1416 290.745 48.3537C290.586 48.5625 290.359 48.7498 290.064 48.9155C289.769 49.0779 289.377 49.1591 288.886 49.1591ZM289.045 48.1051C289.516 48.1051 289.914 47.9825 290.238 47.7372C290.563 47.4886 290.81 47.1456 290.979 46.7081C291.148 46.2673 291.233 45.7585 291.233 45.1818C291.233 44.6117 291.15 44.1129 290.984 43.6854C290.818 43.2545 290.573 42.9197 290.248 42.6811C289.924 42.4392 289.522 42.3182 289.045 42.3182C288.548 42.3182 288.134 42.4458 287.802 42.701C287.474 42.9529 287.227 43.2959 287.062 43.7301C286.899 44.161 286.818 44.6449 286.818 45.1818C286.818 45.7254 286.901 46.2192 287.066 46.6634C287.236 47.1042 287.484 47.4555 287.812 47.7173C288.144 47.9759 288.555 48.1051 289.045 48.1051Z" fill="#333333"/>
<rect x="33" y="83" width="294" height="91" fill="#1A7FDC"/>
</svg>
