<svg width="360" height="200" viewBox="0 0 360 200" fill="none" xmlns="http://www.w3.org/2000/svg">
<g clip-path="url(#clip0_107_5)">
<rect width="360" height="200" fill="#C6DBEF"/>
<rect x="129" y="44" width="20" height="20" rx="3" fill="#1A7FDC"/>
<rect x="132" y="53" width="14" height="2" fill="white"/>
<path d="M161.091 59.5H159.46L163.124 49.3182H164.899L168.563 59.5H166.933L164.054 51.1676H163.975L161.091 59.5ZM161.364 55.5128H166.654V56.8054H161.364V55.5128ZM171.401 49.3182V59.5H169.914V49.3182H171.401ZM174.887 49.3182V59.5H173.401V49.3182H174.887Z" fill="black"/>
<rect x="149.5" y="76.5" width="19" height="19" rx="2.5" fill="white" stroke="#BBBBBB"/>
<path d="M180.23 91.5V81.3182H186.544V82.6406H181.766V85.7429H186.091V87.0604H181.766V91.5H180.23ZM188.314 91.5V83.8636H189.8V91.5H188.314ZM189.064 82.6854C188.806 82.6854 188.584 82.5992 188.398 82.4268C188.216 82.2512 188.125 82.0424 188.125 81.8004C188.125 81.5552 188.216 81.3464 188.398 81.174C188.584 80.9983 188.806 80.9105 189.064 80.9105C189.323 80.9105 189.543 80.9983 189.726 81.174C189.911 81.3464 190.004 81.5552 190.004 81.8004C190.004 82.0424 189.911 82.2512 189.726 82.4268C189.543 82.5992 189.323 82.6854 189.064 82.6854ZM191.8 91.5V83.8636H193.237V85.0767H193.316C193.456 84.6657 193.701 84.3426 194.052 84.1072C194.407 83.8686 194.808 83.7493 195.255 83.7493C195.348 83.7493 195.458 83.7526 195.583 83.7592C195.713 83.7659 195.814 83.7741 195.887 83.7841V85.206C195.827 85.1894 195.721 85.1712 195.569 85.1513C195.416 85.1281 195.264 85.1165 195.111 85.1165C194.76 85.1165 194.447 85.1911 194.172 85.3402C193.9 85.486 193.684 85.6899 193.525 85.9517C193.366 86.2102 193.287 86.5052 193.287 86.8366V91.5H191.8ZM202.895 85.728L201.548 85.9666C201.492 85.7943 201.402 85.6302 201.28 85.4744C201.16 85.3187 200.998 85.1911 200.792 85.0916C200.587 84.9922 200.33 84.9425 200.022 84.9425C199.601 84.9425 199.25 85.0369 198.968 85.2259C198.686 85.4115 198.545 85.6518 198.545 85.9467C198.545 86.2019 198.64 86.4074 198.829 86.5632C199.018 86.719 199.323 86.8466 199.743 86.946L200.956 87.2244C201.659 87.3868 202.183 87.6371 202.528 87.9751C202.872 88.3132 203.045 88.7524 203.045 89.2926C203.045 89.75 202.912 90.1577 202.647 90.5156C202.385 90.8703 202.019 91.1487 201.548 91.3509C201.081 91.553 200.539 91.6541 199.922 91.6541C199.067 91.6541 198.37 91.4718 197.829 91.1072C197.289 90.7393 196.958 90.2173 196.835 89.5412L198.272 89.3224C198.361 89.697 198.545 89.9804 198.824 90.1726C199.102 90.3615 199.465 90.456 199.912 90.456C200.4 90.456 200.789 90.3549 201.081 90.1527C201.372 89.9472 201.518 89.697 201.518 89.402C201.518 89.1634 201.429 88.9628 201.25 88.8004C201.074 88.638 200.804 88.5154 200.439 88.4325L199.147 88.1491C198.434 87.9867 197.907 87.7282 197.566 87.3736C197.228 87.0189 197.059 86.5698 197.059 86.0263C197.059 85.5755 197.185 85.1811 197.437 84.843C197.689 84.505 198.037 84.2415 198.481 84.0526C198.925 83.8603 199.434 83.7642 200.007 83.7642C200.832 83.7642 201.482 83.9432 201.956 84.3011C202.43 84.6558 202.743 85.1314 202.895 85.728ZM208.244 83.8636V85.0568H204.072V83.8636H208.244ZM205.191 82.0341H206.678V89.2578C206.678 89.5462 206.721 89.7633 206.807 89.9091C206.893 90.0516 207.004 90.1494 207.14 90.2024C207.279 90.2521 207.43 90.277 207.592 90.277C207.712 90.277 207.816 90.2687 207.906 90.2521C207.995 90.2356 208.065 90.2223 208.114 90.2124L208.383 91.4403C208.297 91.4735 208.174 91.5066 208.015 91.5398C207.856 91.5762 207.657 91.5961 207.418 91.5994C207.027 91.6061 206.663 91.5365 206.325 91.3906C205.987 91.2448 205.713 91.0194 205.504 90.7145C205.295 90.4096 205.191 90.0268 205.191 89.5661V82.0341Z" fill="black"/>
<rect x="149" y="106" width="20" height="20" rx="3" fill="#1A7FDC"/>
<rect x="155.729" y="119.485" width="12" height="2" transform="rotate(-45 155.729 119.485)" fill="white"/>
<rect x="154.414" y="115.271" width="5.20267" height="2" transform="rotate(45 154.414 115.271)" fill="white"/>
<path d="M185.804 113.993C185.751 113.522 185.532 113.158 185.147 112.899C184.763 112.637 184.279 112.506 183.696 112.506C183.278 112.506 182.917 112.573 182.612 112.705C182.307 112.835 182.07 113.013 181.901 113.242C181.735 113.468 181.652 113.724 181.652 114.013C181.652 114.255 181.709 114.464 181.821 114.639C181.937 114.815 182.088 114.962 182.274 115.082C182.463 115.198 182.665 115.295 182.88 115.375C183.096 115.451 183.303 115.514 183.502 115.564L184.496 115.822C184.821 115.902 185.154 116.01 185.495 116.146C185.837 116.281 186.153 116.46 186.445 116.683C186.737 116.905 186.972 117.18 187.151 117.508C187.333 117.836 187.424 118.229 187.424 118.686C187.424 119.263 187.275 119.775 186.977 120.222C186.682 120.67 186.253 121.023 185.689 121.281C185.129 121.54 184.451 121.669 183.656 121.669C182.894 121.669 182.234 121.548 181.677 121.306C181.12 121.064 180.685 120.721 180.37 120.277C180.055 119.83 179.881 119.299 179.848 118.686H181.389C181.419 119.054 181.538 119.361 181.747 119.606C181.959 119.848 182.229 120.028 182.557 120.148C182.889 120.264 183.252 120.322 183.646 120.322C184.08 120.322 184.466 120.254 184.804 120.118C185.146 119.979 185.414 119.786 185.61 119.541C185.805 119.293 185.903 119.003 185.903 118.671C185.903 118.37 185.817 118.123 185.645 117.93C185.476 117.738 185.245 117.579 184.954 117.453C184.665 117.327 184.339 117.216 183.974 117.12L182.771 116.792C181.956 116.57 181.309 116.243 180.832 115.812C180.358 115.382 180.121 114.812 180.121 114.102C180.121 113.516 180.28 113.004 180.598 112.566C180.917 112.129 181.348 111.789 181.891 111.547C182.435 111.302 183.048 111.179 183.731 111.179C184.42 111.179 185.028 111.3 185.555 111.542C186.085 111.784 186.503 112.117 186.808 112.541C187.113 112.962 187.272 113.446 187.285 113.993H185.804ZM192.432 121.654C191.68 121.654 191.032 121.493 190.488 121.172C189.948 120.847 189.53 120.391 189.235 119.805C188.944 119.215 188.798 118.524 188.798 117.732C188.798 116.949 188.944 116.26 189.235 115.663C189.53 115.067 189.941 114.601 190.468 114.266C190.999 113.932 191.618 113.764 192.328 113.764C192.759 113.764 193.176 113.835 193.581 113.978C193.985 114.121 194.348 114.344 194.669 114.649C194.991 114.954 195.244 115.35 195.43 115.837C195.616 116.321 195.708 116.91 195.708 117.602V118.129H189.638V117.016H194.252C194.252 116.625 194.172 116.278 194.013 115.977C193.854 115.672 193.63 115.431 193.342 115.256C193.057 115.08 192.722 114.992 192.338 114.992C191.92 114.992 191.555 115.095 191.244 115.3C190.936 115.503 190.697 115.768 190.528 116.096C190.362 116.421 190.279 116.774 190.279 117.155V118.025C190.279 118.535 190.369 118.969 190.548 119.327C190.73 119.685 190.984 119.959 191.309 120.148C191.633 120.333 192.013 120.426 192.447 120.426C192.729 120.426 192.986 120.386 193.218 120.307C193.45 120.224 193.65 120.101 193.819 119.939C193.988 119.777 194.117 119.576 194.207 119.337L195.614 119.591C195.501 120.005 195.299 120.368 195.007 120.68C194.719 120.988 194.356 121.228 193.919 121.401C193.484 121.57 192.989 121.654 192.432 121.654ZM200.574 121.654C199.835 121.654 199.199 121.487 198.665 121.152C198.135 120.814 197.727 120.348 197.442 119.755C197.157 119.162 197.015 118.482 197.015 117.717C197.015 116.941 197.16 116.257 197.452 115.663C197.744 115.067 198.155 114.601 198.685 114.266C199.215 113.932 199.84 113.764 200.559 113.764C201.139 113.764 201.656 113.872 202.111 114.087C202.565 114.299 202.931 114.598 203.209 114.982C203.491 115.367 203.658 115.816 203.711 116.33H202.265C202.185 115.972 202.003 115.663 201.718 115.405C201.436 115.146 201.058 115.017 200.584 115.017C200.17 115.017 199.807 115.126 199.495 115.345C199.187 115.561 198.947 115.869 198.775 116.27C198.602 116.668 198.516 117.138 198.516 117.682C198.516 118.239 198.601 118.719 198.77 119.124C198.939 119.528 199.177 119.841 199.486 120.063C199.797 120.285 200.163 120.396 200.584 120.396C200.866 120.396 201.121 120.345 201.35 120.242C201.582 120.136 201.776 119.985 201.932 119.79C202.091 119.594 202.202 119.359 202.265 119.084H203.711C203.658 119.578 203.498 120.018 203.229 120.406C202.961 120.794 202.601 121.099 202.15 121.321C201.703 121.543 201.178 121.654 200.574 121.654ZM208.518 121.654C207.802 121.654 207.177 121.49 206.643 121.162C206.11 120.834 205.695 120.375 205.4 119.785C205.105 119.195 204.958 118.505 204.958 117.717C204.958 116.924 205.105 116.232 205.4 115.638C205.695 115.045 206.11 114.585 206.643 114.256C207.177 113.928 207.802 113.764 208.518 113.764C209.234 113.764 209.858 113.928 210.392 114.256C210.926 114.585 211.34 115.045 211.635 115.638C211.93 116.232 212.077 116.924 212.077 117.717C212.077 118.505 211.93 119.195 211.635 119.785C211.34 120.375 210.926 120.834 210.392 121.162C209.858 121.49 209.234 121.654 208.518 121.654ZM208.523 120.406C208.987 120.406 209.371 120.284 209.676 120.038C209.981 119.793 210.206 119.467 210.352 119.059C210.501 118.651 210.576 118.202 210.576 117.712C210.576 117.224 210.501 116.777 210.352 116.369C210.206 115.958 209.981 115.629 209.676 115.38C209.371 115.131 208.987 115.007 208.523 115.007C208.055 115.007 207.668 115.131 207.359 115.38C207.054 115.629 206.827 115.958 206.678 116.369C206.532 116.777 206.459 117.224 206.459 117.712C206.459 118.202 206.532 118.651 206.678 119.059C206.827 119.467 207.054 119.793 207.359 120.038C207.668 120.284 208.055 120.406 208.523 120.406ZM215.223 116.966V121.5H213.737V113.864H215.163V115.107H215.258C215.434 114.702 215.709 114.377 216.083 114.132C216.461 113.887 216.937 113.764 217.51 113.764C218.03 113.764 218.486 113.874 218.877 114.092C219.268 114.308 219.572 114.629 219.787 115.057C220.002 115.484 220.11 116.013 220.11 116.643V121.5H218.624V116.822C218.624 116.268 218.479 115.836 218.191 115.524C217.903 115.209 217.507 115.052 217.003 115.052C216.658 115.052 216.352 115.126 216.083 115.276C215.818 115.425 215.608 115.643 215.452 115.932C215.299 116.217 215.223 116.562 215.223 116.966ZM224.962 121.649C224.346 121.649 223.796 121.492 223.312 121.177C222.831 120.859 222.453 120.406 222.178 119.82C221.907 119.23 221.771 118.522 221.771 117.697C221.771 116.871 221.908 116.165 222.183 115.579C222.462 114.992 222.843 114.543 223.327 114.232C223.811 113.92 224.359 113.764 224.972 113.764C225.446 113.764 225.828 113.844 226.116 114.003C226.408 114.159 226.633 114.341 226.792 114.55C226.954 114.759 227.08 114.942 227.17 115.102H227.259V111.318H228.746V121.5H227.294V120.312H227.17C227.08 120.474 226.951 120.66 226.782 120.869C226.616 121.077 226.388 121.26 226.096 121.415C225.804 121.571 225.426 121.649 224.962 121.649ZM225.291 120.381C225.718 120.381 226.079 120.269 226.374 120.043C226.673 119.815 226.898 119.498 227.051 119.094C227.206 118.689 227.284 118.219 227.284 117.682C227.284 117.152 227.208 116.687 227.055 116.29C226.903 115.892 226.679 115.582 226.384 115.36C226.089 115.138 225.725 115.027 225.291 115.027C224.843 115.027 224.47 115.143 224.172 115.375C223.874 115.607 223.648 115.924 223.496 116.325C223.347 116.726 223.272 117.178 223.272 117.682C223.272 118.192 223.348 118.651 223.501 119.059C223.653 119.467 223.879 119.79 224.177 120.028C224.479 120.264 224.85 120.381 225.291 120.381Z" fill="black"/>
<rect x="149.5" y="136.5" width="19" height="19" rx="2.5" fill="white" stroke="#BBBBBB"/>
<path d="M179.671 142.641V141.318H187.551V142.641H184.374V151.5H182.843V142.641H179.671ZM190.66 146.966V151.5H189.173V141.318H190.64V145.107H190.734C190.913 144.696 191.187 144.369 191.555 144.127C191.922 143.885 192.403 143.764 192.996 143.764C193.52 143.764 193.977 143.872 194.368 144.087C194.763 144.303 195.068 144.624 195.283 145.052C195.502 145.476 195.611 146.006 195.611 146.643V151.5H194.125V146.822C194.125 146.262 193.981 145.827 193.692 145.519C193.404 145.208 193.003 145.052 192.489 145.052C192.138 145.052 191.823 145.126 191.545 145.276C191.269 145.425 191.052 145.643 190.893 145.932C190.738 146.217 190.66 146.562 190.66 146.966ZM197.595 151.5V143.864H199.081V151.5H197.595ZM198.346 142.685C198.087 142.685 197.865 142.599 197.68 142.427C197.497 142.251 197.406 142.042 197.406 141.8C197.406 141.555 197.497 141.346 197.68 141.174C197.865 140.998 198.087 140.911 198.346 140.911C198.604 140.911 198.825 140.998 199.007 141.174C199.193 141.346 199.285 141.555 199.285 141.8C199.285 142.042 199.193 142.251 199.007 142.427C198.825 142.599 198.604 142.685 198.346 142.685ZM201.081 151.5V143.864H202.518V145.077H202.598C202.737 144.666 202.982 144.343 203.333 144.107C203.688 143.869 204.089 143.749 204.537 143.749C204.629 143.749 204.739 143.753 204.865 143.759C204.994 143.766 205.095 143.774 205.168 143.784V145.206C205.108 145.189 205.002 145.171 204.85 145.151C204.697 145.128 204.545 145.116 204.392 145.116C204.041 145.116 203.728 145.191 203.453 145.34C203.181 145.486 202.966 145.69 202.806 145.952C202.647 146.21 202.568 146.505 202.568 146.837V151.5H201.081ZM209.04 151.649C208.423 151.649 207.873 151.492 207.389 151.177C206.908 150.859 206.531 150.406 206.256 149.82C205.984 149.23 205.848 148.522 205.848 147.697C205.848 146.871 205.985 146.165 206.26 145.579C206.539 144.992 206.92 144.543 207.404 144.232C207.888 143.92 208.436 143.764 209.05 143.764C209.523 143.764 209.905 143.844 210.193 144.003C210.485 144.159 210.71 144.341 210.869 144.55C211.032 144.759 211.157 144.942 211.247 145.102H211.336V141.318H212.823V151.5H211.371V150.312H211.247C211.157 150.474 211.028 150.66 210.859 150.869C210.693 151.077 210.465 151.26 210.173 151.415C209.881 151.571 209.504 151.649 209.04 151.649ZM209.368 150.381C209.795 150.381 210.157 150.269 210.452 150.043C210.75 149.815 210.975 149.498 211.128 149.094C211.283 148.689 211.361 148.219 211.361 147.682C211.361 147.152 211.285 146.687 211.133 146.29C210.98 145.892 210.756 145.582 210.461 145.36C210.166 145.138 209.802 145.027 209.368 145.027C208.92 145.027 208.547 145.143 208.249 145.375C207.951 145.607 207.725 145.924 207.573 146.325C207.424 146.726 207.349 147.178 207.349 147.682C207.349 148.192 207.425 148.651 207.578 149.059C207.73 149.467 207.956 149.79 208.254 150.028C208.556 150.264 208.927 150.381 209.368 150.381Z" fill="black"/>
</g>
<defs>
<clipPath id="clip0_107_5">
<rect width="360" height="200" fill="white"/>
</clipPath>
</defs>
</svg>
