<svg width="360" height="200" viewBox="0 0 360 200" fill="none" xmlns="http://www.w3.org/2000/svg">
<g clip-path="url(#clip0_195_3)">
<rect width="360" height="200" fill="#C6DBEF"/>
<rect width="360" height="200" fill="black" fill-opacity="0.5"/>
<rect x="53" y="36" width="253" height="127" rx="12" fill="white"/>
<path d="M70.6094 57.2266H72.9453C72.8984 57.9922 72.6875 58.6719 72.3125 59.2656C71.9427 59.8594 71.4245 60.3229 70.7578 60.6562C70.0964 60.9896 69.2995 61.1562 68.3672 61.1562C67.638 61.1562 66.9844 61.0312 66.4062 60.7812C65.8281 60.526 65.3333 60.1615 64.9219 59.6875C64.5156 59.2135 64.2057 58.6406 63.9922 57.9688C63.7786 57.2969 63.6719 56.5443 63.6719 55.7109V54.9219C63.6719 54.0885 63.7812 53.3359 64 52.6641C64.224 51.987 64.5417 51.4115 64.9531 50.9375C65.3698 50.4635 65.8672 50.099 66.4453 49.8438C67.0234 49.5885 67.6693 49.4609 68.3828 49.4609C69.3307 49.4609 70.1302 49.6328 70.7812 49.9766C71.4375 50.3203 71.9453 50.7943 72.3047 51.3984C72.6693 52.0026 72.888 52.6901 72.9609 53.4609H70.6172C70.5911 53.0026 70.5 52.6146 70.3438 52.2969C70.1875 51.974 69.9505 51.7318 69.6328 51.5703C69.3203 51.4036 68.9036 51.3203 68.3828 51.3203C67.9922 51.3203 67.651 51.3932 67.3594 51.5391C67.0677 51.6849 66.8229 51.9062 66.625 52.2031C66.4271 52.5 66.2786 52.875 66.1797 53.3281C66.0859 53.776 66.0391 54.3021 66.0391 54.9062V55.7109C66.0391 56.2995 66.0833 56.8177 66.1719 57.2656C66.2604 57.7083 66.3958 58.0833 66.5781 58.3906C66.7656 58.6927 67.0052 58.9219 67.2969 59.0781C67.5938 59.2292 67.9505 59.3047 68.3672 59.3047C68.8568 59.3047 69.2604 59.2266 69.5781 59.0703C69.8958 58.9141 70.138 58.6823 70.3047 58.375C70.4766 58.0677 70.5781 57.6849 70.6094 57.2266ZM73.9844 56.8594V56.6953C73.9844 56.0755 74.0729 55.5052 74.25 54.9844C74.4271 54.4583 74.6849 54.0026 75.0234 53.6172C75.362 53.2318 75.7786 52.9323 76.2734 52.7188C76.7682 52.5 77.3359 52.3906 77.9766 52.3906C78.6172 52.3906 79.1875 52.5 79.6875 52.7188C80.1875 52.9323 80.6068 53.2318 80.9453 53.6172C81.2891 54.0026 81.5495 54.4583 81.7266 54.9844C81.9036 55.5052 81.9922 56.0755 81.9922 56.6953V56.8594C81.9922 57.474 81.9036 58.0443 81.7266 58.5703C81.5495 59.0911 81.2891 59.5469 80.9453 59.9375C80.6068 60.3229 80.1901 60.6224 79.6953 60.8359C79.2005 61.0495 78.6328 61.1562 77.9922 61.1562C77.3516 61.1562 76.7812 61.0495 76.2812 60.8359C75.7865 60.6224 75.3672 60.3229 75.0234 59.9375C74.6849 59.5469 74.4271 59.0911 74.25 58.5703C74.0729 58.0443 73.9844 57.474 73.9844 56.8594ZM76.2344 56.6953V56.8594C76.2344 57.2135 76.2656 57.5443 76.3281 57.8516C76.3906 58.1589 76.4896 58.4297 76.625 58.6641C76.7656 58.8932 76.9479 59.0729 77.1719 59.2031C77.3958 59.3333 77.6693 59.3984 77.9922 59.3984C78.3047 59.3984 78.5729 59.3333 78.7969 59.2031C79.0208 59.0729 79.2005 58.8932 79.3359 58.6641C79.4714 58.4297 79.5703 58.1589 79.6328 57.8516C79.7005 57.5443 79.7344 57.2135 79.7344 56.8594V56.6953C79.7344 56.3516 79.7005 56.0286 79.6328 55.7266C79.5703 55.4193 79.4688 55.1484 79.3281 54.9141C79.1927 54.6745 79.013 54.487 78.7891 54.3516C78.5651 54.2161 78.2943 54.1484 77.9766 54.1484C77.6589 54.1484 77.388 54.2161 77.1641 54.3516C76.9453 54.487 76.7656 54.6745 76.625 54.9141C76.4896 55.1484 76.3906 55.4193 76.3281 55.7266C76.2656 56.0286 76.2344 56.3516 76.2344 56.6953ZM85.5781 54.3516V61H83.3281V52.5469H85.4375L85.5781 54.3516ZM85.25 56.4766H84.6406C84.6406 55.8516 84.7214 55.2891 84.8828 54.7891C85.0443 54.2839 85.2708 53.8542 85.5625 53.5C85.8542 53.1406 86.2005 52.8672 86.6016 52.6797C87.0078 52.487 87.4609 52.3906 87.9609 52.3906C88.3568 52.3906 88.7188 52.4479 89.0469 52.5625C89.375 52.6771 89.6562 52.8594 89.8906 53.1094C90.1302 53.3594 90.3125 53.6901 90.4375 54.1016C90.5677 54.513 90.6328 55.0156 90.6328 55.6094V61H88.3672V55.6016C88.3672 55.2266 88.3151 54.9349 88.2109 54.7266C88.1068 54.5182 87.9531 54.3724 87.75 54.2891C87.5521 54.2005 87.3073 54.1562 87.0156 54.1562C86.7135 54.1562 86.4505 54.2161 86.2266 54.3359C86.0078 54.4557 85.8255 54.6224 85.6797 54.8359C85.5391 55.0443 85.4323 55.2891 85.3594 55.5703C85.2865 55.8516 85.25 56.1536 85.25 56.4766ZM95.1562 61H92.8984V52.1641C92.8984 51.4453 93.0443 50.8385 93.3359 50.3438C93.6328 49.849 94.0547 49.474 94.6016 49.2188C95.1536 48.9635 95.8203 48.8359 96.6016 48.8359C97.0443 48.8359 97.474 48.8802 97.8906 48.9688C98.3073 49.0521 98.737 49.1615 99.1797 49.2969L98.8516 51.1016C98.5651 51.013 98.2578 50.9297 97.9297 50.8516C97.6016 50.7734 97.2057 50.7344 96.7422 50.7344C96.2214 50.7344 95.8255 50.8568 95.5547 51.1016C95.2891 51.3411 95.1562 51.6953 95.1562 52.1641V61ZM96.8359 52.5469V54.1406H91.6406V52.5469H96.8359ZM100.227 52.5469V61H97.9688V52.5469H100.227ZM104.359 54.3906V61H102.109V52.5469H104.227L104.359 54.3906ZM106.906 52.4922L106.867 54.5781C106.758 54.5625 106.625 54.5495 106.469 54.5391C106.318 54.5234 106.18 54.5156 106.055 54.5156C105.737 54.5156 105.461 54.5573 105.227 54.6406C104.997 54.7188 104.805 54.8359 104.648 54.9922C104.497 55.1484 104.383 55.3385 104.305 55.5625C104.232 55.7865 104.19 56.0417 104.18 56.3281L103.727 56.1875C103.727 55.6406 103.781 55.138 103.891 54.6797C104 54.2161 104.159 53.8125 104.367 53.4688C104.581 53.125 104.841 52.8594 105.148 52.6719C105.456 52.4844 105.807 52.3906 106.203 52.3906C106.328 52.3906 106.456 52.401 106.586 52.4219C106.716 52.4375 106.823 52.4609 106.906 52.4922ZM110.219 54.2969V61H107.961V52.5469H110.078L110.219 54.2969ZM109.906 56.4766H109.281C109.281 55.888 109.352 55.3464 109.492 54.8516C109.638 54.3516 109.849 53.9193 110.125 53.5547C110.406 53.1849 110.753 52.8984 111.164 52.6953C111.576 52.4922 112.052 52.3906 112.594 52.3906C112.969 52.3906 113.312 52.4479 113.625 52.5625C113.938 52.6719 114.206 52.8464 114.43 53.0859C114.659 53.3203 114.836 53.6276 114.961 54.0078C115.086 54.3828 115.148 54.8333 115.148 55.3594V61H112.898V55.6094C112.898 55.224 112.846 54.9271 112.742 54.7188C112.638 54.5104 112.49 54.3646 112.297 54.2812C112.109 54.1979 111.883 54.1562 111.617 54.1562C111.326 54.1562 111.07 54.2161 110.852 54.3359C110.638 54.4557 110.461 54.6224 110.32 54.8359C110.18 55.0443 110.076 55.2891 110.008 55.5703C109.94 55.8516 109.906 56.1536 109.906 56.4766ZM114.938 56.2188L114.133 56.3203C114.133 55.7682 114.201 55.2552 114.336 54.7812C114.477 54.3073 114.682 53.8906 114.953 53.5312C115.229 53.1719 115.57 52.8932 115.977 52.6953C116.383 52.4922 116.852 52.3906 117.383 52.3906C117.789 52.3906 118.159 52.4505 118.492 52.5703C118.826 52.6849 119.109 52.8698 119.344 53.125C119.583 53.375 119.766 53.7031 119.891 54.1094C120.021 54.5156 120.086 55.013 120.086 55.6016V61H117.828V55.6016C117.828 55.2109 117.776 54.9141 117.672 54.7109C117.573 54.5026 117.427 54.3594 117.234 54.2812C117.047 54.1979 116.823 54.1562 116.562 54.1562C116.292 54.1562 116.055 54.2109 115.852 54.3203C115.648 54.4245 115.479 54.5703 115.344 54.7578C115.208 54.9453 115.107 55.1641 115.039 55.4141C114.971 55.6589 114.938 55.9271 114.938 56.2188ZM130.375 59.0938V55.3281C130.375 55.0573 130.331 54.8255 130.242 54.6328C130.154 54.4349 130.016 54.2812 129.828 54.1719C129.646 54.0625 129.409 54.0078 129.117 54.0078C128.867 54.0078 128.651 54.0521 128.469 54.1406C128.286 54.224 128.146 54.3464 128.047 54.5078C127.948 54.6641 127.898 54.849 127.898 55.0625H125.648C125.648 54.7031 125.732 54.362 125.898 54.0391C126.065 53.7161 126.307 53.4323 126.625 53.1875C126.943 52.9375 127.32 52.7422 127.758 52.6016C128.201 52.4609 128.695 52.3906 129.242 52.3906C129.898 52.3906 130.482 52.5 130.992 52.7188C131.503 52.9375 131.904 53.2656 132.195 53.7031C132.492 54.1406 132.641 54.6875 132.641 55.3438V58.9609C132.641 59.4245 132.669 59.8047 132.727 60.1016C132.784 60.3932 132.867 60.6484 132.977 60.8672V61H130.703C130.594 60.7708 130.51 60.4844 130.453 60.1406C130.401 59.7917 130.375 59.4427 130.375 59.0938ZM130.672 55.8516L130.688 57.125H129.43C129.133 57.125 128.875 57.1589 128.656 57.2266C128.438 57.2943 128.258 57.3906 128.117 57.5156C127.977 57.6354 127.872 57.776 127.805 57.9375C127.742 58.099 127.711 58.276 127.711 58.4688C127.711 58.6615 127.755 58.8359 127.844 58.9922C127.932 59.1432 128.06 59.263 128.227 59.3516C128.393 59.4349 128.589 59.4766 128.812 59.4766C129.151 59.4766 129.445 59.4089 129.695 59.2734C129.945 59.138 130.138 58.9714 130.273 58.7734C130.414 58.5755 130.487 58.388 130.492 58.2109L131.086 59.1641C131.003 59.3776 130.888 59.599 130.742 59.8281C130.602 60.0573 130.422 60.2734 130.203 60.4766C129.984 60.6745 129.721 60.8385 129.414 60.9688C129.107 61.0938 128.742 61.1562 128.32 61.1562C127.784 61.1562 127.297 61.0495 126.859 60.8359C126.427 60.6172 126.083 60.3177 125.828 59.9375C125.578 59.5521 125.453 59.1146 125.453 58.625C125.453 58.1823 125.536 57.7891 125.703 57.4453C125.87 57.1016 126.115 56.8125 126.438 56.5781C126.766 56.3385 127.174 56.1589 127.664 56.0391C128.154 55.9141 128.721 55.8516 129.367 55.8516H130.672ZM137.867 59.3984C138.143 59.3984 138.388 59.3464 138.602 59.2422C138.815 59.1328 138.982 58.9818 139.102 58.7891C139.227 58.5911 139.292 58.3594 139.297 58.0938H141.414C141.409 58.6875 141.25 59.2161 140.938 59.6797C140.625 60.138 140.206 60.5 139.68 60.7656C139.154 61.026 138.565 61.1562 137.914 61.1562C137.258 61.1562 136.685 61.0469 136.195 60.8281C135.711 60.6094 135.307 60.3073 134.984 59.9219C134.661 59.5312 134.419 59.0781 134.258 58.5625C134.096 58.0417 134.016 57.4844 134.016 56.8906V56.6641C134.016 56.0651 134.096 55.5078 134.258 54.9922C134.419 54.4714 134.661 54.0182 134.984 53.6328C135.307 53.2422 135.711 52.9375 136.195 52.7188C136.68 52.5 137.247 52.3906 137.898 52.3906C138.591 52.3906 139.198 52.5234 139.719 52.7891C140.245 53.0547 140.656 53.4349 140.953 53.9297C141.255 54.4193 141.409 55 141.414 55.6719H139.297C139.292 55.3906 139.232 55.1354 139.117 54.9062C139.008 54.6771 138.846 54.4948 138.633 54.3594C138.424 54.2188 138.167 54.1484 137.859 54.1484C137.531 54.1484 137.263 54.2188 137.055 54.3594C136.846 54.4948 136.685 54.6823 136.57 54.9219C136.456 55.1562 136.375 55.4245 136.328 55.7266C136.286 56.0234 136.266 56.3359 136.266 56.6641V56.8906C136.266 57.2188 136.286 57.5339 136.328 57.8359C136.37 58.138 136.448 58.4062 136.562 58.6406C136.682 58.875 136.846 59.0599 137.055 59.1953C137.263 59.3307 137.534 59.3984 137.867 59.3984ZM146.859 52.5469V54.1406H141.938V52.5469H146.859ZM143.156 50.4609H145.406V58.4531C145.406 58.6979 145.438 58.8854 145.5 59.0156C145.568 59.1458 145.667 59.237 145.797 59.2891C145.927 59.3359 146.091 59.3594 146.289 59.3594C146.43 59.3594 146.555 59.3542 146.664 59.3438C146.779 59.3281 146.875 59.3125 146.953 59.2969L146.961 60.9531C146.768 61.0156 146.56 61.0651 146.336 61.1016C146.112 61.138 145.865 61.1562 145.594 61.1562C145.099 61.1562 144.667 61.0755 144.297 60.9141C143.932 60.7474 143.651 60.4818 143.453 60.1172C143.255 59.7526 143.156 59.2734 143.156 58.6797V50.4609ZM150.516 52.5469V61H148.258V52.5469H150.516ZM148.117 50.3438C148.117 50.0156 148.232 49.7448 148.461 49.5312C148.69 49.3177 148.997 49.2109 149.383 49.2109C149.763 49.2109 150.068 49.3177 150.297 49.5312C150.531 49.7448 150.648 50.0156 150.648 50.3438C150.648 50.6719 150.531 50.9427 150.297 51.1562C150.068 51.3698 149.763 51.4766 149.383 51.4766C148.997 51.4766 148.69 51.3698 148.461 51.1562C148.232 50.9427 148.117 50.6719 148.117 50.3438ZM152.016 56.8594V56.6953C152.016 56.0755 152.104 55.5052 152.281 54.9844C152.458 54.4583 152.716 54.0026 153.055 53.6172C153.393 53.2318 153.81 52.9323 154.305 52.7188C154.799 52.5 155.367 52.3906 156.008 52.3906C156.648 52.3906 157.219 52.5 157.719 52.7188C158.219 52.9323 158.638 53.2318 158.977 53.6172C159.32 54.0026 159.581 54.4583 159.758 54.9844C159.935 55.5052 160.023 56.0755 160.023 56.6953V56.8594C160.023 57.474 159.935 58.0443 159.758 58.5703C159.581 59.0911 159.32 59.5469 158.977 59.9375C158.638 60.3229 158.221 60.6224 157.727 60.8359C157.232 61.0495 156.664 61.1562 156.023 61.1562C155.383 61.1562 154.812 61.0495 154.312 60.8359C153.818 60.6224 153.398 60.3229 153.055 59.9375C152.716 59.5469 152.458 59.0911 152.281 58.5703C152.104 58.0443 152.016 57.474 152.016 56.8594ZM154.266 56.6953V56.8594C154.266 57.2135 154.297 57.5443 154.359 57.8516C154.422 58.1589 154.521 58.4297 154.656 58.6641C154.797 58.8932 154.979 59.0729 155.203 59.2031C155.427 59.3333 155.701 59.3984 156.023 59.3984C156.336 59.3984 156.604 59.3333 156.828 59.2031C157.052 59.0729 157.232 58.8932 157.367 58.6641C157.503 58.4297 157.602 58.1589 157.664 57.8516C157.732 57.5443 157.766 57.2135 157.766 56.8594V56.6953C157.766 56.3516 157.732 56.0286 157.664 55.7266C157.602 55.4193 157.5 55.1484 157.359 54.9141C157.224 54.6745 157.044 54.487 156.82 54.3516C156.596 54.2161 156.326 54.1484 156.008 54.1484C155.69 54.1484 155.419 54.2161 155.195 54.3516C154.977 54.487 154.797 54.6745 154.656 54.9141C154.521 55.1484 154.422 55.4193 154.359 55.7266C154.297 56.0286 154.266 56.3516 154.266 56.6953ZM163.609 54.3516V61H161.359V52.5469H163.469L163.609 54.3516ZM163.281 56.4766H162.672C162.672 55.8516 162.753 55.2891 162.914 54.7891C163.076 54.2839 163.302 53.8542 163.594 53.5C163.885 53.1406 164.232 52.8672 164.633 52.6797C165.039 52.487 165.492 52.3906 165.992 52.3906C166.388 52.3906 166.75 52.4479 167.078 52.5625C167.406 52.6771 167.688 52.8594 167.922 53.1094C168.161 53.3594 168.344 53.6901 168.469 54.1016C168.599 54.513 168.664 55.0156 168.664 55.6094V61H166.398V55.6016C166.398 55.2266 166.346 54.9349 166.242 54.7266C166.138 54.5182 165.984 54.3724 165.781 54.2891C165.583 54.2005 165.339 54.1562 165.047 54.1562C164.745 54.1562 164.482 54.2161 164.258 54.3359C164.039 54.4557 163.857 54.6224 163.711 54.8359C163.57 55.0443 163.464 55.2891 163.391 55.5703C163.318 55.8516 163.281 56.1536 163.281 56.4766Z" fill="black"/>
<path d="M282.067 61.0416L280.958 59.9333L285.392 55.4999L280.958 51.0666L282.067 49.9583L286.5 54.3916L290.933 49.9583L292.042 51.0666L287.608 55.4999L292.042 59.9333L290.933 61.0416L286.5 56.6083L282.067 61.0416Z" fill="#333333"/>
<path d="M64.696 89H63.2983L66.4389 80.2727H67.9602L71.1009 89H69.7031L67.2358 81.858H67.1676L64.696 89ZM64.9304 85.5824H69.4645V86.6903H64.9304V85.5824ZM72.2589 89V82.4545H73.4904V83.4943H73.5586C73.6779 83.142 73.8881 82.8651 74.1893 82.6634C74.4933 82.4588 74.837 82.3565 75.2205 82.3565C75.3001 82.3565 75.3938 82.3594 75.5018 82.3651C75.6126 82.3707 75.6992 82.3778 75.7617 82.3864V83.6051C75.7106 83.5909 75.6197 83.5753 75.489 83.5582C75.3583 83.5384 75.2276 83.5284 75.0969 83.5284C74.7958 83.5284 74.5273 83.5923 74.2915 83.7202C74.0586 83.8452 73.8739 84.0199 73.7376 84.2443C73.6012 84.4659 73.533 84.7187 73.533 85.0028V89H72.2589ZM79.451 89.1321C78.8061 89.1321 78.2507 88.9943 77.7848 88.7188C77.3217 88.4403 76.9638 88.0497 76.7109 87.5469C76.4609 87.0412 76.3359 86.4489 76.3359 85.7699C76.3359 85.0994 76.4609 84.5085 76.7109 83.9972C76.9638 83.4858 77.3161 83.0866 77.7678 82.7997C78.2223 82.5128 78.7536 82.3693 79.3615 82.3693C79.7308 82.3693 80.0888 82.4304 80.4354 82.5526C80.782 82.6747 81.093 82.8665 81.3686 83.1278C81.6442 83.3892 81.8615 83.7287 82.0206 84.1463C82.1797 84.5611 82.2592 85.0653 82.2592 85.6591V86.1108H77.0561V85.1562H81.0107C81.0107 84.821 80.9425 84.5241 80.8061 84.2656C80.6697 84.0043 80.478 83.7983 80.2308 83.6477C79.9865 83.4972 79.6996 83.4219 79.37 83.4219C79.0121 83.4219 78.6996 83.5099 78.4325 83.6861C78.1683 83.8594 77.9638 84.0866 77.8189 84.3679C77.6768 84.6463 77.6058 84.9489 77.6058 85.2756V86.0213C77.6058 86.4588 77.6825 86.831 77.8359 87.1378C77.9922 87.4446 78.2095 87.679 78.4879 87.8409C78.7663 88 79.0916 88.0795 79.4638 88.0795C79.7053 88.0795 79.9254 88.0455 80.1243 87.9773C80.3232 87.9062 80.495 87.8011 80.6399 87.6619C80.7848 87.5227 80.8956 87.3509 80.9723 87.1463L82.1783 87.3636C82.0817 87.7187 81.9084 88.0298 81.6584 88.2969C81.4112 88.5611 81.1001 88.767 80.7251 88.9148C80.353 89.0597 79.9283 89.1321 79.451 89.1321ZM87.6541 91.4545C87.4638 91.4545 87.2905 91.4389 87.1342 91.4077C86.978 91.3793 86.8615 91.348 86.7848 91.3139L87.0916 90.2699C87.3246 90.3324 87.532 90.3594 87.7138 90.3509C87.8956 90.3423 88.0561 90.2741 88.1953 90.1463C88.3374 90.0185 88.4624 89.8097 88.5703 89.5199L88.728 89.0852L86.3331 82.4545H87.6967L89.3544 87.5341H89.4226L91.0803 82.4545H92.4482L89.7507 89.8736C89.6257 90.2145 89.4666 90.5028 89.2734 90.7386C89.0803 90.9773 88.8501 91.1563 88.5831 91.2756C88.3161 91.3949 88.0064 91.4545 87.6541 91.4545ZM96.18 89.1321C95.5664 89.1321 95.0309 88.9915 94.5735 88.7102C94.1161 88.429 93.761 88.0355 93.5082 87.5298C93.2553 87.0241 93.1289 86.4332 93.1289 85.7571C93.1289 85.0781 93.2553 84.4844 93.5082 83.9759C93.761 83.4673 94.1161 83.0724 94.5735 82.7912C95.0309 82.5099 95.5664 82.3693 96.18 82.3693C96.7937 82.3693 97.3292 82.5099 97.7866 82.7912C98.244 83.0724 98.5991 83.4673 98.8519 83.9759C99.1048 84.4844 99.2312 85.0781 99.2312 85.7571C99.2312 86.4332 99.1048 87.0241 98.8519 87.5298C98.5991 88.0355 98.244 88.429 97.7866 88.7102C97.3292 88.9915 96.7937 89.1321 96.18 89.1321ZM96.1843 88.0625C96.582 88.0625 96.9116 87.9574 97.1729 87.7472C97.4343 87.5369 97.6275 87.2571 97.7525 86.9077C97.8803 86.5582 97.9442 86.1733 97.9442 85.7528C97.9442 85.3352 97.8803 84.9517 97.7525 84.6023C97.6275 84.25 97.4343 83.9673 97.1729 83.7543C96.9116 83.5412 96.582 83.4347 96.1843 83.4347C95.7837 83.4347 95.4513 83.5412 95.1871 83.7543C94.9258 83.9673 94.7312 84.25 94.6033 84.6023C94.4783 84.9517 94.4158 85.3352 94.4158 85.7528C94.4158 86.1733 94.4783 86.5582 94.6033 86.9077C94.7312 87.2571 94.9258 87.5369 95.1871 87.7472C95.4513 87.9574 95.7837 88.0625 96.1843 88.0625ZM104.8 86.2855V82.4545H106.078V89H104.825V87.8665H104.757C104.607 88.2159 104.365 88.5071 104.033 88.7401C103.703 88.9702 103.293 89.0852 102.801 89.0852C102.381 89.0852 102.009 88.9929 101.685 88.8082C101.364 88.6207 101.111 88.3438 100.926 87.9773C100.744 87.6108 100.653 87.1577 100.653 86.6179V82.4545H101.928V86.4645C101.928 86.9105 102.051 87.2656 102.298 87.5298C102.545 87.794 102.866 87.9261 103.261 87.9261C103.5 87.9261 103.737 87.8665 103.973 87.7472C104.212 87.6278 104.409 87.4474 104.565 87.206C104.724 86.9645 104.803 86.6577 104.8 86.2855ZM115.871 84.0526L114.716 84.2571C114.668 84.1094 114.591 83.9687 114.486 83.8352C114.384 83.7017 114.244 83.5923 114.068 83.5071C113.892 83.4219 113.672 83.3793 113.408 83.3793C113.047 83.3793 112.746 83.4602 112.504 83.6222C112.263 83.7812 112.142 83.9872 112.142 84.2401C112.142 84.4588 112.223 84.6349 112.385 84.7685C112.547 84.902 112.808 85.0114 113.169 85.0966L114.209 85.3352C114.811 85.4744 115.26 85.6889 115.555 85.9787C115.851 86.2685 115.999 86.6449 115.999 87.108C115.999 87.5 115.885 87.8494 115.658 88.1562C115.433 88.4602 115.119 88.6989 114.716 88.8722C114.315 89.0455 113.851 89.1321 113.322 89.1321C112.589 89.1321 111.991 88.9759 111.528 88.6634C111.065 88.348 110.781 87.9006 110.676 87.321L111.908 87.1335C111.984 87.4545 112.142 87.6974 112.381 87.8622C112.619 88.0241 112.93 88.1051 113.314 88.1051C113.732 88.1051 114.065 88.0185 114.315 87.8452C114.565 87.669 114.69 87.4545 114.69 87.2017C114.69 86.9972 114.614 86.8253 114.46 86.6861C114.31 86.5469 114.078 86.4418 113.766 86.3707L112.658 86.1278C112.047 85.9886 111.595 85.767 111.303 85.4631C111.013 85.1591 110.868 84.7741 110.868 84.3082C110.868 83.9219 110.976 83.5838 111.192 83.294C111.408 83.0043 111.706 82.7784 112.087 82.6165C112.467 82.4517 112.903 82.3693 113.395 82.3693C114.102 82.3693 114.659 82.5227 115.065 82.8295C115.472 83.1335 115.74 83.5412 115.871 84.0526ZM121.546 86.2855V82.4545H122.824V89H121.571V87.8665H121.503C121.353 88.2159 121.111 88.5071 120.779 88.7401C120.449 88.9702 120.039 89.0852 119.547 89.0852C119.127 89.0852 118.755 88.9929 118.431 88.8082C118.11 88.6207 117.857 88.3438 117.672 87.9773C117.49 87.6108 117.4 87.1577 117.4 86.6179V82.4545H118.674V86.4645C118.674 86.9105 118.797 87.2656 119.044 87.5298C119.292 87.794 119.613 87.9261 120.007 87.9261C120.246 87.9261 120.483 87.8665 120.719 87.7472C120.958 87.6278 121.155 87.4474 121.311 87.206C121.471 86.9645 121.549 86.6577 121.546 86.2855ZM124.536 89V82.4545H125.768V83.4943H125.836C125.955 83.142 126.165 82.8651 126.467 82.6634C126.771 82.4588 127.114 82.3565 127.498 82.3565C127.577 82.3565 127.671 82.3594 127.779 82.3651C127.89 82.3707 127.977 82.3778 128.039 82.3864V83.6051C127.988 83.5909 127.897 83.5753 127.766 83.5582C127.636 83.5384 127.505 83.5284 127.374 83.5284C127.073 83.5284 126.805 83.5923 126.569 83.7202C126.336 83.8452 126.151 84.0199 126.015 84.2443C125.879 84.4659 125.81 84.7187 125.81 85.0028V89H124.536ZM131.728 89.1321C131.083 89.1321 130.528 88.9943 130.062 88.7188C129.599 88.4403 129.241 88.0497 128.988 87.5469C128.738 87.0412 128.613 86.4489 128.613 85.7699C128.613 85.0994 128.738 84.5085 128.988 83.9972C129.241 83.4858 129.593 83.0866 130.045 82.7997C130.5 82.5128 131.031 82.3693 131.639 82.3693C132.008 82.3693 132.366 82.4304 132.713 82.5526C133.059 82.6747 133.37 82.8665 133.646 83.1278C133.922 83.3892 134.139 83.7287 134.298 84.1463C134.457 84.5611 134.537 85.0653 134.537 85.6591V86.1108H129.333V85.1562H133.288C133.288 84.821 133.22 84.5241 133.083 84.2656C132.947 84.0043 132.755 83.7983 132.508 83.6477C132.264 83.4972 131.977 83.4219 131.647 83.4219C131.289 83.4219 130.977 83.5099 130.71 83.6861C130.446 83.8594 130.241 84.0866 130.096 84.3679C129.954 84.6463 129.883 84.9489 129.883 85.2756V86.0213C129.883 86.4588 129.96 86.831 130.113 87.1378C130.27 87.4446 130.487 87.679 130.765 87.8409C131.044 88 131.369 88.0795 131.741 88.0795C131.983 88.0795 132.203 88.0455 132.402 87.9773C132.6 87.9062 132.772 87.8011 132.917 87.6619C133.062 87.5227 133.173 87.3509 133.25 87.1463L134.456 87.3636C134.359 87.7187 134.186 88.0298 133.936 88.2969C133.689 88.5611 133.377 88.767 133.002 88.9148C132.63 89.0597 132.206 89.1321 131.728 89.1321ZM139.931 91.4545C139.741 91.4545 139.568 91.4389 139.412 91.4077C139.255 91.3793 139.139 91.348 139.062 91.3139L139.369 90.2699C139.602 90.3324 139.809 90.3594 139.991 90.3509C140.173 90.3423 140.333 90.2741 140.473 90.1463C140.615 90.0185 140.74 89.8097 140.848 89.5199L141.005 89.0852L138.61 82.4545H139.974L141.632 87.5341H141.7L143.358 82.4545H144.725L142.028 89.8736C141.903 90.2145 141.744 90.5028 141.551 90.7386C141.358 90.9773 141.127 91.1563 140.86 91.2756C140.593 91.3949 140.284 91.4545 139.931 91.4545ZM148.457 89.1321C147.844 89.1321 147.308 88.9915 146.851 88.7102C146.393 88.429 146.038 88.0355 145.786 87.5298C145.533 87.0241 145.406 86.4332 145.406 85.7571C145.406 85.0781 145.533 84.4844 145.786 83.9759C146.038 83.4673 146.393 83.0724 146.851 82.7912C147.308 82.5099 147.844 82.3693 148.457 82.3693C149.071 82.3693 149.607 82.5099 150.064 82.7912C150.521 83.0724 150.876 83.4673 151.129 83.9759C151.382 84.4844 151.509 85.0781 151.509 85.7571C151.509 86.4332 151.382 87.0241 151.129 87.5298C150.876 88.0355 150.521 88.429 150.064 88.7102C149.607 88.9915 149.071 89.1321 148.457 89.1321ZM148.462 88.0625C148.859 88.0625 149.189 87.9574 149.45 87.7472C149.712 87.5369 149.905 87.2571 150.03 86.9077C150.158 86.5582 150.222 86.1733 150.222 85.7528C150.222 85.3352 150.158 84.9517 150.03 84.6023C149.905 84.25 149.712 83.9673 149.45 83.7543C149.189 83.5412 148.859 83.4347 148.462 83.4347C148.061 83.4347 147.729 83.5412 147.464 83.7543C147.203 83.9673 147.009 84.25 146.881 84.6023C146.756 84.9517 146.693 85.3352 146.693 85.7528C146.693 86.1733 146.756 86.5582 146.881 86.9077C147.009 87.2571 147.203 87.5369 147.464 87.7472C147.729 87.9574 148.061 88.0625 148.462 88.0625ZM157.077 86.2855V82.4545H158.355V89H157.103V87.8665H157.034C156.884 88.2159 156.642 88.5071 156.31 88.7401C155.98 88.9702 155.57 89.0852 155.078 89.0852C154.658 89.0852 154.286 88.9929 153.962 88.8082C153.641 88.6207 153.388 88.3438 153.203 87.9773C153.022 87.6108 152.931 87.1577 152.931 86.6179V82.4545H154.205V86.4645C154.205 86.9105 154.328 87.2656 154.576 87.5298C154.823 87.794 155.144 87.9261 155.539 87.9261C155.777 87.9261 156.015 87.8665 156.25 87.7472C156.489 87.6278 156.686 87.4474 156.843 87.206C157.002 86.9645 157.08 86.6577 157.077 86.2855ZM164.662 89L162.736 82.4545H164.053L165.336 87.2614H165.4L166.686 82.4545H168.003L169.282 87.2401H169.346L170.62 82.4545H171.936L170.015 89H168.715L167.385 84.2741H167.287L165.958 89H164.662ZM175.05 89.1449C174.636 89.1449 174.261 89.0682 173.925 88.9148C173.59 88.7585 173.325 88.5327 173.129 88.2372C172.935 87.9418 172.839 87.5795 172.839 87.1506C172.839 86.7812 172.91 86.4773 173.052 86.2386C173.194 86 173.386 85.8111 173.627 85.6719C173.869 85.5327 174.138 85.4276 174.437 85.3565C174.735 85.2855 175.039 85.2315 175.349 85.1946C175.741 85.1491 176.059 85.1122 176.303 85.0838C176.548 85.0526 176.725 85.0028 176.836 84.9347C176.947 84.8665 177.002 84.7557 177.002 84.6023V84.5724C177.002 84.2003 176.897 83.9119 176.687 83.7074C176.479 83.5028 176.17 83.4006 175.758 83.4006C175.329 83.4006 174.991 83.4957 174.744 83.6861C174.499 83.8736 174.33 84.0824 174.237 84.3125L173.039 84.0398C173.181 83.642 173.388 83.321 173.661 83.0767C173.937 82.8295 174.254 82.6506 174.612 82.5398C174.969 82.4261 175.346 82.3693 175.741 82.3693C176.002 82.3693 176.279 82.4006 176.572 82.4631C176.867 82.5227 177.143 82.6335 177.398 82.7955C177.657 82.9574 177.869 83.1889 178.033 83.4901C178.198 83.7884 178.281 84.1761 178.281 84.6534V89H177.036V88.1051H176.985C176.903 88.2699 176.779 88.4318 176.614 88.5909C176.45 88.75 176.238 88.8821 175.979 88.9872C175.721 89.0923 175.411 89.1449 175.05 89.1449ZM175.327 88.1222C175.68 88.1222 175.981 88.0526 176.231 87.9134C176.484 87.7741 176.675 87.5923 176.806 87.3679C176.94 87.1406 177.006 86.8977 177.006 86.6392V85.7955C176.961 85.8409 176.873 85.8835 176.742 85.9233C176.614 85.9602 176.468 85.9929 176.303 86.0213C176.138 86.0469 175.978 86.071 175.822 86.0938C175.665 86.1136 175.535 86.1307 175.43 86.1449C175.183 86.1761 174.957 86.2287 174.752 86.3026C174.55 86.3764 174.388 86.483 174.266 86.6222C174.147 86.7585 174.087 86.9403 174.087 87.1676C174.087 87.483 174.204 87.7216 174.437 87.8835C174.67 88.0426 174.967 88.1222 175.327 88.1222ZM181.252 85.1136V89H179.978V82.4545H181.201V83.5199H181.282C181.432 83.1733 181.668 82.8949 181.989 82.6847C182.313 82.4744 182.721 82.3693 183.212 82.3693C183.658 82.3693 184.049 82.4631 184.384 82.6506C184.719 82.8352 184.979 83.1108 185.164 83.4773C185.348 83.8437 185.441 84.2969 185.441 84.8366V89H184.167V84.9901C184.167 84.5156 184.043 84.1449 183.796 83.8778C183.549 83.608 183.209 83.473 182.777 83.473C182.482 83.473 182.219 83.5369 181.989 83.6648C181.762 83.7926 181.581 83.9801 181.448 84.2273C181.317 84.4716 181.252 84.767 181.252 85.1136ZM190.205 82.4545V83.4773H186.63V82.4545H190.205ZM187.588 80.8864H188.863V87.0781C188.863 87.3253 188.9 87.5114 188.973 87.6364C189.047 87.7585 189.142 87.8423 189.259 87.8878C189.378 87.9304 189.507 87.9517 189.647 87.9517C189.749 87.9517 189.838 87.9446 189.915 87.9304C189.992 87.9162 190.051 87.9048 190.094 87.8963L190.324 88.9489C190.25 88.9773 190.145 89.0057 190.009 89.0341C189.873 89.0653 189.702 89.0824 189.498 89.0852C189.162 89.0909 188.85 89.0312 188.56 88.9062C188.27 88.7812 188.036 88.5881 187.857 88.3267C187.678 88.0653 187.588 87.7372 187.588 87.3423V80.8864ZM197.846 82.4545V83.4773H194.27V82.4545H197.846ZM195.229 80.8864H196.503V87.0781C196.503 87.3253 196.54 87.5114 196.614 87.6364C196.688 87.7585 196.783 87.8423 196.9 87.8878C197.019 87.9304 197.148 87.9517 197.287 87.9517C197.39 87.9517 197.479 87.9446 197.556 87.9304C197.632 87.9162 197.692 87.9048 197.735 87.8963L197.965 88.9489C197.891 88.9773 197.786 89.0057 197.65 89.0341C197.513 89.0653 197.343 89.0824 197.138 89.0852C196.803 89.0909 196.49 89.0312 196.201 88.9062C195.911 88.7812 195.676 88.5881 195.498 88.3267C195.319 88.0653 195.229 87.7372 195.229 87.3423V80.8864ZM201.942 89.1321C201.328 89.1321 200.793 88.9915 200.335 88.7102C199.878 88.429 199.523 88.0355 199.27 87.5298C199.017 87.0241 198.891 86.4332 198.891 85.7571C198.891 85.0781 199.017 84.4844 199.27 83.9759C199.523 83.4673 199.878 83.0724 200.335 82.7912C200.793 82.5099 201.328 82.3693 201.942 82.3693C202.555 82.3693 203.091 82.5099 203.548 82.7912C204.006 83.0724 204.361 83.4673 204.614 83.9759C204.866 84.4844 204.993 85.0781 204.993 85.7571C204.993 86.4332 204.866 87.0241 204.614 87.5298C204.361 88.0355 204.006 88.429 203.548 88.7102C203.091 88.9915 202.555 89.1321 201.942 89.1321ZM201.946 88.0625C202.344 88.0625 202.673 87.9574 202.935 87.7472C203.196 87.5369 203.389 87.2571 203.514 86.9077C203.642 86.5582 203.706 86.1733 203.706 85.7528C203.706 85.3352 203.642 84.9517 203.514 84.6023C203.389 84.25 203.196 83.9673 202.935 83.7543C202.673 83.5412 202.344 83.4347 201.946 83.4347C201.545 83.4347 201.213 83.5412 200.949 83.7543C200.688 83.9673 200.493 84.25 200.365 84.6023C200.24 84.9517 200.178 85.3352 200.178 85.7528C200.178 86.1733 200.24 86.5582 200.365 86.9077C200.493 87.2571 200.688 87.5369 200.949 87.7472C201.213 87.9574 201.545 88.0625 201.946 88.0625ZM209.591 91.4545V82.4545H210.835V83.5156H210.942C211.016 83.3793 211.122 83.2216 211.261 83.0426C211.401 82.8636 211.594 82.7074 211.841 82.5739C212.088 82.4375 212.415 82.3693 212.821 82.3693C213.349 82.3693 213.821 82.5028 214.236 82.7699C214.651 83.0369 214.976 83.4219 215.212 83.9247C215.45 84.4276 215.57 85.0327 215.57 85.7401C215.57 86.4474 215.452 87.054 215.216 87.5597C214.98 88.0625 214.656 88.4503 214.244 88.723C213.832 88.9929 213.362 89.1278 212.834 89.1278C212.436 89.1278 212.111 89.0611 211.858 88.9276C211.608 88.794 211.412 88.6378 211.27 88.4588C211.128 88.2798 211.018 88.1207 210.942 87.9815H210.865V91.4545H209.591ZM210.839 85.7273C210.839 86.1875 210.906 86.5909 211.04 86.9375C211.173 87.2841 211.366 87.5554 211.619 87.7514C211.872 87.9446 212.182 88.0412 212.548 88.0412C212.929 88.0412 213.247 87.9403 213.503 87.7386C213.759 87.5341 213.952 87.2571 214.082 86.9077C214.216 86.5582 214.283 86.1648 214.283 85.7273C214.283 85.2955 214.217 84.9077 214.087 84.5639C213.959 84.2202 213.766 83.9489 213.507 83.75C213.251 83.5511 212.932 83.4517 212.548 83.4517C212.179 83.4517 211.866 83.5469 211.611 83.7372C211.358 83.9276 211.166 84.1932 211.036 84.5341C210.905 84.875 210.839 85.2727 210.839 85.7273ZM216.997 89V82.4545H218.229V83.4943H218.297C218.416 83.142 218.626 82.8651 218.928 82.6634C219.232 82.4588 219.575 82.3565 219.959 82.3565C220.038 82.3565 220.132 82.3594 220.24 82.3651C220.351 82.3707 220.438 82.3778 220.5 82.3864V83.6051C220.449 83.5909 220.358 83.5753 220.227 83.5582C220.097 83.5384 219.966 83.5284 219.835 83.5284C219.534 83.5284 219.266 83.5923 219.03 83.7202C218.797 83.8452 218.612 84.0199 218.476 84.2443C218.339 84.4659 218.271 84.7187 218.271 85.0028V89H216.997ZM224.125 89.1321C223.512 89.1321 222.976 88.9915 222.519 88.7102C222.061 88.429 221.706 88.0355 221.453 87.5298C221.201 87.0241 221.074 86.4332 221.074 85.7571C221.074 85.0781 221.201 84.4844 221.453 83.9759C221.706 83.4673 222.061 83.0724 222.519 82.7912C222.976 82.5099 223.512 82.3693 224.125 82.3693C224.739 82.3693 225.275 82.5099 225.732 82.7912C226.189 83.0724 226.544 83.4673 226.797 83.9759C227.05 84.4844 227.176 85.0781 227.176 85.7571C227.176 86.4332 227.05 87.0241 226.797 87.5298C226.544 88.0355 226.189 88.429 225.732 88.7102C225.275 88.9915 224.739 89.1321 224.125 89.1321ZM224.13 88.0625C224.527 88.0625 224.857 87.9574 225.118 87.7472C225.38 87.5369 225.573 87.2571 225.698 86.9077C225.826 86.5582 225.89 86.1733 225.89 85.7528C225.89 85.3352 225.826 84.9517 225.698 84.6023C225.573 84.25 225.38 83.9673 225.118 83.7543C224.857 83.5412 224.527 83.4347 224.13 83.4347C223.729 83.4347 223.397 83.5412 223.132 83.7543C222.871 83.9673 222.676 84.25 222.549 84.6023C222.424 84.9517 222.361 85.3352 222.361 85.7528C222.361 86.1733 222.424 86.5582 222.549 86.9077C222.676 87.2571 222.871 87.5369 223.132 87.7472C223.397 87.9574 223.729 88.0625 224.13 88.0625ZM231.356 89.1321C230.722 89.1321 230.177 88.9886 229.719 88.7017C229.265 88.4119 228.915 88.0128 228.671 87.5043C228.427 86.9957 228.305 86.4134 228.305 85.7571C228.305 85.0923 228.43 84.5057 228.68 83.9972C228.93 83.4858 229.282 83.0866 229.737 82.7997C230.191 82.5128 230.727 82.3693 231.343 82.3693C231.84 82.3693 232.283 82.4616 232.673 82.6463C233.062 82.8281 233.376 83.0838 233.614 83.4134C233.856 83.7429 233.999 84.1278 234.045 84.5682H232.805C232.737 84.2614 232.58 83.9972 232.336 83.7756C232.094 83.554 231.771 83.4432 231.364 83.4432C231.009 83.4432 230.698 83.5369 230.431 83.7244C230.167 83.9091 229.961 84.1733 229.813 84.517C229.665 84.858 229.592 85.2614 229.592 85.7273C229.592 86.2045 229.664 86.6165 229.809 86.9631C229.954 87.3097 230.158 87.5781 230.423 87.7685C230.69 87.9588 231.004 88.054 231.364 88.054C231.606 88.054 231.825 88.0099 232.021 87.9219C232.219 87.831 232.386 87.7017 232.519 87.5341C232.656 87.3665 232.751 87.1648 232.805 86.929H234.045C233.999 87.3523 233.862 87.7301 233.631 88.0625C233.401 88.3949 233.093 88.6562 232.707 88.8466C232.323 89.0369 231.873 89.1321 231.356 89.1321ZM238.228 89.1321C237.583 89.1321 237.028 88.9943 236.562 88.7188C236.099 88.4403 235.741 88.0497 235.488 87.5469C235.238 87.0412 235.113 86.4489 235.113 85.7699C235.113 85.0994 235.238 84.5085 235.488 83.9972C235.741 83.4858 236.093 83.0866 236.545 82.7997C237 82.5128 237.531 82.3693 238.139 82.3693C238.508 82.3693 238.866 82.4304 239.213 82.5526C239.559 82.6747 239.87 82.8665 240.146 83.1278C240.422 83.3892 240.639 83.7287 240.798 84.1463C240.957 84.5611 241.037 85.0653 241.037 85.6591V86.1108H235.833V85.1562H239.788C239.788 84.821 239.72 84.5241 239.583 84.2656C239.447 84.0043 239.255 83.7983 239.008 83.6477C238.764 83.4972 238.477 83.4219 238.147 83.4219C237.789 83.4219 237.477 83.5099 237.21 83.6861C236.946 83.8594 236.741 84.0866 236.596 84.3679C236.454 84.6463 236.383 84.9489 236.383 85.2756V86.0213C236.383 86.4588 236.46 86.831 236.613 87.1378C236.77 87.4446 236.987 87.679 237.265 87.8409C237.544 88 237.869 88.0795 238.241 88.0795C238.483 88.0795 238.703 88.0455 238.902 87.9773C239.1 87.9062 239.272 87.8011 239.417 87.6619C239.562 87.5227 239.673 87.3509 239.75 87.1463L240.956 87.3636C240.859 87.7187 240.686 88.0298 240.436 88.2969C240.189 88.5611 239.877 88.767 239.502 88.9148C239.13 89.0597 238.706 89.1321 238.228 89.1321ZM245.271 89.1321C244.626 89.1321 244.071 88.9943 243.605 88.7188C243.142 88.4403 242.784 88.0497 242.531 87.5469C242.281 87.0412 242.156 86.4489 242.156 85.7699C242.156 85.0994 242.281 84.5085 242.531 83.9972C242.784 83.4858 243.136 83.0866 243.588 82.7997C244.043 82.5128 244.574 82.3693 245.182 82.3693C245.551 82.3693 245.909 82.4304 246.256 82.5526C246.602 82.6747 246.913 82.8665 247.189 83.1278C247.464 83.3892 247.682 83.7287 247.841 84.1463C248 84.5611 248.08 85.0653 248.08 85.6591V86.1108H242.876V85.1562H246.831C246.831 84.821 246.763 84.5241 246.626 84.2656C246.49 84.0043 246.298 83.7983 246.051 83.6477C245.807 83.4972 245.52 83.4219 245.19 83.4219C244.832 83.4219 244.52 83.5099 244.253 83.6861C243.989 83.8594 243.784 84.0866 243.639 84.3679C243.497 84.6463 243.426 84.9489 243.426 85.2756V86.0213C243.426 86.4588 243.503 86.831 243.656 87.1378C243.812 87.4446 244.03 87.679 244.308 87.8409C244.587 88 244.912 88.0795 245.284 88.0795C245.526 88.0795 245.746 88.0455 245.945 87.9773C246.143 87.9062 246.315 87.8011 246.46 87.6619C246.605 87.5227 246.716 87.3509 246.793 87.1463L247.999 87.3636C247.902 87.7187 247.729 88.0298 247.479 88.2969C247.232 88.5611 246.92 88.767 246.545 88.9148C246.173 89.0597 245.749 89.1321 245.271 89.1321ZM251.944 89.1278C251.415 89.1278 250.944 88.9929 250.529 88.723C250.117 88.4503 249.793 88.0625 249.557 87.5597C249.324 87.054 249.208 86.4474 249.208 85.7401C249.208 85.0327 249.326 84.4276 249.561 83.9247C249.8 83.4219 250.127 83.0369 250.542 82.7699C250.956 82.5028 251.426 82.3693 251.952 82.3693C252.358 82.3693 252.685 82.4375 252.932 82.5739C253.182 82.7074 253.375 82.8636 253.512 83.0426C253.651 83.2216 253.759 83.3793 253.836 83.5156H253.912V80.2727H255.186V89H253.942V87.9815H253.836C253.759 88.1207 253.648 88.2798 253.503 88.4588C253.361 88.6378 253.165 88.794 252.915 88.9276C252.665 89.0611 252.341 89.1278 251.944 89.1278ZM252.225 88.0412C252.591 88.0412 252.901 87.9446 253.154 87.7514C253.409 87.5554 253.603 87.2841 253.733 86.9375C253.867 86.5909 253.934 86.1875 253.934 85.7273C253.934 85.2727 253.868 84.875 253.738 84.5341C253.607 84.1932 253.415 83.9276 253.162 83.7372C252.909 83.5469 252.597 83.4517 252.225 83.4517C251.841 83.4517 251.522 83.5511 251.266 83.75C251.01 83.9489 250.817 84.2202 250.686 84.5639C250.559 84.9077 250.495 85.2955 250.495 85.7273C250.495 86.1648 250.56 86.5582 250.691 86.9077C250.821 87.2571 251.015 87.5341 251.27 87.7386C251.529 87.9403 251.847 88.0412 252.225 88.0412ZM261.6 89L259.674 82.4545H260.99L262.273 87.2614H262.337L263.624 82.4545H264.941L266.219 87.2401H266.283L267.557 82.4545H268.874L266.952 89H265.652L264.323 84.2741H264.225L262.895 89H261.6ZM270.083 89V82.4545H271.357V89H270.083ZM270.727 81.4446C270.505 81.4446 270.315 81.3707 270.156 81.223C269.999 81.0724 269.921 80.8935 269.921 80.6861C269.921 80.4759 269.999 80.2969 270.156 80.1491C270.315 79.9986 270.505 79.9233 270.727 79.9233C270.948 79.9233 271.137 79.9986 271.293 80.1491C271.452 80.2969 271.532 80.4759 271.532 80.6861C271.532 80.8935 271.452 81.0724 271.293 81.223C271.137 81.3707 270.948 81.4446 270.727 81.4446ZM276.127 82.4545V83.4773H272.551V82.4545H276.127ZM273.51 80.8864H274.784V87.0781C274.784 87.3253 274.821 87.5114 274.895 87.6364C274.969 87.7585 275.064 87.8423 275.181 87.8878C275.3 87.9304 275.429 87.9517 275.569 87.9517C275.671 87.9517 275.76 87.9446 275.837 87.9304C275.914 87.9162 275.973 87.9048 276.016 87.8963L276.246 88.9489C276.172 88.9773 276.067 89.0057 275.931 89.0341C275.794 89.0653 275.624 89.0824 275.419 89.0852C275.084 89.0909 274.772 89.0312 274.482 88.9062C274.192 88.7812 273.958 88.5881 273.779 88.3267C273.6 88.0653 273.51 87.7372 273.51 87.3423V80.8864ZM278.951 85.1136V89H277.677V80.2727H278.934V83.5199H279.015C279.168 83.1676 279.403 82.8878 279.718 82.6804C280.033 82.473 280.445 82.3693 280.954 82.3693C281.403 82.3693 281.795 82.4616 282.13 82.6463C282.468 82.831 282.729 83.1065 282.914 83.473C283.102 83.8366 283.195 84.2912 283.195 84.8366V89H281.921V84.9901C281.921 84.5099 281.798 84.1378 281.55 83.8736C281.303 83.6065 280.96 83.473 280.519 83.473C280.218 83.473 279.948 83.5369 279.71 83.6648C279.474 83.7926 279.288 83.9801 279.151 84.2273C279.018 84.4716 278.951 84.767 278.951 85.1136ZM66.9119 97.4545V98.4773H63.3366V97.4545H66.9119ZM64.2955 95.8864H65.5696V102.078C65.5696 102.325 65.6065 102.511 65.6804 102.636C65.7543 102.759 65.8494 102.842 65.9659 102.888C66.0852 102.93 66.2145 102.952 66.3537 102.952C66.456 102.952 66.5455 102.945 66.6222 102.93C66.6989 102.916 66.7585 102.905 66.8011 102.896L67.0312 103.949C66.9574 103.977 66.8523 104.006 66.7159 104.034C66.5795 104.065 66.4091 104.082 66.2045 104.085C65.8693 104.091 65.5568 104.031 65.267 103.906C64.9773 103.781 64.7429 103.588 64.5639 103.327C64.3849 103.065 64.2955 102.737 64.2955 102.342V95.8864ZM69.7362 100.114V104H68.462V95.2727H69.7191V98.5199H69.8001C69.9535 98.1676 70.1879 97.8878 70.5032 97.6804C70.8185 97.473 71.2305 97.3693 71.739 97.3693C72.1879 97.3693 72.5799 97.4616 72.9151 97.6463C73.2532 97.831 73.5146 98.1065 73.6992 98.473C73.8867 98.8366 73.9805 99.2912 73.9805 99.8366V104H72.7063V99.9901C72.7063 99.5099 72.5827 99.1378 72.3356 98.8736C72.0884 98.6065 71.7447 98.473 71.3043 98.473C71.0032 98.473 70.7333 98.5369 70.4947 98.6648C70.2589 98.7926 70.0728 98.9801 69.9364 99.2273C69.8029 99.4716 69.7362 99.767 69.7362 100.114ZM75.6808 104V97.4545H76.9549V104H75.6808ZM76.3242 96.4446C76.1026 96.4446 75.9123 96.3707 75.7532 96.223C75.5969 96.0724 75.5188 95.8935 75.5188 95.6861C75.5188 95.4759 75.5969 95.2969 75.7532 95.1491C75.9123 94.9986 76.1026 94.9233 76.3242 94.9233C76.5458 94.9233 76.7347 94.9986 76.891 95.1491C77.0501 95.2969 77.1296 95.4759 77.1296 95.6861C77.1296 95.8935 77.0501 96.0724 76.891 96.223C76.7347 96.3707 76.5458 96.4446 76.3242 96.4446ZM83.5739 99.0526L82.419 99.2571C82.3707 99.1094 82.294 98.9687 82.1889 98.8352C82.0866 98.7017 81.9474 98.5923 81.7713 98.5071C81.5952 98.4219 81.375 98.3793 81.1108 98.3793C80.75 98.3793 80.4489 98.4602 80.2074 98.6222C79.9659 98.7812 79.8452 98.9872 79.8452 99.2401C79.8452 99.4588 79.9261 99.6349 80.0881 99.7685C80.25 99.902 80.5114 100.011 80.8722 100.097L81.9119 100.335C82.5142 100.474 82.9631 100.689 83.2585 100.979C83.554 101.268 83.7017 101.645 83.7017 102.108C83.7017 102.5 83.5881 102.849 83.3608 103.156C83.1364 103.46 82.8224 103.699 82.419 103.872C82.0185 104.045 81.554 104.132 81.0256 104.132C80.2926 104.132 79.6946 103.976 79.2315 103.663C78.7685 103.348 78.4844 102.901 78.3793 102.321L79.6108 102.134C79.6875 102.455 79.8452 102.697 80.0838 102.862C80.3224 103.024 80.6335 103.105 81.017 103.105C81.4347 103.105 81.7685 103.018 82.0185 102.845C82.2685 102.669 82.3935 102.455 82.3935 102.202C82.3935 101.997 82.3168 101.825 82.1634 101.686C82.0128 101.547 81.7812 101.442 81.4688 101.371L80.3608 101.128C79.75 100.989 79.2983 100.767 79.0057 100.463C78.7159 100.159 78.571 99.7741 78.571 99.3082C78.571 98.9219 78.679 98.5838 78.8949 98.294C79.1108 98.0043 79.4091 97.7784 79.7898 97.6165C80.1705 97.4517 80.6065 97.3693 81.098 97.3693C81.8054 97.3693 82.3622 97.5227 82.7685 97.8295C83.1747 98.1335 83.4432 98.5412 83.5739 99.0526ZM90.1832 104.145C89.7685 104.145 89.3935 104.068 89.0582 103.915C88.723 103.759 88.4574 103.533 88.2614 103.237C88.0682 102.942 87.9716 102.58 87.9716 102.151C87.9716 101.781 88.0426 101.477 88.1847 101.239C88.3267 101 88.5185 100.811 88.7599 100.672C89.0014 100.533 89.2713 100.428 89.5696 100.357C89.8679 100.286 90.1719 100.232 90.4815 100.195C90.8736 100.149 91.1918 100.112 91.4361 100.084C91.6804 100.053 91.858 100.003 91.9688 99.9347C92.0795 99.8665 92.1349 99.7557 92.1349 99.6023V99.5724C92.1349 99.2003 92.0298 98.9119 91.8196 98.7074C91.6122 98.5028 91.3026 98.4006 90.8906 98.4006C90.4616 98.4006 90.1236 98.4957 89.8764 98.6861C89.6321 98.8736 89.4631 99.0824 89.3693 99.3125L88.1719 99.0398C88.3139 98.642 88.5213 98.321 88.794 98.0767C89.0696 97.8295 89.3864 97.6506 89.7443 97.5398C90.1023 97.4261 90.4787 97.3693 90.8736 97.3693C91.1349 97.3693 91.4119 97.4006 91.7045 97.4631C92 97.5227 92.2756 97.6335 92.5312 97.7955C92.7898 97.9574 93.0014 98.1889 93.1662 98.4901C93.331 98.7884 93.4134 99.1761 93.4134 99.6534V104H92.169V103.105H92.1179C92.0355 103.27 91.9119 103.432 91.7472 103.591C91.5824 103.75 91.3707 103.882 91.1122 103.987C90.8537 104.092 90.544 104.145 90.1832 104.145ZM90.4602 103.122C90.8125 103.122 91.1136 103.053 91.3636 102.913C91.6165 102.774 91.8082 102.592 91.9389 102.368C92.0724 102.141 92.1392 101.898 92.1392 101.639V100.795C92.0938 100.841 92.0057 100.884 91.875 100.923C91.7472 100.96 91.6009 100.993 91.4361 101.021C91.2713 101.047 91.1108 101.071 90.9545 101.094C90.7983 101.114 90.6676 101.131 90.5625 101.145C90.3153 101.176 90.0895 101.229 89.8849 101.303C89.6832 101.376 89.5213 101.483 89.3991 101.622C89.2798 101.759 89.2202 101.94 89.2202 102.168C89.2202 102.483 89.3366 102.722 89.5696 102.884C89.8026 103.043 90.0994 103.122 90.4602 103.122ZM97.8675 104.132C97.234 104.132 96.6886 103.989 96.2312 103.702C95.7766 103.412 95.4272 103.013 95.1829 102.504C94.9386 101.996 94.8164 101.413 94.8164 100.757C94.8164 100.092 94.9414 99.5057 95.1914 98.9972C95.4414 98.4858 95.7937 98.0866 96.2482 97.7997C96.7028 97.5128 97.2383 97.3693 97.8548 97.3693C98.3519 97.3693 98.7951 97.4616 99.1843 97.6463C99.5735 97.8281 99.8874 98.0838 100.126 98.4134C100.368 98.7429 100.511 99.1278 100.556 99.5682H99.3164C99.2482 99.2614 99.092 98.9972 98.8477 98.7756C98.6062 98.554 98.2823 98.4432 97.8761 98.4432C97.521 98.4432 97.2099 98.5369 96.9428 98.7244C96.6786 98.9091 96.4727 99.1733 96.3249 99.517C96.1772 99.858 96.1033 100.261 96.1033 100.727C96.1033 101.205 96.1758 101.616 96.3207 101.963C96.4656 102.31 96.6701 102.578 96.9343 102.768C97.2013 102.959 97.5153 103.054 97.8761 103.054C98.1175 103.054 98.3363 103.01 98.5323 102.922C98.7312 102.831 98.8974 102.702 99.0309 102.534C99.1673 102.366 99.2624 102.165 99.3164 101.929H100.556C100.511 102.352 100.373 102.73 100.143 103.062C99.913 103.395 99.6048 103.656 99.2184 103.847C98.8349 104.037 98.3846 104.132 97.8675 104.132ZM104.974 97.4545V98.4773H101.399V97.4545H104.974ZM102.358 95.8864H103.632V102.078C103.632 102.325 103.669 102.511 103.743 102.636C103.817 102.759 103.912 102.842 104.028 102.888C104.148 102.93 104.277 102.952 104.416 102.952C104.518 102.952 104.608 102.945 104.685 102.93C104.761 102.916 104.821 102.905 104.864 102.896L105.094 103.949C105.02 103.977 104.915 104.006 104.778 104.034C104.642 104.065 104.472 104.082 104.267 104.085C103.932 104.091 103.619 104.031 103.33 103.906C103.04 103.781 102.805 103.588 102.626 103.327C102.447 103.065 102.358 102.737 102.358 102.342V95.8864ZM106.384 104V97.4545H107.658V104H106.384ZM107.027 96.4446C106.806 96.4446 106.615 96.3707 106.456 96.223C106.3 96.0724 106.222 95.8935 106.222 95.6861C106.222 95.4759 106.3 95.2969 106.456 95.1491C106.615 94.9986 106.806 94.9233 107.027 94.9233C107.249 94.9233 107.438 94.9986 107.594 95.1491C107.753 95.2969 107.833 95.4759 107.833 95.6861C107.833 95.8935 107.753 96.0724 107.594 96.223C107.438 96.3707 107.249 96.4446 107.027 96.4446ZM112.129 104.132C111.516 104.132 110.98 103.991 110.523 103.71C110.065 103.429 109.71 103.036 109.457 102.53C109.205 102.024 109.078 101.433 109.078 100.757C109.078 100.078 109.205 99.4844 109.457 98.9759C109.71 98.4673 110.065 98.0724 110.523 97.7912C110.98 97.5099 111.516 97.3693 112.129 97.3693C112.743 97.3693 113.278 97.5099 113.736 97.7912C114.193 98.0724 114.548 98.4673 114.801 98.9759C115.054 99.4844 115.18 100.078 115.18 100.757C115.18 101.433 115.054 102.024 114.801 102.53C114.548 103.036 114.193 103.429 113.736 103.71C113.278 103.991 112.743 104.132 112.129 104.132ZM112.134 103.062C112.531 103.062 112.861 102.957 113.122 102.747C113.384 102.537 113.577 102.257 113.702 101.908C113.83 101.558 113.893 101.173 113.893 100.753C113.893 100.335 113.83 99.9517 113.702 99.6023C113.577 99.25 113.384 98.9673 113.122 98.7543C112.861 98.5412 112.531 98.4347 112.134 98.4347C111.733 98.4347 111.401 98.5412 111.136 98.7543C110.875 98.9673 110.68 99.25 110.553 99.6023C110.428 99.9517 110.365 100.335 110.365 100.753C110.365 101.173 110.428 101.558 110.553 101.908C110.68 102.257 110.875 102.537 111.136 102.747C111.401 102.957 111.733 103.062 112.134 103.062ZM117.877 100.114V104H116.603V97.4545H117.826V98.5199H117.907C118.057 98.1733 118.293 97.8949 118.614 97.6847C118.938 97.4744 119.346 97.3693 119.837 97.3693C120.283 97.3693 120.674 97.4631 121.009 97.6506C121.344 97.8352 121.604 98.1108 121.789 98.4773C121.973 98.8437 122.066 99.2969 122.066 99.8366V104H120.792V99.9901C120.792 99.5156 120.668 99.1449 120.421 98.8778C120.174 98.608 119.834 98.473 119.402 98.473C119.107 98.473 118.844 98.5369 118.614 98.6648C118.387 98.7926 118.206 98.9801 118.073 99.2273C117.942 99.4716 117.877 99.767 117.877 100.114ZM125.168 101.49V101.409C125.174 100.881 125.226 100.46 125.326 100.148C125.428 99.8352 125.573 99.5824 125.76 99.3892C125.948 99.196 126.174 99.0199 126.438 98.8608C126.608 98.7528 126.762 98.6321 126.898 98.4986C127.034 98.3651 127.142 98.2116 127.222 98.0384C127.301 97.8651 127.341 97.6733 127.341 97.4631C127.341 97.2102 127.282 96.9915 127.162 96.8068C127.043 96.6222 126.884 96.4801 126.685 96.3807C126.489 96.2784 126.27 96.2273 126.029 96.2273C125.81 96.2273 125.601 96.2727 125.402 96.3636C125.203 96.4545 125.039 96.5966 124.908 96.7898C124.777 96.9801 124.702 97.2259 124.682 97.527H123.387C123.407 97.0156 123.536 96.5838 123.775 96.2315C124.013 95.8764 124.328 95.608 124.721 95.4261C125.115 95.2443 125.551 95.1534 126.029 95.1534C126.551 95.1534 127.009 95.2514 127.401 95.4474C127.793 95.6406 128.097 95.9119 128.313 96.2614C128.532 96.608 128.641 97.0128 128.641 97.4759C128.641 97.794 128.591 98.081 128.492 98.3366C128.392 98.5895 128.25 98.8153 128.066 99.0142C127.884 99.2131 127.665 99.3892 127.409 99.5426C127.168 99.6932 126.972 99.8494 126.821 100.011C126.674 100.173 126.566 100.365 126.498 100.587C126.429 100.808 126.392 101.082 126.387 101.409V101.49H125.168ZM125.811 104.081C125.578 104.081 125.378 103.999 125.211 103.834C125.043 103.666 124.959 103.464 124.959 103.229C124.959 102.996 125.043 102.797 125.211 102.632C125.378 102.464 125.578 102.381 125.811 102.381C126.042 102.381 126.24 102.464 126.408 102.632C126.578 102.797 126.664 102.996 126.664 103.229C126.664 103.385 126.624 103.528 126.544 103.659C126.468 103.787 126.365 103.889 126.238 103.966C126.11 104.043 125.968 104.081 125.811 104.081Z" fill="black"/>
<rect x="227" y="119" width="69" height="34" rx="17" fill="#1A7FDC"/>
<path d="M246.78 134.611H245.45C245.399 134.327 245.304 134.077 245.165 133.861C245.025 133.645 244.855 133.462 244.653 133.311C244.452 133.161 244.226 133.047 243.976 132.97C243.729 132.893 243.466 132.855 243.187 132.855C242.684 132.855 242.234 132.982 241.836 133.234C241.442 133.487 241.129 133.858 240.899 134.347C240.672 134.835 240.558 135.432 240.558 136.136C240.558 136.847 240.672 137.446 240.899 137.935C241.129 138.423 241.443 138.793 241.841 139.043C242.238 139.293 242.686 139.418 243.183 139.418C243.459 139.418 243.72 139.381 243.967 139.307C244.217 139.23 244.443 139.118 244.645 138.97C244.846 138.822 245.017 138.642 245.156 138.429C245.298 138.213 245.396 137.966 245.45 137.688L246.78 137.692C246.709 138.121 246.571 138.516 246.366 138.876C246.165 139.234 245.905 139.544 245.586 139.805C245.271 140.064 244.91 140.264 244.504 140.406C244.098 140.548 243.655 140.619 243.175 140.619C242.419 140.619 241.746 140.44 241.155 140.082C240.564 139.722 240.098 139.206 239.757 138.536C239.419 137.865 239.25 137.065 239.25 136.136C239.25 135.205 239.42 134.405 239.761 133.737C240.102 133.067 240.568 132.553 241.159 132.195C241.75 131.834 242.422 131.653 243.175 131.653C243.638 131.653 244.069 131.72 244.47 131.854C244.873 131.984 245.236 132.178 245.557 132.433C245.878 132.686 246.143 132.996 246.354 133.362C246.564 133.726 246.706 134.142 246.78 134.611ZM251.01 140.632C250.396 140.632 249.861 140.491 249.404 140.21C248.946 139.929 248.591 139.536 248.338 139.03C248.085 138.524 247.959 137.933 247.959 137.257C247.959 136.578 248.085 135.984 248.338 135.476C248.591 134.967 248.946 134.572 249.404 134.291C249.861 134.01 250.396 133.869 251.01 133.869C251.624 133.869 252.159 134.01 252.617 134.291C253.074 134.572 253.429 134.967 253.682 135.476C253.935 135.984 254.061 136.578 254.061 137.257C254.061 137.933 253.935 138.524 253.682 139.03C253.429 139.536 253.074 139.929 252.617 140.21C252.159 140.491 251.624 140.632 251.01 140.632ZM251.014 139.562C251.412 139.562 251.742 139.457 252.003 139.247C252.264 139.037 252.458 138.757 252.583 138.408C252.71 138.058 252.774 137.673 252.774 137.253C252.774 136.835 252.71 136.452 252.583 136.102C252.458 135.75 252.264 135.467 252.003 135.254C251.742 135.041 251.412 134.935 251.014 134.935C250.614 134.935 250.281 135.041 250.017 135.254C249.756 135.467 249.561 135.75 249.433 136.102C249.308 136.452 249.246 136.835 249.246 137.253C249.246 137.673 249.308 138.058 249.433 138.408C249.561 138.757 249.756 139.037 250.017 139.247C250.281 139.457 250.614 139.562 251.014 139.562ZM256.758 136.614V140.5H255.483V133.955H256.706V135.02H256.787C256.938 134.673 257.174 134.395 257.495 134.185C257.819 133.974 258.226 133.869 258.718 133.869C259.164 133.869 259.555 133.963 259.89 134.151C260.225 134.335 260.485 134.611 260.67 134.977C260.854 135.344 260.947 135.797 260.947 136.337V140.5H259.672V136.49C259.672 136.016 259.549 135.645 259.302 135.378C259.055 135.108 258.715 134.973 258.283 134.973C257.988 134.973 257.725 135.037 257.495 135.165C257.268 135.293 257.087 135.48 256.954 135.727C256.823 135.972 256.758 136.267 256.758 136.614ZM265.77 133.955V134.977H262.072V133.955H265.77ZM263.086 140.5V133.196C263.086 132.787 263.175 132.447 263.354 132.178C263.533 131.905 263.77 131.702 264.066 131.568C264.361 131.432 264.682 131.364 265.029 131.364C265.285 131.364 265.503 131.385 265.685 131.428C265.867 131.467 266.002 131.504 266.09 131.538L265.792 132.57C265.732 132.553 265.655 132.533 265.562 132.51C265.468 132.484 265.354 132.472 265.221 132.472C264.911 132.472 264.689 132.548 264.556 132.702C264.425 132.855 264.36 133.077 264.36 133.366V140.5H263.086ZM267.085 140.5V133.955H268.359V140.5H267.085ZM267.729 132.945C267.507 132.945 267.317 132.871 267.157 132.723C267.001 132.572 266.923 132.393 266.923 132.186C266.923 131.976 267.001 131.797 267.157 131.649C267.317 131.499 267.507 131.423 267.729 131.423C267.95 131.423 268.139 131.499 268.295 131.649C268.454 131.797 268.534 131.976 268.534 132.186C268.534 132.393 268.454 132.572 268.295 132.723C268.139 132.871 267.95 132.945 267.729 132.945ZM270.073 140.5V133.955H271.305V134.994H271.373C271.492 134.642 271.703 134.365 272.004 134.163C272.308 133.959 272.651 133.857 273.035 133.857C273.115 133.857 273.208 133.859 273.316 133.865C273.427 133.871 273.514 133.878 273.576 133.886V135.105C273.525 135.091 273.434 135.075 273.303 135.058C273.173 135.038 273.042 135.028 272.911 135.028C272.61 135.028 272.342 135.092 272.106 135.22C271.873 135.345 271.688 135.52 271.552 135.744C271.416 135.966 271.347 136.219 271.347 136.503V140.5H270.073ZM274.679 140.5V133.955H275.902V135.02H275.983C276.119 134.659 276.342 134.378 276.652 134.176C276.961 133.972 277.332 133.869 277.764 133.869C278.202 133.869 278.568 133.972 278.863 134.176C279.162 134.381 279.382 134.662 279.524 135.02H279.592C279.748 134.67 279.997 134.392 280.338 134.185C280.679 133.974 281.085 133.869 281.557 133.869C282.15 133.869 282.635 134.055 283.01 134.428C283.388 134.8 283.577 135.361 283.577 136.111V140.5H282.302V136.23C282.302 135.787 282.182 135.466 281.94 135.267C281.699 135.068 281.41 134.969 281.075 134.969C280.66 134.969 280.338 135.097 280.108 135.352C279.878 135.605 279.763 135.93 279.763 136.328V140.5H278.493V136.149C278.493 135.794 278.382 135.509 278.16 135.293C277.939 135.077 277.65 134.969 277.295 134.969C277.054 134.969 276.831 135.033 276.626 135.161C276.425 135.286 276.261 135.46 276.136 135.685C276.014 135.909 275.953 136.169 275.953 136.464V140.5H274.679Z" fill="white"/>
<rect x="151.5" y="119.5" width="68" height="33" rx="16.5" stroke="#EFEFEF"/>
<path d="M173.873 134.611H172.544C172.493 134.327 172.398 134.077 172.258 133.861C172.119 133.645 171.949 133.462 171.747 133.311C171.545 133.161 171.319 133.047 171.069 132.97C170.822 132.893 170.559 132.855 170.281 132.855C169.778 132.855 169.328 132.982 168.93 133.234C168.535 133.487 168.223 133.858 167.993 134.347C167.765 134.835 167.652 135.432 167.652 136.136C167.652 136.847 167.765 137.446 167.993 137.935C168.223 138.423 168.537 138.793 168.934 139.043C169.332 139.293 169.78 139.418 170.277 139.418C170.552 139.418 170.814 139.381 171.061 139.307C171.311 139.23 171.537 139.118 171.738 138.97C171.94 138.822 172.111 138.642 172.25 138.429C172.392 138.213 172.49 137.966 172.544 137.688L173.873 137.692C173.802 138.121 173.665 138.516 173.46 138.876C173.258 139.234 172.998 139.544 172.68 139.805C172.365 140.064 172.004 140.264 171.598 140.406C171.192 140.548 170.748 140.619 170.268 140.619C169.513 140.619 168.839 140.44 168.248 140.082C167.657 139.722 167.192 139.206 166.851 138.536C166.513 137.865 166.344 137.065 166.344 136.136C166.344 135.205 166.514 134.405 166.855 133.737C167.196 133.067 167.662 132.553 168.253 132.195C168.844 131.834 169.515 131.653 170.268 131.653C170.731 131.653 171.163 131.72 171.564 131.854C171.967 131.984 172.329 132.178 172.65 132.433C172.971 132.686 173.237 132.996 173.447 133.362C173.657 133.726 173.8 134.142 173.873 134.611ZM177.252 140.645C176.837 140.645 176.462 140.568 176.127 140.415C175.791 140.259 175.526 140.033 175.33 139.737C175.137 139.442 175.04 139.08 175.04 138.651C175.04 138.281 175.111 137.977 175.253 137.739C175.395 137.5 175.587 137.311 175.828 137.172C176.07 137.033 176.34 136.928 176.638 136.857C176.936 136.786 177.24 136.732 177.55 136.695C177.942 136.649 178.26 136.612 178.504 136.584C178.749 136.553 178.926 136.503 179.037 136.435C179.148 136.366 179.203 136.256 179.203 136.102V136.072C179.203 135.7 179.098 135.412 178.888 135.207C178.681 135.003 178.371 134.901 177.959 134.901C177.53 134.901 177.192 134.996 176.945 135.186C176.7 135.374 176.531 135.582 176.438 135.812L175.24 135.54C175.382 135.142 175.59 134.821 175.862 134.577C176.138 134.33 176.455 134.151 176.813 134.04C177.171 133.926 177.547 133.869 177.942 133.869C178.203 133.869 178.48 133.901 178.773 133.963C179.068 134.023 179.344 134.134 179.6 134.295C179.858 134.457 180.07 134.689 180.235 134.99C180.399 135.288 180.482 135.676 180.482 136.153V140.5H179.237V139.605H179.186C179.104 139.77 178.98 139.932 178.816 140.091C178.651 140.25 178.439 140.382 178.181 140.487C177.922 140.592 177.612 140.645 177.252 140.645ZM177.529 139.622C177.881 139.622 178.182 139.553 178.432 139.413C178.685 139.274 178.877 139.092 179.007 138.868C179.141 138.641 179.208 138.398 179.208 138.139V137.295C179.162 137.341 179.074 137.384 178.943 137.423C178.816 137.46 178.669 137.493 178.504 137.521C178.34 137.547 178.179 137.571 178.023 137.594C177.867 137.614 177.736 137.631 177.631 137.645C177.384 137.676 177.158 137.729 176.953 137.803C176.752 137.876 176.59 137.983 176.468 138.122C176.348 138.259 176.289 138.44 176.289 138.668C176.289 138.983 176.405 139.222 176.638 139.384C176.871 139.543 177.168 139.622 177.529 139.622ZM183.453 136.614V140.5H182.179V133.955H183.402V135.02H183.483C183.633 134.673 183.869 134.395 184.19 134.185C184.514 133.974 184.922 133.869 185.413 133.869C185.859 133.869 186.25 133.963 186.585 134.151C186.92 134.335 187.18 134.611 187.365 134.977C187.55 135.344 187.642 135.797 187.642 136.337V140.5H186.368V136.49C186.368 136.016 186.244 135.645 185.997 135.378C185.75 135.108 185.41 134.973 184.979 134.973C184.683 134.973 184.42 135.037 184.19 135.165C183.963 135.293 183.782 135.48 183.649 135.727C183.518 135.972 183.453 136.267 183.453 136.614ZM192.108 140.632C191.474 140.632 190.929 140.489 190.471 140.202C190.017 139.912 189.667 139.513 189.423 139.004C189.179 138.496 189.057 137.913 189.057 137.257C189.057 136.592 189.182 136.006 189.432 135.497C189.682 134.986 190.034 134.587 190.488 134.3C190.943 134.013 191.479 133.869 192.095 133.869C192.592 133.869 193.035 133.962 193.425 134.146C193.814 134.328 194.128 134.584 194.366 134.913C194.608 135.243 194.751 135.628 194.797 136.068H193.557C193.488 135.761 193.332 135.497 193.088 135.276C192.846 135.054 192.523 134.943 192.116 134.943C191.761 134.943 191.45 135.037 191.183 135.224C190.919 135.409 190.713 135.673 190.565 136.017C190.417 136.358 190.344 136.761 190.344 137.227C190.344 137.705 190.416 138.116 190.561 138.463C190.706 138.81 190.91 139.078 191.175 139.268C191.442 139.459 191.756 139.554 192.116 139.554C192.358 139.554 192.577 139.51 192.773 139.422C192.971 139.331 193.138 139.202 193.271 139.034C193.407 138.866 193.503 138.665 193.557 138.429H194.797C194.751 138.852 194.613 139.23 194.383 139.562C194.153 139.895 193.845 140.156 193.459 140.347C193.075 140.537 192.625 140.632 192.108 140.632ZM198.98 140.632C198.335 140.632 197.78 140.494 197.314 140.219C196.851 139.94 196.493 139.55 196.24 139.047C195.99 138.541 195.865 137.949 195.865 137.27C195.865 136.599 195.99 136.009 196.24 135.497C196.493 134.986 196.845 134.587 197.297 134.3C197.752 134.013 198.283 133.869 198.891 133.869C199.26 133.869 199.618 133.93 199.965 134.053C200.311 134.175 200.622 134.366 200.898 134.628C201.173 134.889 201.391 135.229 201.55 135.646C201.709 136.061 201.789 136.565 201.789 137.159V137.611H196.585V136.656H200.54C200.54 136.321 200.472 136.024 200.335 135.766C200.199 135.504 200.007 135.298 199.76 135.148C199.516 134.997 199.229 134.922 198.899 134.922C198.541 134.922 198.229 135.01 197.962 135.186C197.698 135.359 197.493 135.587 197.348 135.868C197.206 136.146 197.135 136.449 197.135 136.776V137.521C197.135 137.959 197.212 138.331 197.365 138.638C197.521 138.945 197.739 139.179 198.017 139.341C198.296 139.5 198.621 139.58 198.993 139.58C199.235 139.58 199.455 139.545 199.654 139.477C199.852 139.406 200.024 139.301 200.169 139.162C200.314 139.023 200.425 138.851 200.502 138.646L201.708 138.864C201.611 139.219 201.438 139.53 201.188 139.797C200.941 140.061 200.629 140.267 200.254 140.415C199.882 140.56 199.458 140.632 198.98 140.632ZM204.476 131.773V140.5H203.202V131.773H204.476Z" fill="black"/>
</g>
<defs>
<clipPath id="clip0_195_3">
<rect width="360" height="200" fill="white"/>
</clipPath>
</defs>
</svg>
