<svg width="360" height="200" viewBox="0 0 360 200" fill="none" xmlns="http://www.w3.org/2000/svg">
<g clip-path="url(#clip0_158_3)">
<rect width="360" height="200" fill="#C6DBEF"/>
<rect x="45.5" y="49.5" width="269" height="45" rx="7.5" fill="white" stroke="#CCCCCC"/>
<path d="M56.3487 77V65.3636H63.6442V66.875H58.1044V70.4205H63.2635V71.9261H58.1044V75.4886H63.7124V77H56.3487ZM65.853 77V68.2727H67.4837V69.6932H67.5916C67.7734 69.2121 68.0708 68.8371 68.4837 68.5682C68.8965 68.2955 69.3909 68.1591 69.9666 68.1591C70.55 68.1591 71.0386 68.2955 71.4325 68.5682C71.8303 68.8409 72.1238 69.2159 72.3132 69.6932H72.4041C72.6125 69.2273 72.9439 68.8561 73.3984 68.5795C73.853 68.2992 74.3946 68.1591 75.0234 68.1591C75.8151 68.1591 76.4609 68.4072 76.9609 68.9034C77.4647 69.3996 77.7166 70.1477 77.7166 71.1477V77H76.0178V71.3068C76.0178 70.7159 75.8568 70.2879 75.5348 70.0227C75.2128 69.7576 74.8284 69.625 74.3814 69.625C73.8284 69.625 73.3984 69.7955 73.0916 70.1364C72.7848 70.4735 72.6314 70.9072 72.6314 71.4375V77H70.9382V71.1989C70.9382 70.7254 70.7905 70.3447 70.495 70.0568C70.1996 69.7689 69.8151 69.625 69.3416 69.625C69.0196 69.625 68.7223 69.7102 68.4496 69.8807C68.1806 70.0473 67.9628 70.2803 67.7962 70.5795C67.6333 70.8788 67.5518 71.2254 67.5518 71.6193V77H65.853ZM82.5334 77.1932C81.9804 77.1932 81.4804 77.0909 81.0334 76.8864C80.5864 76.678 80.2322 76.3769 79.9709 75.983C79.7133 75.589 79.5845 75.1061 79.5845 74.5341C79.5845 74.0417 79.6792 73.6364 79.8686 73.3182C80.058 73 80.3137 72.7481 80.6357 72.5625C80.9576 72.3769 81.3175 72.2367 81.7152 72.142C82.1129 72.0473 82.5182 71.9754 82.9311 71.9261C83.4538 71.8655 83.8781 71.8163 84.2038 71.7784C84.5296 71.7367 84.7663 71.6705 84.9141 71.5795C85.0618 71.4886 85.1357 71.3409 85.1357 71.1364V71.0966C85.1357 70.6004 84.9955 70.2159 84.7152 69.9432C84.4387 69.6705 84.0258 69.5341 83.4766 69.5341C82.9046 69.5341 82.4538 69.661 82.1243 69.9148C81.7985 70.1648 81.5732 70.4432 81.4482 70.75L79.8516 70.3864C80.041 69.8561 80.3175 69.428 80.6811 69.1023C81.0485 68.7727 81.4709 68.5341 81.9482 68.3864C82.4254 68.2348 82.9273 68.1591 83.4538 68.1591C83.8023 68.1591 84.1716 68.2008 84.5618 68.2841C84.9557 68.3636 85.3232 68.5114 85.6641 68.7273C86.0088 68.9432 86.291 69.2519 86.5107 69.6534C86.7304 70.0511 86.8402 70.5682 86.8402 71.2045V77H85.1811V75.8068H85.1129C85.0031 76.0265 84.8383 76.2424 84.6186 76.4545C84.3989 76.6667 84.1167 76.8428 83.772 76.983C83.4273 77.1231 83.0144 77.1932 82.5334 77.1932ZM82.9027 75.8295C83.3724 75.8295 83.7739 75.7367 84.1072 75.5511C84.4444 75.3655 84.7 75.1231 84.8743 74.8239C85.0523 74.5208 85.1413 74.197 85.1413 73.8523V72.7273C85.0807 72.7879 84.9633 72.8447 84.7891 72.8977C84.6186 72.947 84.4235 72.9905 84.2038 73.0284C83.9841 73.0625 83.7701 73.0947 83.5618 73.125C83.3535 73.1515 83.1792 73.1742 83.0391 73.1932C82.7095 73.2348 82.4084 73.3049 82.1357 73.4034C81.8667 73.5019 81.6508 73.6439 81.4879 73.8295C81.3288 74.0114 81.2493 74.2538 81.2493 74.5568C81.2493 74.9773 81.4046 75.2955 81.7152 75.5114C82.0258 75.7235 82.4216 75.8295 82.9027 75.8295ZM89.103 77V68.2727H90.8018V77H89.103ZM89.9609 66.9261C89.6655 66.9261 89.4117 66.8277 89.1996 66.6307C88.9912 66.4299 88.8871 66.1913 88.8871 65.9148C88.8871 65.6345 88.9912 65.3958 89.1996 65.1989C89.4117 64.9981 89.6655 64.8977 89.9609 64.8977C90.2564 64.8977 90.5083 64.9981 90.7166 65.1989C90.9287 65.3958 91.0348 65.6345 91.0348 65.9148C91.0348 66.1913 90.9287 66.4299 90.7166 66.6307C90.5083 66.8277 90.2564 66.9261 89.9609 66.9261ZM94.7862 65.3636V77H93.0874V65.3636H94.7862Z" fill="#757575"/>
<rect x="45.5" y="105.5" width="269" height="45" rx="7.5" fill="white" stroke="#CCCCCC"/>
<path d="M288 131.375L282 125.375L283.4 123.975L288 128.575L292.6 123.975L294 125.375L288 131.375Z" fill="black"/>
<path d="M66.1463 125.148H64.3736C64.3054 124.769 64.1785 124.436 63.9929 124.148C63.8073 123.86 63.58 123.616 63.3111 123.415C63.0421 123.214 62.741 123.062 62.4077 122.96C62.0781 122.858 61.7277 122.807 61.3565 122.807C60.6861 122.807 60.0857 122.975 59.5554 123.312C59.0289 123.65 58.6122 124.144 58.3054 124.795C58.0024 125.447 57.8509 126.242 57.8509 127.182C57.8509 128.129 58.0024 128.928 58.3054 129.58C58.6122 130.231 59.0308 130.723 59.5611 131.057C60.0914 131.39 60.688 131.557 61.3509 131.557C61.7183 131.557 62.0668 131.508 62.3963 131.409C62.7296 131.307 63.0308 131.157 63.2997 130.96C63.5687 130.763 63.7959 130.523 63.9815 130.239C64.1709 129.951 64.3016 129.621 64.3736 129.25L66.1463 129.256C66.0516 129.828 65.8679 130.354 65.5952 130.835C65.3262 131.312 64.9796 131.725 64.5554 132.074C64.1349 132.419 63.6539 132.686 63.1122 132.875C62.5705 133.064 61.9796 133.159 61.3395 133.159C60.3319 133.159 59.4342 132.92 58.6463 132.443C57.8584 131.962 57.2372 131.275 56.7827 130.381C56.3319 129.487 56.1065 128.42 56.1065 127.182C56.1065 125.939 56.3338 124.873 56.7884 123.983C57.2429 123.089 57.8641 122.403 58.652 121.926C59.4399 121.445 60.3357 121.205 61.3395 121.205C61.9569 121.205 62.5327 121.294 63.0668 121.472C63.6046 121.646 64.0876 121.903 64.5156 122.244C64.9437 122.581 65.2978 122.994 65.5781 123.483C65.8584 123.968 66.0478 124.523 66.1463 125.148ZM69.8097 127.818V133H68.1108V121.364H69.7869V125.693H69.8949C70.0994 125.223 70.4119 124.85 70.8324 124.574C71.2528 124.297 71.8021 124.159 72.4801 124.159C73.0786 124.159 73.6013 124.282 74.0483 124.528C74.4991 124.775 74.8475 125.142 75.0938 125.631C75.3438 126.116 75.4688 126.722 75.4688 127.449V133H73.7699V127.653C73.7699 127.013 73.6051 126.517 73.2756 126.165C72.946 125.809 72.4877 125.631 71.9006 125.631C71.4991 125.631 71.1392 125.716 70.821 125.886C70.5066 126.057 70.2585 126.307 70.0767 126.636C69.8987 126.962 69.8097 127.356 69.8097 127.818ZM81.4119 133.176C80.5938 133.176 79.8797 132.989 79.2699 132.614C78.66 132.239 78.1866 131.714 77.8494 131.04C77.5123 130.366 77.3438 129.578 77.3438 128.676C77.3438 127.771 77.5123 126.979 77.8494 126.301C78.1866 125.623 78.66 125.097 79.2699 124.722C79.8797 124.347 80.5938 124.159 81.4119 124.159C82.2301 124.159 82.9441 124.347 83.554 124.722C84.1638 125.097 84.6373 125.623 84.9744 126.301C85.3116 126.979 85.4801 127.771 85.4801 128.676C85.4801 129.578 85.3116 130.366 84.9744 131.04C84.6373 131.714 84.1638 132.239 83.554 132.614C82.9441 132.989 82.2301 133.176 81.4119 133.176ZM81.4176 131.75C81.9479 131.75 82.3873 131.61 82.7358 131.33C83.0843 131.049 83.3419 130.676 83.5085 130.21C83.679 129.744 83.7642 129.231 83.7642 128.67C83.7642 128.114 83.679 127.602 83.5085 127.136C83.3419 126.667 83.0843 126.29 82.7358 126.006C82.3873 125.722 81.9479 125.58 81.4176 125.58C80.8835 125.58 80.4403 125.722 80.0881 126.006C79.7396 126.29 79.4801 126.667 79.3097 127.136C79.143 127.602 79.0597 128.114 79.0597 128.67C79.0597 129.231 79.143 129.744 79.3097 130.21C79.4801 130.676 79.7396 131.049 80.0881 131.33C80.4403 131.61 80.8835 131.75 81.4176 131.75ZM91.0526 133.176C90.2344 133.176 89.5204 132.989 88.9105 132.614C88.3007 132.239 87.8272 131.714 87.4901 131.04C87.1529 130.366 86.9844 129.578 86.9844 128.676C86.9844 127.771 87.1529 126.979 87.4901 126.301C87.8272 125.623 88.3007 125.097 88.9105 124.722C89.5204 124.347 90.2344 124.159 91.0526 124.159C91.8707 124.159 92.5848 124.347 93.1946 124.722C93.8045 125.097 94.2779 125.623 94.6151 126.301C94.9522 126.979 95.1207 127.771 95.1207 128.676C95.1207 129.578 94.9522 130.366 94.6151 131.04C94.2779 131.714 93.8045 132.239 93.1946 132.614C92.5848 132.989 91.8707 133.176 91.0526 133.176ZM91.0582 131.75C91.5885 131.75 92.0279 131.61 92.3764 131.33C92.7249 131.049 92.9825 130.676 93.1491 130.21C93.3196 129.744 93.4048 129.231 93.4048 128.67C93.4048 128.114 93.3196 127.602 93.1491 127.136C92.9825 126.667 92.7249 126.29 92.3764 126.006C92.0279 125.722 91.5885 125.58 91.0582 125.58C90.5241 125.58 90.081 125.722 89.7287 126.006C89.3802 126.29 89.1207 126.667 88.9503 127.136C88.7836 127.602 88.7003 128.114 88.7003 128.67C88.7003 129.231 88.7836 129.744 88.9503 130.21C89.1207 130.676 89.3802 131.049 89.7287 131.33C90.081 131.61 90.5241 131.75 91.0582 131.75ZM103.557 126.403L102.017 126.676C101.953 126.479 101.85 126.292 101.71 126.114C101.574 125.936 101.388 125.79 101.153 125.676C100.919 125.562 100.625 125.506 100.273 125.506C99.7917 125.506 99.3902 125.614 99.0682 125.83C98.7462 126.042 98.5852 126.316 98.5852 126.653C98.5852 126.945 98.6932 127.18 98.9091 127.358C99.125 127.536 99.4735 127.682 99.9545 127.795L101.341 128.114C102.144 128.299 102.742 128.585 103.136 128.972C103.53 129.358 103.727 129.86 103.727 130.477C103.727 131 103.576 131.466 103.273 131.875C102.973 132.28 102.555 132.598 102.017 132.83C101.483 133.061 100.864 133.176 100.159 133.176C99.1818 133.176 98.3845 132.968 97.767 132.551C97.1496 132.131 96.7708 131.534 96.6307 130.761L98.2727 130.511C98.375 130.939 98.5852 131.263 98.9034 131.483C99.2216 131.699 99.6364 131.807 100.148 131.807C100.705 131.807 101.15 131.691 101.483 131.46C101.816 131.225 101.983 130.939 101.983 130.602C101.983 130.33 101.881 130.1 101.676 129.915C101.475 129.729 101.167 129.589 100.75 129.494L99.2727 129.17C98.4583 128.985 97.8561 128.689 97.4659 128.284C97.0795 127.879 96.8864 127.366 96.8864 126.744C96.8864 126.229 97.0303 125.778 97.3182 125.392C97.6061 125.006 98.0038 124.705 98.5114 124.489C99.0189 124.269 99.6004 124.159 100.256 124.159C101.199 124.159 101.941 124.364 102.483 124.773C103.025 125.178 103.383 125.722 103.557 126.403ZM109.357 133.176C108.497 133.176 107.756 132.992 107.135 132.625C106.518 132.254 106.04 131.733 105.703 131.062C105.37 130.388 105.203 129.598 105.203 128.693C105.203 127.799 105.37 127.011 105.703 126.33C106.04 125.648 106.51 125.116 107.112 124.733C107.718 124.35 108.427 124.159 109.237 124.159C109.73 124.159 110.207 124.241 110.669 124.403C111.131 124.566 111.546 124.822 111.913 125.17C112.281 125.519 112.571 125.972 112.783 126.528C112.995 127.081 113.101 127.754 113.101 128.545V129.148H106.163V127.875H111.436C111.436 127.428 111.345 127.032 111.163 126.688C110.982 126.339 110.726 126.064 110.396 125.864C110.071 125.663 109.688 125.562 109.249 125.562C108.771 125.562 108.355 125.68 107.999 125.915C107.646 126.146 107.374 126.449 107.18 126.824C106.991 127.195 106.896 127.598 106.896 128.034V129.028C106.896 129.612 106.999 130.108 107.203 130.517C107.411 130.926 107.701 131.239 108.072 131.455C108.444 131.667 108.877 131.773 109.374 131.773C109.696 131.773 109.989 131.727 110.254 131.636C110.519 131.542 110.749 131.402 110.942 131.216C111.135 131.03 111.283 130.801 111.385 130.528L112.993 130.818C112.864 131.292 112.633 131.706 112.3 132.062C111.97 132.415 111.555 132.689 111.055 132.886C110.559 133.08 109.993 133.176 109.357 133.176ZM120.294 136.273C120.04 136.273 119.809 136.252 119.601 136.21C119.393 136.172 119.237 136.131 119.135 136.085L119.544 134.693C119.855 134.777 120.131 134.813 120.374 134.801C120.616 134.79 120.83 134.699 121.016 134.528C121.205 134.358 121.372 134.08 121.516 133.693L121.726 133.114L118.533 124.273H120.351L122.561 131.045H122.652L124.862 124.273H126.686L123.089 134.165C122.923 134.619 122.711 135.004 122.453 135.318C122.196 135.636 121.889 135.875 121.533 136.034C121.177 136.193 120.764 136.273 120.294 136.273ZM131.662 133.176C130.844 133.176 130.13 132.989 129.52 132.614C128.91 132.239 128.437 131.714 128.099 131.04C127.762 130.366 127.594 129.578 127.594 128.676C127.594 127.771 127.762 126.979 128.099 126.301C128.437 125.623 128.91 125.097 129.52 124.722C130.13 124.347 130.844 124.159 131.662 124.159C132.48 124.159 133.194 124.347 133.804 124.722C134.414 125.097 134.887 125.623 135.224 126.301C135.562 126.979 135.73 127.771 135.73 128.676C135.73 129.578 135.562 130.366 135.224 131.04C134.887 131.714 134.414 132.239 133.804 132.614C133.194 132.989 132.48 133.176 131.662 133.176ZM131.668 131.75C132.198 131.75 132.637 131.61 132.986 131.33C133.334 131.049 133.592 130.676 133.759 130.21C133.929 129.744 134.014 129.231 134.014 128.67C134.014 128.114 133.929 127.602 133.759 127.136C133.592 126.667 133.334 126.29 132.986 126.006C132.637 125.722 132.198 125.58 131.668 125.58C131.134 125.58 130.69 125.722 130.338 126.006C129.99 126.29 129.73 126.667 129.56 127.136C129.393 127.602 129.31 128.114 129.31 128.67C129.31 129.231 129.393 129.744 129.56 130.21C129.73 130.676 129.99 131.049 130.338 131.33C130.69 131.61 131.134 131.75 131.668 131.75ZM143.155 129.381V124.273H144.859V133H143.189V131.489H143.098C142.897 131.955 142.575 132.343 142.132 132.653C141.693 132.96 141.145 133.114 140.49 133.114C139.929 133.114 139.433 132.991 139.001 132.744C138.573 132.494 138.236 132.125 137.99 131.636C137.748 131.148 137.626 130.544 137.626 129.824V124.273H139.325V129.619C139.325 130.214 139.49 130.687 139.82 131.04C140.149 131.392 140.577 131.568 141.104 131.568C141.422 131.568 141.738 131.489 142.053 131.33C142.371 131.17 142.634 130.93 142.842 130.608C143.054 130.286 143.159 129.877 143.155 129.381ZM147.142 133V124.273H148.784V125.659H148.875C149.034 125.189 149.314 124.82 149.716 124.551C150.121 124.278 150.58 124.142 151.091 124.142C151.197 124.142 151.322 124.146 151.466 124.153C151.614 124.161 151.729 124.17 151.812 124.182V125.807C151.744 125.788 151.623 125.767 151.449 125.744C151.275 125.718 151.1 125.705 150.926 125.705C150.525 125.705 150.167 125.79 149.852 125.96C149.542 126.127 149.295 126.36 149.114 126.659C148.932 126.955 148.841 127.292 148.841 127.67V133H147.142ZM159.216 121.364V133H157.517V121.364H159.216ZM164.041 133.193C163.488 133.193 162.988 133.091 162.541 132.886C162.094 132.678 161.74 132.377 161.479 131.983C161.221 131.589 161.092 131.106 161.092 130.534C161.092 130.042 161.187 129.636 161.376 129.318C161.566 129 161.821 128.748 162.143 128.562C162.465 128.377 162.825 128.237 163.223 128.142C163.621 128.047 164.026 127.975 164.439 127.926C164.962 127.866 165.386 127.816 165.712 127.778C166.037 127.737 166.274 127.67 166.422 127.58C166.57 127.489 166.643 127.341 166.643 127.136V127.097C166.643 126.6 166.503 126.216 166.223 125.943C165.946 125.67 165.534 125.534 164.984 125.534C164.412 125.534 163.962 125.661 163.632 125.915C163.306 126.165 163.081 126.443 162.956 126.75L161.359 126.386C161.549 125.856 161.825 125.428 162.189 125.102C162.556 124.773 162.979 124.534 163.456 124.386C163.933 124.235 164.435 124.159 164.962 124.159C165.31 124.159 165.679 124.201 166.07 124.284C166.464 124.364 166.831 124.511 167.172 124.727C167.517 124.943 167.799 125.252 168.018 125.653C168.238 126.051 168.348 126.568 168.348 127.205V133H166.689V131.807H166.621C166.511 132.027 166.346 132.242 166.126 132.455C165.907 132.667 165.625 132.843 165.28 132.983C164.935 133.123 164.522 133.193 164.041 133.193ZM164.411 131.83C164.88 131.83 165.282 131.737 165.615 131.551C165.952 131.366 166.208 131.123 166.382 130.824C166.56 130.521 166.649 130.197 166.649 129.852V128.727C166.589 128.788 166.471 128.845 166.297 128.898C166.126 128.947 165.931 128.991 165.712 129.028C165.492 129.062 165.278 129.095 165.07 129.125C164.861 129.152 164.687 129.174 164.547 129.193C164.217 129.235 163.916 129.305 163.643 129.403C163.375 129.502 163.159 129.644 162.996 129.83C162.837 130.011 162.757 130.254 162.757 130.557C162.757 130.977 162.912 131.295 163.223 131.511C163.534 131.723 163.929 131.83 164.411 131.83ZM172.31 127.818V133H170.611V124.273H172.241V125.693H172.349C172.55 125.231 172.865 124.86 173.293 124.58C173.724 124.299 174.268 124.159 174.923 124.159C175.518 124.159 176.039 124.284 176.486 124.534C176.933 124.78 177.279 125.148 177.526 125.636C177.772 126.125 177.895 126.729 177.895 127.449V133H176.196V127.653C176.196 127.021 176.031 126.527 175.702 126.17C175.372 125.811 174.92 125.631 174.344 125.631C173.95 125.631 173.599 125.716 173.293 125.886C172.99 126.057 172.749 126.307 172.571 126.636C172.397 126.962 172.31 127.356 172.31 127.818ZM183.832 136.455C183.139 136.455 182.543 136.364 182.043 136.182C181.546 136 181.141 135.759 180.827 135.46C180.512 135.161 180.277 134.833 180.122 134.477L181.582 133.875C181.685 134.042 181.821 134.218 181.991 134.403C182.166 134.593 182.401 134.754 182.696 134.886C182.995 135.019 183.38 135.085 183.849 135.085C184.493 135.085 185.026 134.928 185.446 134.614C185.866 134.303 186.077 133.807 186.077 133.125V131.409H185.969C185.866 131.595 185.719 131.801 185.526 132.028C185.336 132.256 185.075 132.453 184.741 132.619C184.408 132.786 183.974 132.869 183.44 132.869C182.751 132.869 182.13 132.708 181.577 132.386C181.027 132.061 180.592 131.581 180.27 130.949C179.952 130.312 179.793 129.53 179.793 128.602C179.793 127.674 179.95 126.879 180.264 126.216C180.582 125.553 181.018 125.045 181.571 124.693C182.124 124.337 182.751 124.159 183.452 124.159C183.993 124.159 184.431 124.25 184.764 124.432C185.098 124.61 185.357 124.818 185.543 125.057C185.732 125.295 185.878 125.506 185.98 125.688H186.105V124.273H187.77V133.193C187.77 133.943 187.596 134.559 187.247 135.04C186.899 135.521 186.427 135.877 185.832 136.108C185.241 136.339 184.575 136.455 183.832 136.455ZM183.815 131.46C184.304 131.46 184.717 131.347 185.054 131.119C185.395 130.888 185.652 130.559 185.827 130.131C186.005 129.699 186.094 129.182 186.094 128.58C186.094 127.992 186.007 127.475 185.832 127.028C185.658 126.581 185.402 126.233 185.065 125.983C184.728 125.729 184.312 125.602 183.815 125.602C183.304 125.602 182.878 125.735 182.537 126C182.196 126.261 181.938 126.617 181.764 127.068C181.594 127.519 181.509 128.023 181.509 128.58C181.509 129.152 181.596 129.653 181.77 130.085C181.944 130.517 182.202 130.854 182.543 131.097C182.887 131.339 183.312 131.46 183.815 131.46ZM195.577 129.381V124.273H197.281V133H195.611V131.489H195.52C195.319 131.955 194.997 132.343 194.554 132.653C194.115 132.96 193.567 133.114 192.912 133.114C192.351 133.114 191.855 132.991 191.423 132.744C190.995 132.494 190.658 132.125 190.412 131.636C190.17 131.148 190.048 130.544 190.048 129.824V124.273H191.747V129.619C191.747 130.214 191.912 130.687 192.241 131.04C192.571 131.392 192.999 131.568 193.526 131.568C193.844 131.568 194.16 131.489 194.474 131.33C194.793 131.17 195.056 130.93 195.264 130.608C195.476 130.286 195.58 129.877 195.577 129.381ZM202.104 133.193C201.551 133.193 201.051 133.091 200.604 132.886C200.157 132.678 199.803 132.377 199.541 131.983C199.284 131.589 199.155 131.106 199.155 130.534C199.155 130.042 199.25 129.636 199.439 129.318C199.628 129 199.884 128.748 200.206 128.562C200.528 128.377 200.888 128.237 201.286 128.142C201.683 128.047 202.089 127.975 202.501 127.926C203.024 127.866 203.448 127.816 203.774 127.778C204.1 127.737 204.337 127.67 204.484 127.58C204.632 127.489 204.706 127.341 204.706 127.136V127.097C204.706 126.6 204.566 126.216 204.286 125.943C204.009 125.67 203.596 125.534 203.047 125.534C202.475 125.534 202.024 125.661 201.695 125.915C201.369 126.165 201.143 126.443 201.018 126.75L199.422 126.386C199.611 125.856 199.888 125.428 200.251 125.102C200.619 124.773 201.041 124.534 201.518 124.386C201.996 124.235 202.498 124.159 203.024 124.159C203.373 124.159 203.742 124.201 204.132 124.284C204.526 124.364 204.893 124.511 205.234 124.727C205.579 124.943 205.861 125.252 206.081 125.653C206.301 126.051 206.411 126.568 206.411 127.205V133H204.751V131.807H204.683C204.573 132.027 204.409 132.242 204.189 132.455C203.969 132.667 203.687 132.843 203.342 132.983C202.998 133.123 202.585 133.193 202.104 133.193ZM202.473 131.83C202.943 131.83 203.344 131.737 203.678 131.551C204.015 131.366 204.27 131.123 204.445 130.824C204.623 130.521 204.712 130.197 204.712 129.852V128.727C204.651 128.788 204.534 128.845 204.359 128.898C204.189 128.947 203.994 128.991 203.774 129.028C203.554 129.062 203.34 129.095 203.132 129.125C202.924 129.152 202.75 129.174 202.609 129.193C202.28 129.235 201.979 129.305 201.706 129.403C201.437 129.502 201.221 129.644 201.058 129.83C200.899 130.011 200.82 130.254 200.82 130.557C200.82 130.977 200.975 131.295 201.286 131.511C201.596 131.723 201.992 131.83 202.473 131.83ZM212.332 136.455C211.639 136.455 211.043 136.364 210.543 136.182C210.046 136 209.641 135.759 209.327 135.46C209.012 135.161 208.777 134.833 208.622 134.477L210.082 133.875C210.185 134.042 210.321 134.218 210.491 134.403C210.666 134.593 210.901 134.754 211.196 134.886C211.495 135.019 211.88 135.085 212.349 135.085C212.993 135.085 213.526 134.928 213.946 134.614C214.366 134.303 214.577 133.807 214.577 133.125V131.409H214.469C214.366 131.595 214.219 131.801 214.026 132.028C213.836 132.256 213.575 132.453 213.241 132.619C212.908 132.786 212.474 132.869 211.94 132.869C211.251 132.869 210.63 132.708 210.077 132.386C209.527 132.061 209.092 131.581 208.77 130.949C208.452 130.312 208.293 129.53 208.293 128.602C208.293 127.674 208.45 126.879 208.764 126.216C209.082 125.553 209.518 125.045 210.071 124.693C210.624 124.337 211.251 124.159 211.952 124.159C212.493 124.159 212.931 124.25 213.264 124.432C213.598 124.61 213.857 124.818 214.043 125.057C214.232 125.295 214.378 125.506 214.48 125.688H214.605V124.273H216.27V133.193C216.27 133.943 216.096 134.559 215.747 135.04C215.399 135.521 214.927 135.877 214.332 136.108C213.741 136.339 213.075 136.455 212.332 136.455ZM212.315 131.46C212.804 131.46 213.217 131.347 213.554 131.119C213.895 130.888 214.152 130.559 214.327 130.131C214.505 129.699 214.594 129.182 214.594 128.58C214.594 127.992 214.507 127.475 214.332 127.028C214.158 126.581 213.902 126.233 213.565 125.983C213.228 125.729 212.812 125.602 212.315 125.602C211.804 125.602 211.378 125.735 211.037 126C210.696 126.261 210.438 126.617 210.264 127.068C210.094 127.519 210.009 128.023 210.009 128.58C210.009 129.152 210.096 129.653 210.27 130.085C210.444 130.517 210.702 130.854 211.043 131.097C211.387 131.339 211.812 131.46 212.315 131.46ZM222.31 133.176C221.45 133.176 220.709 132.992 220.088 132.625C219.471 132.254 218.993 131.733 218.656 131.062C218.323 130.388 218.156 129.598 218.156 128.693C218.156 127.799 218.323 127.011 218.656 126.33C218.993 125.648 219.463 125.116 220.065 124.733C220.671 124.35 221.38 124.159 222.19 124.159C222.683 124.159 223.16 124.241 223.622 124.403C224.084 124.566 224.499 124.822 224.866 125.17C225.234 125.519 225.524 125.972 225.736 126.528C225.948 127.081 226.054 127.754 226.054 128.545V129.148H219.116V127.875H224.389C224.389 127.428 224.298 127.032 224.116 126.688C223.935 126.339 223.679 126.064 223.349 125.864C223.024 125.663 222.641 125.562 222.202 125.562C221.724 125.562 221.308 125.68 220.952 125.915C220.599 126.146 220.327 126.449 220.134 126.824C219.944 127.195 219.849 127.598 219.849 128.034V129.028C219.849 129.612 219.952 130.108 220.156 130.517C220.365 130.926 220.654 131.239 221.026 131.455C221.397 131.667 221.83 131.773 222.327 131.773C222.649 131.773 222.942 131.727 223.207 131.636C223.473 131.542 223.702 131.402 223.895 131.216C224.088 131.03 224.236 130.801 224.338 130.528L225.946 130.818C225.817 131.292 225.586 131.706 225.253 132.062C224.923 132.415 224.509 132.689 224.009 132.886C223.512 133.08 222.946 133.176 222.31 133.176Z" fill="#757575"/>
</g>
<defs>
<clipPath id="clip0_158_3">
<rect width="360" height="200" fill="white"/>
</clipPath>
</defs>
</svg>
