<svg width="360" height="200" viewBox="0 0 360 200" fill="none" xmlns="http://www.w3.org/2000/svg">
<rect width="360" height="200" fill="#C6DBEF"/>
<path d="M84.5 67L72 54.8378L74.9167 52L84.5 61.3243L94.0833 52L97 54.8378L84.5 67Z" fill="#1A7FDC"/>
<path d="M165.417 77.75C164.271 77.75 163.29 77.342 162.474 76.526C161.658 75.7101 161.25 74.7292 161.25 73.5833V44.4167C161.25 43.2708 161.658 42.2899 162.474 41.474C163.29 40.658 164.271 40.25 165.417 40.25H180V44.4167H165.417V73.5833H180V77.75H165.417ZM188.333 69.4167L185.469 66.3958L190.781 61.0833H173.75V56.9167H190.781L185.469 51.6042L188.333 48.5833L198.75 59L188.333 69.4167Z" fill="#1A7FDC"/>
<path d="M270.271 79.8333L269.437 73.1667C268.986 72.9931 268.561 72.7847 268.161 72.5417C267.762 72.2986 267.372 72.0382 266.99 71.7604L260.792 74.3646L255.062 64.4688L260.427 60.4063C260.392 60.1632 260.375 59.9288 260.375 59.7031V58.2969C260.375 58.0712 260.392 57.8368 260.427 57.5938L255.062 53.5313L260.792 43.6354L266.99 46.2396C267.372 45.9618 267.771 45.7014 268.187 45.4584C268.604 45.2153 269.021 45.007 269.437 44.8334L270.271 38.1667H281.729L282.562 44.8334C283.014 45.007 283.439 45.2153 283.839 45.4584C284.238 45.7014 284.628 45.9618 285.01 46.2396L291.208 43.6354L296.937 53.5313L291.573 57.5938C291.608 57.8368 291.625 58.0712 291.625 58.2969V59.7031C291.625 59.9288 291.59 60.1632 291.521 60.4063L296.885 64.4688L291.156 74.3646L285.01 71.7604C284.628 72.0382 284.229 72.2986 283.812 72.5417C283.396 72.7847 282.979 72.9931 282.562 73.1667L281.729 79.8333H270.271ZM273.917 75.6667H278.031L278.76 70.1459C279.837 69.8681 280.835 69.4601 281.755 68.9219C282.675 68.3837 283.517 67.7327 284.281 66.9688L289.437 69.1042L291.469 65.5625L286.99 62.1771C287.163 61.691 287.285 61.1788 287.354 60.6406C287.424 60.1024 287.458 59.5556 287.458 59C287.458 58.4445 287.424 57.8976 287.354 57.3594C287.285 56.8212 287.163 56.309 286.99 55.8229L291.469 52.4375L289.437 48.8959L284.281 51.0834C283.517 50.2847 282.675 49.6163 281.755 49.0781C280.835 48.5399 279.837 48.132 278.76 47.8542L278.083 42.3334H273.969L273.24 47.8542C272.163 48.132 271.165 48.5399 270.245 49.0781C269.325 49.6163 268.483 50.2674 267.719 51.0313L262.562 48.8959L260.531 52.4375L265.01 55.7709C264.837 56.2917 264.715 56.8125 264.646 57.3334C264.576 57.8542 264.542 58.4097 264.542 59C264.542 59.5556 264.576 60.0938 264.646 60.6146C264.715 61.1354 264.837 61.6563 265.01 62.1771L260.531 65.5625L262.562 69.1042L267.719 66.9167C268.483 67.7153 269.325 68.3837 270.245 68.9219C271.165 69.4601 272.163 69.8681 273.24 70.1459L273.917 75.6667ZM276.104 66.2917C278.118 66.2917 279.837 65.5799 281.26 64.1563C282.684 62.7327 283.396 61.0139 283.396 59C283.396 56.9861 282.684 55.2674 281.26 53.8438C279.837 52.4202 278.118 51.7084 276.104 51.7084C274.056 51.7084 272.328 52.4202 270.922 53.8438C269.516 55.2674 268.812 56.9861 268.812 59C268.812 61.0139 269.516 62.7327 270.922 64.1563C272.328 65.5799 274.056 66.2917 276.104 66.2917Z" fill="#1A7FDC"/>
<path d="M262.799 144.026C264.605 142.712 266.573 141.674 268.702 140.913C270.831 140.151 273.097 139.771 275.5 139.771C277.903 139.771 280.169 140.151 282.298 140.913C284.427 141.674 286.395 142.712 288.201 144.026C289.522 142.602 290.569 140.954 291.341 139.082C292.114 137.209 292.5 135.182 292.5 133C292.5 128.382 290.844 124.45 287.533 121.203C284.221 117.957 280.21 116.333 275.5 116.333C270.79 116.333 266.779 117.957 263.467 121.203C260.156 124.45 258.5 128.382 258.5 133C258.5 135.182 258.886 137.209 259.658 139.082C260.431 140.954 261.478 142.602 262.799 144.026ZM275.501 134.562C273.56 134.562 271.924 133.91 270.592 132.604C269.26 131.298 268.594 129.694 268.594 127.792C268.594 125.89 269.26 124.286 270.591 122.98C271.923 121.674 273.559 121.021 275.499 121.021C277.439 121.021 279.076 121.674 280.408 122.979C281.74 124.285 282.406 125.889 282.406 127.791C282.406 129.693 281.74 131.297 280.408 132.603C279.077 133.909 277.441 134.562 275.501 134.562ZM275.5 152.792C272.697 152.792 270.067 152.275 267.611 151.241C265.155 150.207 263.018 148.8 261.201 147.018C259.384 145.237 257.948 143.142 256.894 140.734C255.84 138.327 255.312 135.748 255.312 133C255.312 130.252 255.84 127.673 256.894 125.266C257.948 122.858 259.384 120.763 261.201 118.982C263.018 117.2 265.155 115.793 267.611 114.759C270.067 113.725 272.697 113.208 275.5 113.208C278.303 113.208 280.933 113.725 283.389 114.759C285.845 115.793 287.982 117.2 289.799 118.982C291.616 120.763 293.052 122.858 294.106 125.266C295.16 127.673 295.687 130.252 295.687 133C295.687 135.748 295.16 138.327 294.106 140.734C293.052 143.142 291.616 145.237 289.799 147.018C287.982 148.8 285.845 150.207 283.389 151.241C280.933 152.275 278.303 152.792 275.5 152.792ZM275.5 149.667C277.418 149.667 279.267 149.364 281.047 148.759C282.828 148.154 284.409 147.308 285.79 146.221C284.409 145.174 282.848 144.358 281.109 143.773C279.369 143.188 277.5 142.896 275.5 142.896C273.5 142.896 271.627 143.185 269.881 143.763C268.135 144.341 266.578 145.161 265.21 146.221C266.591 147.308 268.172 148.154 269.952 148.759C271.733 149.364 273.582 149.667 275.5 149.667ZM275.5 131.438C276.557 131.438 277.441 131.089 278.152 130.392C278.863 129.695 279.219 128.828 279.219 127.792C279.219 126.755 278.863 125.889 278.152 125.191C277.441 124.494 276.557 124.146 275.5 124.146C274.443 124.146 273.559 124.494 272.848 125.191C272.137 125.889 271.781 126.755 271.781 127.792C271.781 128.828 272.137 129.695 272.848 130.392C273.559 131.089 274.443 131.438 275.5 131.438Z" fill="#1A7FDC"/>
<path d="M166.058 150.708C165.005 150.708 164.114 150.344 163.385 149.615C162.656 148.885 162.292 147.995 162.292 146.942V119.058C162.292 118.005 162.656 117.115 163.385 116.385C164.114 115.656 165.005 115.292 166.058 115.292H187.892L197.708 125.107V146.942C197.708 147.995 197.343 148.885 196.614 149.615C195.885 150.344 194.994 150.708 193.942 150.708H166.058ZM166.058 147.583H193.942C194.129 147.583 194.283 147.523 194.403 147.403C194.523 147.283 194.583 147.129 194.583 146.942V126.75H186.25V118.417H166.058C165.871 118.417 165.717 118.477 165.597 118.597C165.477 118.717 165.416 118.871 165.416 119.058V146.942C165.416 147.129 165.477 147.283 165.597 147.403C165.717 147.523 165.871 147.583 166.058 147.583ZM170.104 142.375H189.896V139.25H170.104V142.375ZM170.104 126.75H180V123.625H170.104V126.75ZM170.104 134.562H189.896V131.438H170.104V134.562Z" fill="#1A7FDC"/>
<path d="M73.021 136.646H88.6459V133.521H73.021V136.646ZM73.021 130.396H96.9792V127.271H73.021V130.396ZM73.021 124.146H96.9792V121.021H73.021V124.146ZM65.2085 151.83V116.974C65.2085 115.922 65.5731 115.031 66.3022 114.302C67.0314 113.573 67.9222 113.208 68.9745 113.208H101.026C102.078 113.208 102.969 113.573 103.698 114.302C104.427 115.031 104.792 115.922 104.792 116.974V140.692C104.792 141.745 104.427 142.635 103.698 143.365C102.969 144.094 102.078 144.458 101.026 144.458H72.5803L65.2085 151.83ZM71.2502 141.333H101.026C101.186 141.333 101.333 141.267 101.466 141.133C101.6 140.999 101.667 140.853 101.667 140.692V116.974C101.667 116.814 101.6 116.667 101.466 116.534C101.333 116.4 101.186 116.333 101.026 116.333H68.9745C68.8143 116.333 68.6673 116.4 68.5338 116.534C68.4002 116.667 68.3334 116.814 68.3334 116.974V144.218L71.2502 141.333Z" fill="#1A7FDC"/>
</svg>
