<svg width="360" height="200" viewBox="0 0 360 200" fill="none" xmlns="http://www.w3.org/2000/svg">
<g clip-path="url(#clip0_99_3)">
<rect width="360" height="200" fill="#C6DBEF"/>
<g clip-path="url(#clip1_99_3)">
<rect x="95" y="74" width="170" height="50" rx="25" fill="#1A7FDC"/>
<path d="M157.589 105V93.3636H161.521C162.43 93.3636 163.176 93.5189 163.759 93.8295C164.343 94.1364 164.774 94.5587 165.055 95.0966C165.335 95.6345 165.475 96.2462 165.475 96.9318C165.475 97.6174 165.335 98.2254 165.055 98.7557C164.774 99.286 164.344 99.7027 163.765 100.006C163.185 100.305 162.445 100.455 161.543 100.455H158.362V99.1818H161.498C162.119 99.1818 162.619 99.0909 162.998 98.9091C163.38 98.7273 163.657 98.4697 163.827 98.1364C164.002 97.7992 164.089 97.3977 164.089 96.9318C164.089 96.4659 164.002 96.0587 163.827 95.7102C163.653 95.3617 163.375 95.0928 162.992 94.9034C162.61 94.7102 162.104 94.6136 161.475 94.6136H158.998V105H157.589ZM163.066 99.7727L165.93 105H164.293L161.475 99.7727H163.066ZM167.641 105V96.2727H168.982V105H167.641ZM168.323 94.8182C168.062 94.8182 167.836 94.7292 167.647 94.5511C167.461 94.3731 167.369 94.1591 167.369 93.9091C167.369 93.6591 167.461 93.4451 167.647 93.267C167.836 93.089 168.062 93 168.323 93C168.585 93 168.808 93.089 168.994 93.267C169.183 93.4451 169.278 93.6591 169.278 93.9091C169.278 94.1591 169.183 94.3731 168.994 94.5511C168.808 94.7292 168.585 94.8182 168.323 94.8182ZM171.438 108.273V96.2727H172.734V97.6591H172.893C172.991 97.5076 173.128 97.3144 173.302 97.0795C173.48 96.8409 173.734 96.6288 174.063 96.4432C174.397 96.2538 174.847 96.1591 175.415 96.1591C176.15 96.1591 176.798 96.3428 177.359 96.7102C177.919 97.0777 178.357 97.5985 178.671 98.2727C178.986 98.947 179.143 99.7424 179.143 100.659C179.143 101.583 178.986 102.384 178.671 103.062C178.357 103.737 177.921 104.259 177.364 104.631C176.808 104.998 176.165 105.182 175.438 105.182C174.878 105.182 174.429 105.089 174.092 104.903C173.754 104.714 173.495 104.5 173.313 104.261C173.131 104.019 172.991 103.818 172.893 103.659H172.779V108.273H171.438ZM172.756 100.636C172.756 101.295 172.853 101.877 173.046 102.381C173.239 102.881 173.522 103.273 173.893 103.557C174.264 103.837 174.719 103.977 175.256 103.977C175.817 103.977 176.285 103.83 176.66 103.534C177.039 103.235 177.323 102.833 177.512 102.33C177.705 101.822 177.802 101.258 177.802 100.636C177.802 100.023 177.707 99.4697 177.518 98.9773C177.332 98.4811 177.05 98.089 176.671 97.8011C176.296 97.5095 175.825 97.3636 175.256 97.3636C174.711 97.3636 174.253 97.5019 173.881 97.7784C173.51 98.0511 173.23 98.4337 173.04 98.9261C172.851 99.4148 172.756 99.9848 172.756 100.636ZM181.188 108.273V96.2727H182.484V97.6591H182.643C182.741 97.5076 182.878 97.3144 183.052 97.0795C183.23 96.8409 183.484 96.6288 183.813 96.4432C184.147 96.2538 184.597 96.1591 185.165 96.1591C185.9 96.1591 186.548 96.3428 187.109 96.7102C187.669 97.0777 188.107 97.5985 188.421 98.2727C188.736 98.947 188.893 99.7424 188.893 100.659C188.893 101.583 188.736 102.384 188.421 103.062C188.107 103.737 187.671 104.259 187.114 104.631C186.558 104.998 185.915 105.182 185.188 105.182C184.628 105.182 184.179 105.089 183.842 104.903C183.504 104.714 183.245 104.5 183.063 104.261C182.881 104.019 182.741 103.818 182.643 103.659H182.529V108.273H181.188ZM182.506 100.636C182.506 101.295 182.603 101.877 182.796 102.381C182.989 102.881 183.272 103.273 183.643 103.557C184.014 103.837 184.469 103.977 185.006 103.977C185.567 103.977 186.035 103.83 186.41 103.534C186.789 103.235 187.073 102.833 187.262 102.33C187.455 101.822 187.552 101.258 187.552 100.636C187.552 100.023 187.457 99.4697 187.268 98.9773C187.082 98.4811 186.8 98.089 186.421 97.8011C186.046 97.5095 185.575 97.3636 185.006 97.3636C184.461 97.3636 184.003 97.5019 183.631 97.7784C183.26 98.0511 182.98 98.4337 182.79 98.9261C182.601 99.4148 182.506 99.9848 182.506 100.636ZM192.279 93.3636V105H190.938V93.3636H192.279ZM198.394 105.182C197.553 105.182 196.828 104.996 196.218 104.625C195.612 104.25 195.144 103.727 194.815 103.057C194.489 102.383 194.326 101.598 194.326 100.705C194.326 99.8106 194.489 99.0227 194.815 98.3409C195.144 97.6553 195.603 97.1212 196.19 96.7386C196.781 96.3523 197.47 96.1591 198.258 96.1591C198.712 96.1591 199.161 96.2348 199.604 96.3864C200.048 96.5379 200.451 96.7841 200.815 97.125C201.178 97.4621 201.468 97.9091 201.684 98.4659C201.9 99.0227 202.008 99.7083 202.008 100.523V101.091H195.281V99.9318H200.644C200.644 99.4394 200.546 99 200.349 98.6136C200.156 98.2273 199.879 97.9223 199.519 97.6989C199.163 97.4754 198.743 97.3636 198.258 97.3636C197.724 97.3636 197.262 97.4962 196.871 97.7614C196.485 98.0227 196.188 98.3636 195.979 98.7841C195.771 99.2045 195.667 99.6553 195.667 100.136V100.909C195.667 101.568 195.781 102.127 196.008 102.585C196.239 103.04 196.559 103.386 196.968 103.625C197.377 103.86 197.853 103.977 198.394 103.977C198.746 103.977 199.065 103.928 199.349 103.83C199.637 103.727 199.885 103.576 200.093 103.375C200.301 103.17 200.462 102.917 200.576 102.614L201.871 102.977C201.735 103.417 201.506 103.803 201.184 104.136C200.862 104.466 200.464 104.723 199.991 104.909C199.517 105.091 198.985 105.182 198.394 105.182Z" fill="white"/>
<circle cx="40" cy="99" r="132" fill="#DCDCDC" fill-opacity="0.4"/>
</g>
</g>
<defs>
<clipPath id="clip0_99_3">
<rect width="360" height="200" fill="white"/>
</clipPath>
<clipPath id="clip1_99_3">
<rect width="170" height="50" fill="white" transform="translate(95 74)"/>
</clipPath>
</defs>
</svg>
