<svg width="360" height="200" viewBox="0 0 360 200" fill="none" xmlns="http://www.w3.org/2000/svg">
<g clip-path="url(#clip0_104_5)">
<rect width="360" height="200" fill="#C6DBEF"/>
<rect x="120" y="127" width="50" height="26" rx="13" fill="#BBBBBB"/>
<circle cx="133" cy="140" r="11" fill="white"/>
<path d="M186.985 137.493C186.932 137.022 186.714 136.658 186.329 136.399C185.945 136.137 185.461 136.006 184.877 136.006C184.46 136.006 184.099 136.073 183.794 136.205C183.489 136.335 183.252 136.513 183.083 136.742C182.917 136.968 182.834 137.224 182.834 137.513C182.834 137.755 182.89 137.964 183.003 138.139C183.119 138.315 183.27 138.462 183.456 138.582C183.644 138.698 183.847 138.795 184.062 138.875C184.277 138.951 184.485 139.014 184.684 139.064L185.678 139.322C186.003 139.402 186.336 139.51 186.677 139.646C187.018 139.781 187.335 139.96 187.627 140.183C187.918 140.405 188.154 140.68 188.333 141.008C188.515 141.336 188.606 141.729 188.606 142.186C188.606 142.763 188.457 143.275 188.159 143.722C187.864 144.17 187.434 144.523 186.871 144.781C186.311 145.04 185.633 145.169 184.838 145.169C184.075 145.169 183.416 145.048 182.859 144.806C182.302 144.564 181.866 144.221 181.551 143.777C181.237 143.33 181.063 142.799 181.029 142.186H182.571C182.6 142.554 182.72 142.861 182.929 143.106C183.141 143.348 183.411 143.528 183.739 143.648C184.07 143.764 184.433 143.822 184.828 143.822C185.262 143.822 185.648 143.754 185.986 143.618C186.327 143.479 186.596 143.286 186.791 143.041C186.987 142.793 187.085 142.503 187.085 142.171C187.085 141.87 186.999 141.623 186.826 141.43C186.657 141.238 186.427 141.079 186.135 140.953C185.847 140.827 185.52 140.716 185.156 140.62L183.953 140.292C183.137 140.07 182.491 139.743 182.014 139.312C181.54 138.882 181.303 138.312 181.303 137.602C181.303 137.016 181.462 136.504 181.78 136.066C182.098 135.629 182.529 135.289 183.073 135.047C183.616 134.802 184.229 134.679 184.912 134.679C185.602 134.679 186.21 134.8 186.737 135.042C187.267 135.284 187.685 135.617 187.99 136.041C188.295 136.462 188.454 136.946 188.467 137.493H186.985ZM191.809 134.818V145H190.323V134.818H191.809ZM193.809 145V137.364H195.295V145H193.809ZM194.56 136.185C194.301 136.185 194.079 136.099 193.893 135.927C193.711 135.751 193.62 135.542 193.62 135.3C193.62 135.055 193.711 134.846 193.893 134.674C194.079 134.498 194.301 134.411 194.56 134.411C194.818 134.411 195.039 134.498 195.221 134.674C195.406 134.846 195.499 135.055 195.499 135.3C195.499 135.542 195.406 135.751 195.221 135.927C195.039 136.099 194.818 136.185 194.56 136.185ZM200.154 145.149C199.537 145.149 198.987 144.992 198.503 144.677C198.023 144.359 197.645 143.906 197.37 143.32C197.098 142.73 196.962 142.022 196.962 141.197C196.962 140.371 197.1 139.665 197.375 139.079C197.653 138.492 198.034 138.043 198.518 137.732C199.002 137.42 199.551 137.264 200.164 137.264C200.638 137.264 201.019 137.344 201.307 137.503C201.599 137.659 201.824 137.841 201.983 138.05C202.146 138.259 202.272 138.442 202.361 138.602H202.451V134.818H203.937V145H202.486V143.812H202.361C202.272 143.974 202.142 144.16 201.973 144.369C201.808 144.577 201.579 144.76 201.287 144.915C200.996 145.071 200.618 145.149 200.154 145.149ZM200.482 143.881C200.91 143.881 201.271 143.769 201.566 143.543C201.864 143.315 202.089 142.998 202.242 142.594C202.398 142.189 202.476 141.719 202.476 141.182C202.476 140.652 202.399 140.187 202.247 139.79C202.094 139.392 201.871 139.082 201.576 138.86C201.281 138.638 200.916 138.527 200.482 138.527C200.035 138.527 199.662 138.643 199.363 138.875C199.065 139.107 198.84 139.424 198.687 139.825C198.538 140.226 198.464 140.678 198.464 141.182C198.464 141.692 198.54 142.151 198.692 142.559C198.845 142.967 199.07 143.29 199.368 143.528C199.67 143.764 200.041 143.881 200.482 143.881ZM209.35 145.154C208.598 145.154 207.95 144.993 207.406 144.672C206.866 144.347 206.448 143.891 206.153 143.305C205.862 142.715 205.716 142.024 205.716 141.232C205.716 140.449 205.862 139.76 206.153 139.163C206.448 138.567 206.859 138.101 207.386 137.766C207.917 137.432 208.536 137.264 209.246 137.264C209.677 137.264 210.094 137.335 210.498 137.478C210.903 137.621 211.266 137.844 211.587 138.149C211.909 138.454 212.162 138.85 212.348 139.337C212.534 139.821 212.626 140.41 212.626 141.102V141.629H206.556V140.516H211.17C211.17 140.125 211.09 139.778 210.931 139.477C210.772 139.172 210.548 138.931 210.26 138.756C209.975 138.58 209.64 138.492 209.256 138.492C208.838 138.492 208.473 138.595 208.162 138.8C207.854 139.003 207.615 139.268 207.446 139.596C207.28 139.921 207.197 140.274 207.197 140.655V141.525C207.197 142.035 207.287 142.469 207.466 142.827C207.648 143.185 207.902 143.459 208.226 143.648C208.551 143.833 208.931 143.926 209.365 143.926C209.647 143.926 209.904 143.886 210.136 143.807C210.368 143.724 210.568 143.601 210.737 143.439C210.906 143.277 211.035 143.076 211.125 142.837L212.532 143.091C212.419 143.505 212.217 143.868 211.925 144.18C211.637 144.488 211.274 144.728 210.837 144.901C210.402 145.07 209.907 145.154 209.35 145.154ZM217.981 145V137.364H219.408V138.607H219.502C219.661 138.186 219.921 137.857 220.283 137.622C220.644 137.384 221.076 137.264 221.58 137.264C222.091 137.264 222.518 137.384 222.863 137.622C223.211 137.861 223.468 138.189 223.633 138.607H223.713C223.895 138.199 224.185 137.874 224.583 137.632C224.981 137.387 225.455 137.264 226.005 137.264C226.698 137.264 227.263 137.481 227.7 137.915C228.141 138.35 228.361 139.004 228.361 139.879V145H226.875V140.018C226.875 139.501 226.734 139.127 226.452 138.895C226.171 138.663 225.834 138.547 225.443 138.547C224.959 138.547 224.583 138.696 224.315 138.994C224.046 139.289 223.912 139.669 223.912 140.133V145H222.43V139.924C222.43 139.51 222.301 139.177 222.043 138.925C221.784 138.673 221.448 138.547 221.033 138.547C220.752 138.547 220.491 138.621 220.253 138.771C220.017 138.916 219.827 139.12 219.681 139.382C219.539 139.644 219.467 139.947 219.467 140.292V145H217.981ZM233.645 145.154C232.893 145.154 232.245 144.993 231.701 144.672C231.161 144.347 230.743 143.891 230.448 143.305C230.157 142.715 230.011 142.024 230.011 141.232C230.011 140.449 230.157 139.76 230.448 139.163C230.743 138.567 231.154 138.101 231.681 137.766C232.211 137.432 232.831 137.264 233.541 137.264C233.971 137.264 234.389 137.335 234.793 137.478C235.198 137.621 235.561 137.844 235.882 138.149C236.204 138.454 236.457 138.85 236.643 139.337C236.828 139.821 236.921 140.41 236.921 141.102V141.629H230.851V140.516H235.465C235.465 140.125 235.385 139.778 235.226 139.477C235.067 139.172 234.843 138.931 234.555 138.756C234.27 138.58 233.935 138.492 233.551 138.492C233.133 138.492 232.768 138.595 232.457 138.8C232.149 139.003 231.91 139.268 231.741 139.596C231.575 139.921 231.492 140.274 231.492 140.655V141.525C231.492 142.035 231.582 142.469 231.761 142.827C231.943 143.185 232.197 143.459 232.521 143.648C232.846 143.833 233.226 143.926 233.66 143.926C233.942 143.926 234.198 143.886 234.43 143.807C234.662 143.724 234.863 143.601 235.032 143.439C235.201 143.277 235.33 143.076 235.42 142.837L236.827 143.091C236.714 143.505 236.512 143.868 236.22 144.18C235.932 144.488 235.569 144.728 235.131 144.901C234.697 145.07 234.202 145.154 233.645 145.154ZM240.445 134.818L240.316 142.072H238.938L238.809 134.818H240.445ZM239.63 145.094C239.354 145.094 239.119 144.998 238.924 144.806C238.728 144.611 238.632 144.375 238.635 144.1C238.632 143.828 238.728 143.596 238.924 143.404C239.119 143.209 239.354 143.111 239.63 143.111C239.898 143.111 240.13 143.209 240.326 143.404C240.521 143.596 240.621 143.828 240.624 144.1C240.621 144.282 240.572 144.45 240.48 144.602C240.39 144.751 240.271 144.871 240.122 144.96C239.973 145.05 239.809 145.094 239.63 145.094Z" fill="black"/>
<rect x="192" y="87" width="50" height="26" rx="13" fill="#1A7FDC"/>
<circle cx="229" cy="100" r="11" fill="white"/>
<path d="M126.985 97.4929C126.932 97.0223 126.714 96.6577 126.329 96.3991C125.945 96.1373 125.461 96.0064 124.877 96.0064C124.46 96.0064 124.099 96.0727 123.794 96.2053C123.489 96.3345 123.252 96.5135 123.083 96.7422C122.917 96.9676 122.834 97.2244 122.834 97.5128C122.834 97.7547 122.89 97.9635 123.003 98.1392C123.119 98.3149 123.27 98.4624 123.456 98.5817C123.644 98.6977 123.847 98.7955 124.062 98.875C124.277 98.9512 124.485 99.0142 124.684 99.0639L125.678 99.3224C126.003 99.402 126.336 99.5097 126.677 99.6456C127.018 99.7815 127.335 99.9605 127.627 100.183C127.918 100.405 128.154 100.68 128.333 101.008C128.515 101.336 128.606 101.729 128.606 102.186C128.606 102.763 128.457 103.275 128.159 103.722C127.864 104.17 127.434 104.523 126.871 104.781C126.311 105.04 125.633 105.169 124.838 105.169C124.075 105.169 123.416 105.048 122.859 104.806C122.302 104.564 121.866 104.221 121.551 103.777C121.237 103.33 121.063 102.799 121.029 102.186H122.571C122.6 102.554 122.72 102.861 122.929 103.106C123.141 103.348 123.411 103.528 123.739 103.648C124.07 103.764 124.433 103.822 124.828 103.822C125.262 103.822 125.648 103.754 125.986 103.618C126.327 103.479 126.596 103.286 126.791 103.041C126.987 102.793 127.085 102.503 127.085 102.171C127.085 101.87 126.999 101.623 126.826 101.43C126.657 101.238 126.427 101.079 126.135 100.953C125.847 100.827 125.52 100.716 125.156 100.62L123.953 100.292C123.137 100.07 122.491 99.7434 122.014 99.3125C121.54 98.8816 121.303 98.3116 121.303 97.6023C121.303 97.0156 121.462 96.5036 121.78 96.0661C122.098 95.6286 122.529 95.2888 123.073 95.0469C123.616 94.8016 124.229 94.679 124.912 94.679C125.602 94.679 126.21 94.8 126.737 95.0419C127.267 95.2839 127.685 95.617 127.99 96.0412C128.295 96.4621 128.454 96.946 128.467 97.4929H126.985ZM131.809 94.8182V105H130.323V94.8182H131.809ZM133.809 105V97.3636H135.295V105H133.809ZM134.56 96.1854C134.301 96.1854 134.079 96.0992 133.893 95.9268C133.711 95.7512 133.62 95.5424 133.62 95.3004C133.62 95.0552 133.711 94.8464 133.893 94.674C134.079 94.4983 134.301 94.4105 134.56 94.4105C134.818 94.4105 135.039 94.4983 135.221 94.674C135.406 94.8464 135.499 95.0552 135.499 95.3004C135.499 95.5424 135.406 95.7512 135.221 95.9268C135.039 96.0992 134.818 96.1854 134.56 96.1854ZM140.154 105.149C139.537 105.149 138.987 104.992 138.503 104.677C138.023 104.359 137.645 103.906 137.37 103.32C137.098 102.73 136.962 102.022 136.962 101.197C136.962 100.371 137.1 99.6655 137.375 99.0788C137.653 98.4922 138.034 98.0431 138.518 97.7315C139.002 97.42 139.551 97.2642 140.164 97.2642C140.638 97.2642 141.019 97.3438 141.307 97.5028C141.599 97.6586 141.824 97.8409 141.983 98.0497C142.146 98.2585 142.272 98.4425 142.361 98.6016H142.451V94.8182H143.937V105H142.486V103.812H142.361C142.272 103.974 142.142 104.16 141.973 104.369C141.808 104.577 141.579 104.76 141.287 104.915C140.996 105.071 140.618 105.149 140.154 105.149ZM140.482 103.881C140.91 103.881 141.271 103.769 141.566 103.543C141.864 103.315 142.089 102.998 142.242 102.594C142.398 102.189 142.476 101.719 142.476 101.182C142.476 100.652 142.399 100.187 142.247 99.7898C142.094 99.392 141.871 99.0821 141.576 98.8601C141.281 98.638 140.916 98.527 140.482 98.527C140.035 98.527 139.662 98.643 139.363 98.875C139.065 99.107 138.84 99.4235 138.687 99.8246C138.538 100.226 138.464 100.678 138.464 101.182C138.464 101.692 138.54 102.151 138.692 102.559C138.845 102.967 139.07 103.29 139.368 103.528C139.67 103.764 140.041 103.881 140.482 103.881ZM149.35 105.154C148.598 105.154 147.95 104.993 147.406 104.672C146.866 104.347 146.448 103.891 146.153 103.305C145.862 102.715 145.716 102.024 145.716 101.232C145.716 100.449 145.862 99.7599 146.153 99.1634C146.448 98.5668 146.859 98.1011 147.386 97.7663C147.917 97.4316 148.536 97.2642 149.246 97.2642C149.677 97.2642 150.094 97.3355 150.498 97.478C150.903 97.6205 151.266 97.8442 151.587 98.1491C151.909 98.4541 152.162 98.8501 152.348 99.3374C152.534 99.8213 152.626 100.41 152.626 101.102V101.629H146.556V100.516H151.17C151.17 100.125 151.09 99.7782 150.931 99.4766C150.772 99.1716 150.548 98.9313 150.26 98.7557C149.975 98.58 149.64 98.4922 149.256 98.4922C148.838 98.4922 148.473 98.5949 148.162 98.8004C147.854 99.0026 147.615 99.2678 147.446 99.5959C147.28 99.9207 147.197 100.274 147.197 100.655V101.525C147.197 102.035 147.287 102.469 147.466 102.827C147.648 103.185 147.902 103.459 148.226 103.648C148.551 103.833 148.931 103.926 149.365 103.926C149.647 103.926 149.904 103.886 150.136 103.807C150.368 103.724 150.568 103.601 150.737 103.439C150.906 103.277 151.035 103.076 151.125 102.837L152.532 103.091C152.419 103.505 152.217 103.868 151.925 104.18C151.637 104.488 151.274 104.728 150.837 104.901C150.402 105.07 149.907 105.154 149.35 105.154ZM157.981 105V97.3636H159.408V98.6065H159.502C159.661 98.1856 159.921 97.8575 160.283 97.6222C160.644 97.3835 161.076 97.2642 161.58 97.2642C162.091 97.2642 162.518 97.3835 162.863 97.6222C163.211 97.8608 163.468 98.1889 163.633 98.6065H163.713C163.895 98.1989 164.185 97.8741 164.583 97.6321C164.981 97.3868 165.455 97.2642 166.005 97.2642C166.698 97.2642 167.263 97.4813 167.7 97.9155C168.141 98.3497 168.361 99.0043 168.361 99.8793V105H166.875V100.018C166.875 99.5014 166.734 99.1269 166.452 98.8949C166.171 98.6629 165.834 98.5469 165.443 98.5469C164.959 98.5469 164.583 98.696 164.315 98.9943C164.046 99.2893 163.912 99.6688 163.912 100.133V105H162.43V99.924C162.43 99.5097 162.301 99.1766 162.043 98.9247C161.784 98.6728 161.448 98.5469 161.033 98.5469C160.752 98.5469 160.491 98.6214 160.253 98.7706C160.017 98.9164 159.827 99.1203 159.681 99.3821C159.539 99.6439 159.467 99.9472 159.467 100.292V105H157.981ZM173.645 105.154C172.893 105.154 172.245 104.993 171.701 104.672C171.161 104.347 170.743 103.891 170.448 103.305C170.157 102.715 170.011 102.024 170.011 101.232C170.011 100.449 170.157 99.7599 170.448 99.1634C170.743 98.5668 171.154 98.1011 171.681 97.7663C172.211 97.4316 172.831 97.2642 173.541 97.2642C173.971 97.2642 174.389 97.3355 174.793 97.478C175.198 97.6205 175.561 97.8442 175.882 98.1491C176.204 98.4541 176.457 98.8501 176.643 99.3374C176.828 99.8213 176.921 100.41 176.921 101.102V101.629H170.851V100.516H175.465C175.465 100.125 175.385 99.7782 175.226 99.4766C175.067 99.1716 174.843 98.9313 174.555 98.7557C174.27 98.58 173.935 98.4922 173.551 98.4922C173.133 98.4922 172.768 98.5949 172.457 98.8004C172.149 99.0026 171.91 99.2678 171.741 99.5959C171.575 99.9207 171.492 100.274 171.492 100.655V101.525C171.492 102.035 171.582 102.469 171.761 102.827C171.943 103.185 172.197 103.459 172.521 103.648C172.846 103.833 173.226 103.926 173.66 103.926C173.942 103.926 174.198 103.886 174.43 103.807C174.662 103.724 174.863 103.601 175.032 103.439C175.201 103.277 175.33 103.076 175.42 102.837L176.827 103.091C176.714 103.505 176.512 103.868 176.22 104.18C175.932 104.488 175.569 104.728 175.131 104.901C174.697 105.07 174.202 105.154 173.645 105.154ZM180.445 94.8182L180.316 102.072H178.938L178.809 94.8182H180.445ZM179.63 105.094C179.354 105.094 179.119 104.998 178.924 104.806C178.728 104.611 178.632 104.375 178.635 104.1C178.632 103.828 178.728 103.596 178.924 103.404C179.119 103.209 179.354 103.111 179.63 103.111C179.898 103.111 180.13 103.209 180.326 103.404C180.521 103.596 180.621 103.828 180.624 104.1C180.621 104.282 180.572 104.45 180.48 104.602C180.39 104.751 180.271 104.871 180.122 104.96C179.973 105.05 179.809 105.094 179.63 105.094Z" fill="black"/>
<rect x="118" y="47" width="50" height="26" rx="13" fill="#BBBBBB"/>
<circle cx="131" cy="60" r="11" fill="white"/>
<path d="M184.985 57.4929C184.932 57.0223 184.714 56.6577 184.329 56.3991C183.945 56.1373 183.461 56.0064 182.877 56.0064C182.46 56.0064 182.099 56.0727 181.794 56.2053C181.489 56.3345 181.252 56.5135 181.083 56.7422C180.917 56.9676 180.834 57.2244 180.834 57.5128C180.834 57.7547 180.89 57.9635 181.003 58.1392C181.119 58.3149 181.27 58.4624 181.456 58.5817C181.644 58.6977 181.847 58.7955 182.062 58.875C182.277 58.9512 182.485 59.0142 182.684 59.0639L183.678 59.3224C184.003 59.402 184.336 59.5097 184.677 59.6456C185.018 59.7815 185.335 59.9605 185.627 60.1825C185.918 60.4046 186.154 60.6797 186.333 61.0078C186.515 61.3359 186.606 61.7287 186.606 62.1861C186.606 62.7628 186.457 63.2749 186.159 63.7223C185.864 64.1697 185.434 64.5227 184.871 64.7812C184.311 65.0398 183.633 65.169 182.838 65.169C182.075 65.169 181.416 65.0481 180.859 64.8061C180.302 64.5642 179.866 64.2211 179.551 63.777C179.237 63.3295 179.063 62.7992 179.029 62.1861H180.571C180.6 62.554 180.72 62.8606 180.929 63.1058C181.141 63.3478 181.411 63.5284 181.739 63.6477C182.07 63.7637 182.433 63.8217 182.828 63.8217C183.262 63.8217 183.648 63.7538 183.986 63.6179C184.327 63.4787 184.596 63.2865 184.791 63.0412C184.987 62.7926 185.085 62.5026 185.085 62.1712C185.085 61.8696 184.999 61.6226 184.826 61.4304C184.657 61.2382 184.427 61.0791 184.135 60.9531C183.847 60.8272 183.52 60.7161 183.156 60.62L181.953 60.2919C181.137 60.0698 180.491 59.7434 180.014 59.3125C179.54 58.8816 179.303 58.3116 179.303 57.6023C179.303 57.0156 179.462 56.5036 179.78 56.0661C180.098 55.6286 180.529 55.2888 181.073 55.0469C181.616 54.8016 182.229 54.679 182.912 54.679C183.602 54.679 184.21 54.8 184.737 55.0419C185.267 55.2839 185.685 55.617 185.99 56.0412C186.295 56.4621 186.454 56.946 186.467 57.4929H184.985ZM189.809 54.8182V65H188.323V54.8182H189.809ZM191.809 65V57.3636H193.295V65H191.809ZM192.56 56.1854C192.301 56.1854 192.079 56.0992 191.893 55.9268C191.711 55.7512 191.62 55.5424 191.62 55.3004C191.62 55.0552 191.711 54.8464 191.893 54.674C192.079 54.4983 192.301 54.4105 192.56 54.4105C192.818 54.4105 193.039 54.4983 193.221 54.674C193.406 54.8464 193.499 55.0552 193.499 55.3004C193.499 55.5424 193.406 55.7512 193.221 55.9268C193.039 56.0992 192.818 56.1854 192.56 56.1854ZM198.154 65.1491C197.537 65.1491 196.987 64.9917 196.503 64.6768C196.023 64.3587 195.645 63.9062 195.37 63.3196C195.098 62.7296 194.962 62.022 194.962 61.1967C194.962 60.3714 195.1 59.6655 195.375 59.0788C195.653 58.4922 196.034 58.0431 196.518 57.7315C197.002 57.42 197.551 57.2642 198.164 57.2642C198.638 57.2642 199.019 57.3438 199.307 57.5028C199.599 57.6586 199.824 57.8409 199.983 58.0497C200.146 58.2585 200.272 58.4425 200.361 58.6016H200.451V54.8182H201.937V65H200.486V63.8118H200.361C200.272 63.9742 200.142 64.1598 199.973 64.3686C199.808 64.5774 199.579 64.7597 199.287 64.9155C198.996 65.0713 198.618 65.1491 198.154 65.1491ZM198.482 63.8814C198.91 63.8814 199.271 63.7687 199.566 63.5433C199.864 63.3146 200.089 62.9981 200.242 62.5938C200.398 62.1894 200.476 61.7187 200.476 61.1818C200.476 60.6515 200.399 60.1875 200.247 59.7898C200.094 59.392 199.871 59.0821 199.576 58.8601C199.281 58.638 198.916 58.527 198.482 58.527C198.035 58.527 197.662 58.643 197.363 58.875C197.065 59.107 196.84 59.4235 196.687 59.8246C196.538 60.2256 196.464 60.678 196.464 61.1818C196.464 61.6922 196.54 62.1513 196.692 62.5589C196.845 62.9666 197.07 63.2898 197.368 63.5284C197.67 63.7637 198.041 63.8814 198.482 63.8814ZM207.35 65.1541C206.598 65.1541 205.95 64.9934 205.406 64.6719C204.866 64.3471 204.448 63.8913 204.153 63.3047C203.862 62.7147 203.716 62.0237 203.716 61.2315C203.716 60.4493 203.862 59.7599 204.153 59.1634C204.448 58.5668 204.859 58.1011 205.386 57.7663C205.917 57.4316 206.536 57.2642 207.246 57.2642C207.677 57.2642 208.094 57.3355 208.498 57.478C208.903 57.6205 209.266 57.8442 209.587 58.1491C209.909 58.4541 210.162 58.8501 210.348 59.3374C210.534 59.8213 210.626 60.4096 210.626 61.1023V61.6293H204.556V60.5156H209.17C209.17 60.1245 209.09 59.7782 208.931 59.4766C208.772 59.1716 208.548 58.9313 208.26 58.7557C207.975 58.58 207.64 58.4922 207.256 58.4922C206.838 58.4922 206.473 58.5949 206.162 58.8004C205.854 59.0026 205.615 59.2678 205.446 59.5959C205.28 59.9207 205.197 60.2737 205.197 60.6548V61.5249C205.197 62.0353 205.287 62.4695 205.466 62.8274C205.648 63.1854 205.902 63.4588 206.226 63.6477C206.551 63.8333 206.931 63.9261 207.365 63.9261C207.647 63.9261 207.904 63.8864 208.136 63.8068C208.368 63.724 208.568 63.6013 208.737 63.4389C208.906 63.2765 209.035 63.076 209.125 62.8374L210.532 63.0909C210.419 63.5052 210.217 63.8681 209.925 64.1797C209.637 64.4879 209.274 64.7282 208.837 64.9006C208.402 65.0696 207.907 65.1541 207.35 65.1541ZM215.981 65V57.3636H217.408V58.6065H217.502C217.661 58.1856 217.921 57.8575 218.283 57.6222C218.644 57.3835 219.076 57.2642 219.58 57.2642C220.091 57.2642 220.518 57.3835 220.863 57.6222C221.211 57.8608 221.468 58.1889 221.633 58.6065H221.713C221.895 58.1989 222.185 57.8741 222.583 57.6321C222.981 57.3868 223.455 57.2642 224.005 57.2642C224.698 57.2642 225.263 57.4813 225.7 57.9155C226.141 58.3497 226.361 59.0043 226.361 59.8793V65H224.875V60.0185C224.875 59.5014 224.734 59.1269 224.452 58.8949C224.171 58.6629 223.834 58.5469 223.443 58.5469C222.959 58.5469 222.583 58.696 222.315 58.9943C222.046 59.2893 221.912 59.6688 221.912 60.1328V65H220.43V59.924C220.43 59.5097 220.301 59.1766 220.043 58.9247C219.784 58.6728 219.448 58.5469 219.033 58.5469C218.752 58.5469 218.491 58.6214 218.253 58.7706C218.017 58.9164 217.827 59.1203 217.681 59.3821C217.539 59.6439 217.467 59.9472 217.467 60.2919V65H215.981ZM231.645 65.1541C230.893 65.1541 230.245 64.9934 229.701 64.6719C229.161 64.3471 228.743 63.8913 228.448 63.3047C228.157 62.7147 228.011 62.0237 228.011 61.2315C228.011 60.4493 228.157 59.7599 228.448 59.1634C228.743 58.5668 229.154 58.1011 229.681 57.7663C230.211 57.4316 230.831 57.2642 231.541 57.2642C231.971 57.2642 232.389 57.3355 232.793 57.478C233.198 57.6205 233.561 57.8442 233.882 58.1491C234.204 58.4541 234.457 58.8501 234.643 59.3374C234.828 59.8213 234.921 60.4096 234.921 61.1023V61.6293H228.851V60.5156H233.465C233.465 60.1245 233.385 59.7782 233.226 59.4766C233.067 59.1716 232.843 58.9313 232.555 58.7557C232.27 58.58 231.935 58.4922 231.551 58.4922C231.133 58.4922 230.768 58.5949 230.457 58.8004C230.149 59.0026 229.91 59.2678 229.741 59.5959C229.575 59.9207 229.492 60.2737 229.492 60.6548V61.5249C229.492 62.0353 229.582 62.4695 229.761 62.8274C229.943 63.1854 230.197 63.4588 230.521 63.6477C230.846 63.8333 231.226 63.9261 231.66 63.9261C231.942 63.9261 232.198 63.8864 232.43 63.8068C232.662 63.724 232.863 63.6013 233.032 63.4389C233.201 63.2765 233.33 63.076 233.42 62.8374L234.827 63.0909C234.714 63.5052 234.512 63.8681 234.22 64.1797C233.932 64.4879 233.569 64.7282 233.131 64.9006C232.697 65.0696 232.202 65.1541 231.645 65.1541ZM238.445 54.8182L238.316 62.0717H236.938L236.809 54.8182H238.445ZM237.63 65.0945C237.354 65.0945 237.119 64.9983 236.924 64.8061C236.728 64.6106 236.632 64.3752 236.635 64.1001C236.632 63.8284 236.728 63.5964 236.924 63.4041C237.119 63.2086 237.354 63.1108 237.63 63.1108C237.898 63.1108 238.13 63.2086 238.326 63.4041C238.521 63.5964 238.621 63.8284 238.624 64.1001C238.621 64.2824 238.572 64.4498 238.48 64.6023C238.39 64.7514 238.271 64.8707 238.122 64.9602C237.973 65.0497 237.809 65.0945 237.63 65.0945Z" fill="black"/>
</g>
<defs>
<clipPath id="clip0_104_5">
<rect width="360" height="200" fill="white"/>
</clipPath>
</defs>
</svg>
