<svg width="360" height="200" viewBox="0 0 360 200" fill="none" xmlns="http://www.w3.org/2000/svg">
<g clip-path="url(#clip0_166_6)">
<rect width="360" height="200" fill="#C6DBEF"/>
<g filter="url(#filter0_d_166_6)">
<rect x="30" y="24" width="300" height="70" rx="5" fill="white"/>
</g>
<path d="M302.4 56L301 54.6L306.6 49L301 43.4L302.4 42L308 47.6L313.6 42L315 43.4L309.4 49L315 54.6L313.6 56L308 50.4L302.4 56Z" fill="#333333"/>
<path d="M30 29C30 26.2386 32.2386 24 35 24V24V94V94C32.2386 94 30 91.7614 30 89V29Z" fill="#47D669"/>
<circle cx="57" cy="49" r="12" fill="#47D669"/>
<path d="M55.1627 53.5L50.8877 49.225L51.9564 48.1562L55.1627 51.3625L62.0439 44.4812L63.1127 45.55L55.1627 53.5Z" fill="white"/>
<path d="M85.9375 51.0234C85.9375 50.8203 85.9062 50.638 85.8438 50.4766C85.7865 50.3099 85.6771 50.1589 85.5156 50.0234C85.3542 49.8828 85.1276 49.7448 84.8359 49.6094C84.5443 49.474 84.1667 49.3333 83.7031 49.1875C83.1875 49.0208 82.6979 48.8333 82.2344 48.625C81.776 48.4167 81.3698 48.1745 81.0156 47.8984C80.6667 47.6172 80.3906 47.2917 80.1875 46.9219C79.9896 46.5521 79.8906 46.1224 79.8906 45.6328C79.8906 45.1589 79.9948 44.7292 80.2031 44.3438C80.4115 43.9531 80.7031 43.6198 81.0781 43.3438C81.4531 43.0625 81.8958 42.8464 82.4062 42.6953C82.9219 42.5443 83.487 42.4688 84.1016 42.4688C84.9401 42.4688 85.6719 42.6198 86.2969 42.9219C86.9219 43.224 87.4062 43.638 87.75 44.1641C88.099 44.6901 88.2734 45.2917 88.2734 45.9688H85.9453C85.9453 45.6354 85.875 45.3438 85.7344 45.0938C85.599 44.8385 85.3906 44.638 85.1094 44.4922C84.8333 44.3464 84.4844 44.2734 84.0625 44.2734C83.6562 44.2734 83.3177 44.3359 83.0469 44.4609C82.776 44.5807 82.5729 44.7448 82.4375 44.9531C82.3021 45.1562 82.2344 45.3854 82.2344 45.6406C82.2344 45.8333 82.2812 46.0078 82.375 46.1641C82.474 46.3203 82.6198 46.4661 82.8125 46.6016C83.0052 46.737 83.2422 46.8646 83.5234 46.9844C83.8047 47.1042 84.1302 47.2214 84.5 47.3359C85.1198 47.5234 85.6641 47.7344 86.1328 47.9688C86.6068 48.2031 87.0026 48.4661 87.3203 48.7578C87.638 49.0495 87.8776 49.3802 88.0391 49.75C88.2005 50.1198 88.2812 50.5391 88.2812 51.0078C88.2812 51.5026 88.1849 51.9453 87.9922 52.3359C87.7995 52.7266 87.5208 53.0573 87.1562 53.3281C86.7917 53.599 86.3568 53.8047 85.8516 53.9453C85.3464 54.0859 84.7812 54.1562 84.1562 54.1562C83.5938 54.1562 83.0391 54.0833 82.4922 53.9375C81.9453 53.7865 81.4479 53.5599 81 53.2578C80.5573 52.9557 80.2031 52.5703 79.9375 52.1016C79.6719 51.6328 79.5391 51.0781 79.5391 50.4375H81.8906C81.8906 50.7917 81.9453 51.0911 82.0547 51.3359C82.1641 51.5807 82.3177 51.7786 82.5156 51.9297C82.7188 52.0807 82.9583 52.1901 83.2344 52.2578C83.5156 52.3255 83.8229 52.3594 84.1562 52.3594C84.5625 52.3594 84.8958 52.3021 85.1562 52.1875C85.4219 52.0729 85.6172 51.9141 85.7422 51.7109C85.8724 51.5078 85.9375 51.2786 85.9375 51.0234ZM94.7344 51.9766V45.5469H96.9844V54H94.8672L94.7344 51.9766ZM94.9844 50.2422L95.6484 50.2266C95.6484 50.7891 95.5833 51.3125 95.4531 51.7969C95.3229 52.276 95.1276 52.6927 94.8672 53.0469C94.6068 53.3958 94.2786 53.6693 93.8828 53.8672C93.487 54.0599 93.0208 54.1562 92.4844 54.1562C92.0729 54.1562 91.6927 54.099 91.3438 53.9844C91 53.8646 90.7031 53.6797 90.4531 53.4297C90.2083 53.1745 90.0156 52.849 89.875 52.4531C89.7396 52.0521 89.6719 51.5703 89.6719 51.0078V45.5469H91.9219V51.0234C91.9219 51.2734 91.9505 51.4844 92.0078 51.6562C92.0703 51.8281 92.1562 51.9688 92.2656 52.0781C92.375 52.1875 92.5026 52.2656 92.6484 52.3125C92.7995 52.3594 92.9661 52.3828 93.1484 52.3828C93.612 52.3828 93.9766 52.2891 94.2422 52.1016C94.513 51.9141 94.7031 51.6589 94.8125 51.3359C94.9271 51.0078 94.9844 50.6432 94.9844 50.2422ZM102.195 52.3984C102.471 52.3984 102.716 52.3464 102.93 52.2422C103.143 52.1328 103.31 51.9818 103.43 51.7891C103.555 51.5911 103.62 51.3594 103.625 51.0938H105.742C105.737 51.6875 105.578 52.2161 105.266 52.6797C104.953 53.138 104.534 53.5 104.008 53.7656C103.482 54.026 102.893 54.1562 102.242 54.1562C101.586 54.1562 101.013 54.0469 100.523 53.8281C100.039 53.6094 99.6354 53.3073 99.3125 52.9219C98.9896 52.5312 98.7474 52.0781 98.5859 51.5625C98.4245 51.0417 98.3438 50.4844 98.3438 49.8906V49.6641C98.3438 49.0651 98.4245 48.5078 98.5859 47.9922C98.7474 47.4714 98.9896 47.0182 99.3125 46.6328C99.6354 46.2422 100.039 45.9375 100.523 45.7188C101.008 45.5 101.576 45.3906 102.227 45.3906C102.919 45.3906 103.526 45.5234 104.047 45.7891C104.573 46.0547 104.984 46.4349 105.281 46.9297C105.583 47.4193 105.737 48 105.742 48.6719H103.625C103.62 48.3906 103.56 48.1354 103.445 47.9062C103.336 47.6771 103.174 47.4948 102.961 47.3594C102.753 47.2188 102.495 47.1484 102.188 47.1484C101.859 47.1484 101.591 47.2188 101.383 47.3594C101.174 47.4948 101.013 47.6823 100.898 47.9219C100.784 48.1562 100.703 48.4245 100.656 48.7266C100.615 49.0234 100.594 49.3359 100.594 49.6641V49.8906C100.594 50.2188 100.615 50.5339 100.656 50.8359C100.698 51.138 100.776 51.4062 100.891 51.6406C101.01 51.875 101.174 52.0599 101.383 52.1953C101.591 52.3307 101.862 52.3984 102.195 52.3984ZM110.539 52.3984C110.815 52.3984 111.06 52.3464 111.273 52.2422C111.487 52.1328 111.654 51.9818 111.773 51.7891C111.898 51.5911 111.964 51.3594 111.969 51.0938H114.086C114.081 51.6875 113.922 52.2161 113.609 52.6797C113.297 53.138 112.878 53.5 112.352 53.7656C111.826 54.026 111.237 54.1562 110.586 54.1562C109.93 54.1562 109.357 54.0469 108.867 53.8281C108.383 53.6094 107.979 53.3073 107.656 52.9219C107.333 52.5312 107.091 52.0781 106.93 51.5625C106.768 51.0417 106.688 50.4844 106.688 49.8906V49.6641C106.688 49.0651 106.768 48.5078 106.93 47.9922C107.091 47.4714 107.333 47.0182 107.656 46.6328C107.979 46.2422 108.383 45.9375 108.867 45.7188C109.352 45.5 109.919 45.3906 110.57 45.3906C111.263 45.3906 111.87 45.5234 112.391 45.7891C112.917 46.0547 113.328 46.4349 113.625 46.9297C113.927 47.4193 114.081 48 114.086 48.6719H111.969C111.964 48.3906 111.904 48.1354 111.789 47.9062C111.68 47.6771 111.518 47.4948 111.305 47.3594C111.096 47.2188 110.839 47.1484 110.531 47.1484C110.203 47.1484 109.935 47.2188 109.727 47.3594C109.518 47.4948 109.357 47.6823 109.242 47.9219C109.128 48.1562 109.047 48.4245 109 48.7266C108.958 49.0234 108.938 49.3359 108.938 49.6641V49.8906C108.938 50.2188 108.958 50.5339 109 50.8359C109.042 51.138 109.12 51.4062 109.234 51.6406C109.354 51.875 109.518 52.0599 109.727 52.1953C109.935 52.3307 110.206 52.3984 110.539 52.3984ZM119.281 54.1562C118.625 54.1562 118.036 54.0521 117.516 53.8438C116.995 53.6302 116.552 53.3359 116.188 52.9609C115.828 52.5859 115.552 52.151 115.359 51.6562C115.167 51.1562 115.07 50.625 115.07 50.0625V49.75C115.07 49.1094 115.161 48.5234 115.344 47.9922C115.526 47.4609 115.786 47 116.125 46.6094C116.469 46.2188 116.885 45.9193 117.375 45.7109C117.865 45.4974 118.417 45.3906 119.031 45.3906C119.63 45.3906 120.161 45.4896 120.625 45.6875C121.089 45.8854 121.477 46.1667 121.789 46.5312C122.107 46.8958 122.346 47.3333 122.508 47.8438C122.669 48.349 122.75 48.9115 122.75 49.5312V50.4688H116.031V48.9688H120.539V48.7969C120.539 48.4844 120.482 48.2057 120.367 47.9609C120.258 47.7109 120.091 47.513 119.867 47.3672C119.643 47.2214 119.357 47.1484 119.008 47.1484C118.711 47.1484 118.456 47.2135 118.242 47.3438C118.029 47.474 117.854 47.6562 117.719 47.8906C117.589 48.125 117.49 48.401 117.422 48.7188C117.359 49.0312 117.328 49.375 117.328 49.75V50.0625C117.328 50.401 117.375 50.7135 117.469 51C117.568 51.2865 117.706 51.5339 117.883 51.7422C118.065 51.9505 118.284 52.112 118.539 52.2266C118.799 52.3411 119.094 52.3984 119.422 52.3984C119.828 52.3984 120.206 52.3203 120.555 52.1641C120.909 52.0026 121.214 51.7604 121.469 51.4375L122.562 52.625C122.385 52.8802 122.143 53.125 121.836 53.3594C121.534 53.5938 121.169 53.7865 120.742 53.9375C120.315 54.0833 119.828 54.1562 119.281 54.1562ZM128.602 51.6641C128.602 51.5026 128.555 51.3568 128.461 51.2266C128.367 51.0964 128.193 50.9766 127.938 50.8672C127.688 50.7526 127.326 50.6484 126.852 50.5547C126.424 50.4609 126.026 50.3438 125.656 50.2031C125.292 50.0573 124.974 49.8828 124.703 49.6797C124.438 49.4766 124.229 49.237 124.078 48.9609C123.927 48.6797 123.852 48.3594 123.852 48C123.852 47.6458 123.927 47.3125 124.078 47C124.234 46.6875 124.456 46.4115 124.742 46.1719C125.034 45.9271 125.388 45.737 125.805 45.6016C126.227 45.4609 126.701 45.3906 127.227 45.3906C127.961 45.3906 128.591 45.5078 129.117 45.7422C129.648 45.9766 130.055 46.2995 130.336 46.7109C130.622 47.1172 130.766 47.5807 130.766 48.1016H128.516C128.516 47.8828 128.469 47.6875 128.375 47.5156C128.286 47.3385 128.146 47.2005 127.953 47.1016C127.766 46.9974 127.521 46.9453 127.219 46.9453C126.969 46.9453 126.753 46.9896 126.57 47.0781C126.388 47.1615 126.247 47.276 126.148 47.4219C126.055 47.5625 126.008 47.7188 126.008 47.8906C126.008 48.0208 126.034 48.138 126.086 48.2422C126.143 48.3411 126.234 48.4323 126.359 48.5156C126.484 48.599 126.646 48.6771 126.844 48.75C127.047 48.8177 127.297 48.8802 127.594 48.9375C128.203 49.0625 128.747 49.2266 129.227 49.4297C129.706 49.6276 130.086 49.8984 130.367 50.2422C130.648 50.5807 130.789 51.026 130.789 51.5781C130.789 51.9531 130.706 52.2969 130.539 52.6094C130.372 52.9219 130.133 53.1953 129.82 53.4297C129.508 53.6589 129.133 53.8385 128.695 53.9688C128.263 54.0938 127.776 54.1562 127.234 54.1562C126.448 54.1562 125.781 54.0156 125.234 53.7344C124.693 53.4531 124.281 53.0964 124 52.6641C123.724 52.2266 123.586 51.7786 123.586 51.3203H125.719C125.729 51.6276 125.807 51.875 125.953 52.0625C126.104 52.25 126.294 52.3854 126.523 52.4688C126.758 52.5521 127.01 52.5938 127.281 52.5938C127.573 52.5938 127.815 52.5547 128.008 52.4766C128.201 52.3932 128.346 52.2839 128.445 52.1484C128.549 52.0078 128.602 51.8464 128.602 51.6641ZM136.82 51.6641C136.82 51.5026 136.773 51.3568 136.68 51.2266C136.586 51.0964 136.411 50.9766 136.156 50.8672C135.906 50.7526 135.544 50.6484 135.07 50.5547C134.643 50.4609 134.245 50.3438 133.875 50.2031C133.51 50.0573 133.193 49.8828 132.922 49.6797C132.656 49.4766 132.448 49.237 132.297 48.9609C132.146 48.6797 132.07 48.3594 132.07 48C132.07 47.6458 132.146 47.3125 132.297 47C132.453 46.6875 132.674 46.4115 132.961 46.1719C133.253 45.9271 133.607 45.737 134.023 45.6016C134.445 45.4609 134.919 45.3906 135.445 45.3906C136.18 45.3906 136.81 45.5078 137.336 45.7422C137.867 45.9766 138.273 46.2995 138.555 46.7109C138.841 47.1172 138.984 47.5807 138.984 48.1016H136.734C136.734 47.8828 136.688 47.6875 136.594 47.5156C136.505 47.3385 136.365 47.2005 136.172 47.1016C135.984 46.9974 135.74 46.9453 135.438 46.9453C135.188 46.9453 134.971 46.9896 134.789 47.0781C134.607 47.1615 134.466 47.276 134.367 47.4219C134.273 47.5625 134.227 47.7188 134.227 47.8906C134.227 48.0208 134.253 48.138 134.305 48.2422C134.362 48.3411 134.453 48.4323 134.578 48.5156C134.703 48.599 134.865 48.6771 135.062 48.75C135.266 48.8177 135.516 48.8802 135.812 48.9375C136.422 49.0625 136.966 49.2266 137.445 49.4297C137.924 49.6276 138.305 49.8984 138.586 50.2422C138.867 50.5807 139.008 51.026 139.008 51.5781C139.008 51.9531 138.924 52.2969 138.758 52.6094C138.591 52.9219 138.352 53.1953 138.039 53.4297C137.727 53.6589 137.352 53.8385 136.914 53.9688C136.482 54.0938 135.995 54.1562 135.453 54.1562C134.667 54.1562 134 54.0156 133.453 53.7344C132.911 53.4531 132.5 53.0964 132.219 52.6641C131.943 52.2266 131.805 51.7786 131.805 51.3203H133.938C133.948 51.6276 134.026 51.875 134.172 52.0625C134.323 52.25 134.513 52.3854 134.742 52.4688C134.977 52.5521 135.229 52.5938 135.5 52.5938C135.792 52.5938 136.034 52.5547 136.227 52.4766C136.419 52.3932 136.565 52.2839 136.664 52.1484C136.768 52.0078 136.82 51.8464 136.82 51.6641Z" fill="black"/>
<path d="M86.1641 68.835H87.4766C87.4082 69.4639 87.2282 70.0267 86.9365 70.5234C86.6449 71.0202 86.2324 71.4144 85.6992 71.7061C85.166 71.9932 84.5007 72.1367 83.7031 72.1367C83.1198 72.1367 82.5889 72.0273 82.1104 71.8086C81.6364 71.5898 81.2285 71.2799 80.8867 70.8789C80.5449 70.4733 80.2806 69.988 80.0938 69.4229C79.9115 68.8532 79.8203 68.2197 79.8203 67.5225V66.5312C79.8203 65.834 79.9115 65.2028 80.0938 64.6377C80.2806 64.068 80.5472 63.5804 80.8936 63.1748C81.2445 62.7692 81.666 62.457 82.1582 62.2383C82.6504 62.0195 83.2041 61.9102 83.8193 61.9102C84.5713 61.9102 85.207 62.0514 85.7266 62.334C86.2461 62.6165 86.6494 63.0085 86.9365 63.5098C87.2282 64.0065 87.4082 64.583 87.4766 65.2393H86.1641C86.1003 64.7744 85.9818 64.3757 85.8086 64.043C85.6354 63.7057 85.3893 63.446 85.0703 63.2637C84.7513 63.0814 84.3343 62.9902 83.8193 62.9902C83.3773 62.9902 82.9876 63.0745 82.6504 63.2432C82.3177 63.4118 82.0374 63.651 81.8096 63.9609C81.5863 64.2708 81.4176 64.6423 81.3037 65.0752C81.1898 65.5081 81.1328 65.9889 81.1328 66.5176V67.5225C81.1328 68.0101 81.1829 68.4681 81.2832 68.8965C81.388 69.3249 81.5452 69.7008 81.7549 70.0244C81.9645 70.348 82.2311 70.6032 82.5547 70.79C82.8783 70.9723 83.2611 71.0635 83.7031 71.0635C84.2637 71.0635 84.7103 70.9746 85.043 70.7969C85.3757 70.6191 85.6263 70.3639 85.7949 70.0312C85.9681 69.6986 86.0911 69.2998 86.1641 68.835ZM90.3477 61.5V72H89.083V61.5H90.3477ZM90.0469 68.0215L89.5205 68.001C89.5251 67.4951 89.6003 67.028 89.7461 66.5996C89.8919 66.1667 90.097 65.7907 90.3613 65.4717C90.6257 65.1527 90.9401 64.9066 91.3047 64.7334C91.6738 64.5557 92.0817 64.4668 92.5283 64.4668C92.8929 64.4668 93.221 64.5169 93.5127 64.6172C93.8044 64.7129 94.0527 64.8678 94.2578 65.082C94.4674 65.2962 94.627 65.5742 94.7363 65.916C94.8457 66.2533 94.9004 66.6657 94.9004 67.1533V72H93.6289V67.1396C93.6289 66.7523 93.5719 66.4424 93.458 66.21C93.3441 65.973 93.1777 65.8021 92.959 65.6973C92.7402 65.5879 92.4714 65.5332 92.1523 65.5332C91.8379 65.5332 91.5508 65.5993 91.291 65.7314C91.0358 65.8636 90.8148 66.0459 90.6279 66.2783C90.4456 66.5107 90.3021 66.7773 90.1973 67.0781C90.097 67.3743 90.0469 67.6888 90.0469 68.0215ZM101.155 70.7354V66.9277C101.155 66.6361 101.096 66.3831 100.978 66.1689C100.864 65.9502 100.69 65.7816 100.458 65.6631C100.226 65.5446 99.9385 65.4854 99.5967 65.4854C99.2777 65.4854 98.9974 65.54 98.7559 65.6494C98.5189 65.7588 98.332 65.9023 98.1953 66.0801C98.0632 66.2578 97.9971 66.4492 97.9971 66.6543H96.7324C96.7324 66.39 96.8008 66.1279 96.9375 65.8682C97.0742 65.6084 97.2702 65.3737 97.5254 65.1641C97.7852 64.9499 98.0951 64.7812 98.4551 64.6582C98.8197 64.5306 99.2253 64.4668 99.6719 64.4668C100.21 64.4668 100.684 64.5579 101.094 64.7402C101.508 64.9225 101.832 65.1982 102.064 65.5674C102.301 65.932 102.42 66.39 102.42 66.9414V70.3867C102.42 70.6328 102.44 70.8949 102.481 71.1729C102.527 71.4508 102.593 71.6901 102.68 71.8906V72H101.36C101.297 71.8542 101.246 71.6605 101.21 71.4189C101.174 71.1729 101.155 70.945 101.155 70.7354ZM101.374 67.5156L101.388 68.4043H100.109C99.7493 68.4043 99.4281 68.4339 99.1455 68.4932C98.863 68.5479 98.626 68.6322 98.4346 68.7461C98.2432 68.86 98.0973 69.0036 97.9971 69.1768C97.8968 69.3454 97.8467 69.5436 97.8467 69.7715C97.8467 70.0039 97.8991 70.2158 98.0039 70.4072C98.1087 70.5986 98.266 70.7513 98.4756 70.8652C98.6898 70.9746 98.9518 71.0293 99.2617 71.0293C99.6491 71.0293 99.9909 70.9473 100.287 70.7832C100.583 70.6191 100.818 70.4186 100.991 70.1816C101.169 69.9447 101.265 69.7145 101.278 69.4912L101.818 70.0996C101.786 70.291 101.7 70.5029 101.559 70.7354C101.417 70.9678 101.228 71.1911 100.991 71.4053C100.759 71.6149 100.481 71.7904 100.157 71.9316C99.8382 72.0684 99.4782 72.1367 99.0771 72.1367C98.5758 72.1367 98.1361 72.0387 97.7578 71.8428C97.3841 71.6468 97.0924 71.3848 96.8828 71.0566C96.6777 70.724 96.5752 70.3525 96.5752 69.9424C96.5752 69.5459 96.6527 69.1973 96.8076 68.8965C96.9626 68.5911 97.1859 68.3382 97.4775 68.1377C97.7692 67.9326 98.1201 67.7777 98.5303 67.6729C98.9404 67.568 99.3984 67.5156 99.9043 67.5156H101.374ZM105.674 66.1826V72H104.409V64.6035H105.605L105.674 66.1826ZM105.373 68.0215L104.847 68.001C104.851 67.4951 104.926 67.028 105.072 66.5996C105.218 66.1667 105.423 65.7907 105.688 65.4717C105.952 65.1527 106.266 64.9066 106.631 64.7334C107 64.5557 107.408 64.4668 107.854 64.4668C108.219 64.4668 108.547 64.5169 108.839 64.6172C109.131 64.7129 109.379 64.8678 109.584 65.082C109.794 65.2962 109.953 65.5742 110.062 65.916C110.172 66.2533 110.227 66.6657 110.227 67.1533V72H108.955V67.1396C108.955 66.7523 108.898 66.4424 108.784 66.21C108.67 65.973 108.504 65.8021 108.285 65.6973C108.066 65.5879 107.798 65.5332 107.479 65.5332C107.164 65.5332 106.877 65.5993 106.617 65.7314C106.362 65.8636 106.141 66.0459 105.954 66.2783C105.772 66.5107 105.628 66.7773 105.523 67.0781C105.423 67.3743 105.373 67.6888 105.373 68.0215ZM116.939 64.6035H118.088V71.8428C118.088 72.4945 117.956 73.0505 117.691 73.5107C117.427 73.971 117.058 74.3197 116.584 74.5566C116.115 74.7982 115.572 74.9189 114.957 74.9189C114.702 74.9189 114.401 74.8779 114.055 74.7959C113.713 74.7184 113.376 74.584 113.043 74.3926C112.715 74.2057 112.439 73.9528 112.216 73.6338L112.879 72.8818C113.189 73.2555 113.512 73.5153 113.85 73.6611C114.191 73.807 114.529 73.8799 114.861 73.8799C115.262 73.8799 115.609 73.8047 115.9 73.6543C116.192 73.5039 116.418 73.2806 116.577 72.9844C116.741 72.6927 116.823 72.3327 116.823 71.9043V66.2305L116.939 64.6035ZM111.847 68.3838V68.2402C111.847 67.6751 111.913 67.1624 112.045 66.7021C112.182 66.2373 112.375 65.8385 112.626 65.5059C112.881 65.1732 113.189 64.918 113.549 64.7402C113.909 64.5579 114.314 64.4668 114.766 64.4668C115.23 64.4668 115.636 64.5488 115.982 64.7129C116.333 64.8724 116.63 65.1071 116.871 65.417C117.117 65.7223 117.311 66.0915 117.452 66.5244C117.593 66.9574 117.691 67.4473 117.746 67.9941V68.623C117.696 69.1654 117.598 69.653 117.452 70.0859C117.311 70.5189 117.117 70.888 116.871 71.1934C116.63 71.4987 116.333 71.7334 115.982 71.8975C115.632 72.057 115.221 72.1367 114.752 72.1367C114.31 72.1367 113.909 72.0433 113.549 71.8564C113.193 71.6696 112.888 71.4076 112.633 71.0703C112.378 70.7331 112.182 70.3366 112.045 69.8809C111.913 69.4206 111.847 68.9215 111.847 68.3838ZM113.111 68.2402V68.3838C113.111 68.7529 113.148 69.0993 113.221 69.4229C113.298 69.7464 113.414 70.0312 113.569 70.2773C113.729 70.5234 113.932 70.7171 114.178 70.8584C114.424 70.9951 114.718 71.0635 115.06 71.0635C115.479 71.0635 115.825 70.9746 116.099 70.7969C116.372 70.6191 116.589 70.3844 116.748 70.0928C116.912 69.8011 117.04 69.4844 117.131 69.1426V67.4951C117.081 67.2445 117.003 67.0029 116.898 66.7705C116.798 66.5335 116.666 66.3239 116.502 66.1416C116.342 65.9548 116.144 65.8066 115.907 65.6973C115.67 65.5879 115.392 65.5332 115.073 65.5332C114.727 65.5332 114.428 65.6061 114.178 65.752C113.932 65.8932 113.729 66.0892 113.569 66.3398C113.414 66.5859 113.298 66.873 113.221 67.2012C113.148 67.5247 113.111 67.8711 113.111 68.2402ZM123.078 72.1367C122.563 72.1367 122.096 72.0501 121.677 71.877C121.262 71.6992 120.904 71.4508 120.604 71.1318C120.307 70.8128 120.079 70.4346 119.92 69.9971C119.76 69.5596 119.681 69.0811 119.681 68.5615V68.2744C119.681 67.6729 119.77 67.1374 119.947 66.668C120.125 66.194 120.367 65.793 120.672 65.4648C120.977 65.1367 121.324 64.8883 121.711 64.7197C122.098 64.5511 122.499 64.4668 122.914 64.4668C123.443 64.4668 123.898 64.5579 124.281 64.7402C124.669 64.9225 124.985 65.1777 125.231 65.5059C125.478 65.8294 125.66 66.2122 125.778 66.6543C125.897 67.0918 125.956 67.5703 125.956 68.0898V68.6572H120.433V67.625H124.691V67.5293C124.673 67.2012 124.605 66.8822 124.486 66.5723C124.372 66.2624 124.19 66.0072 123.939 65.8066C123.689 65.6061 123.347 65.5059 122.914 65.5059C122.627 65.5059 122.363 65.5674 122.121 65.6904C121.88 65.8089 121.672 65.9867 121.499 66.2236C121.326 66.4606 121.191 66.75 121.096 67.0918C121 67.4336 120.952 67.8278 120.952 68.2744V68.5615C120.952 68.9124 121 69.2428 121.096 69.5527C121.196 69.8581 121.34 70.127 121.526 70.3594C121.718 70.5918 121.948 70.7741 122.217 70.9062C122.49 71.0384 122.8 71.1045 123.146 71.1045C123.593 71.1045 123.971 71.0133 124.281 70.8311C124.591 70.6488 124.862 70.4049 125.095 70.0996L125.86 70.708C125.701 70.9495 125.498 71.1797 125.252 71.3984C125.006 71.6172 124.703 71.7949 124.343 71.9316C123.987 72.0684 123.566 72.1367 123.078 72.1367ZM131.739 70.0381C131.739 69.8558 131.698 69.6872 131.616 69.5322C131.539 69.3727 131.377 69.2292 131.131 69.1016C130.889 68.9694 130.525 68.8555 130.037 68.7598C129.627 68.6732 129.256 68.5706 128.923 68.4521C128.595 68.3337 128.314 68.1901 128.082 68.0215C127.854 67.8529 127.679 67.6546 127.556 67.4268C127.433 67.1989 127.371 66.9323 127.371 66.627C127.371 66.3353 127.435 66.0596 127.562 65.7998C127.695 65.54 127.879 65.3099 128.116 65.1094C128.358 64.9089 128.647 64.7516 128.984 64.6377C129.322 64.5238 129.698 64.4668 130.112 64.4668C130.705 64.4668 131.211 64.5716 131.63 64.7812C132.049 64.9909 132.37 65.2712 132.594 65.6221C132.817 65.9684 132.929 66.3535 132.929 66.7773H131.664C131.664 66.5723 131.603 66.374 131.479 66.1826C131.361 65.9867 131.186 65.8249 130.953 65.6973C130.725 65.5697 130.445 65.5059 130.112 65.5059C129.761 65.5059 129.477 65.5605 129.258 65.6699C129.044 65.7747 128.886 65.9092 128.786 66.0732C128.69 66.2373 128.643 66.4105 128.643 66.5928C128.643 66.7295 128.665 66.8525 128.711 66.9619C128.761 67.0667 128.848 67.1647 128.971 67.2559C129.094 67.3424 129.267 67.4245 129.49 67.502C129.714 67.5794 129.998 67.6569 130.345 67.7344C130.951 67.8711 131.45 68.0352 131.842 68.2266C132.234 68.418 132.525 68.6527 132.717 68.9307C132.908 69.2087 133.004 69.5459 133.004 69.9424C133.004 70.266 132.936 70.5622 132.799 70.8311C132.667 71.0999 132.473 71.3324 132.218 71.5283C131.967 71.7197 131.666 71.8701 131.315 71.9795C130.969 72.0843 130.579 72.1367 130.146 72.1367C129.495 72.1367 128.943 72.0205 128.492 71.7881C128.041 71.5557 127.699 71.2549 127.467 70.8857C127.234 70.5166 127.118 70.127 127.118 69.7168H128.39C128.408 70.0632 128.508 70.3389 128.69 70.5439C128.873 70.7445 129.096 70.888 129.36 70.9746C129.625 71.0566 129.887 71.0977 130.146 71.0977C130.493 71.0977 130.782 71.0521 131.015 70.9609C131.252 70.8698 131.432 70.7445 131.555 70.585C131.678 70.4255 131.739 70.2432 131.739 70.0381ZM142.444 70.0381C142.444 69.8558 142.403 69.6872 142.321 69.5322C142.244 69.3727 142.082 69.2292 141.836 69.1016C141.594 68.9694 141.23 68.8555 140.742 68.7598C140.332 68.6732 139.961 68.5706 139.628 68.4521C139.3 68.3337 139.02 68.1901 138.787 68.0215C138.559 67.8529 138.384 67.6546 138.261 67.4268C138.138 67.1989 138.076 66.9323 138.076 66.627C138.076 66.3353 138.14 66.0596 138.268 65.7998C138.4 65.54 138.584 65.3099 138.821 65.1094C139.063 64.9089 139.352 64.7516 139.689 64.6377C140.027 64.5238 140.403 64.4668 140.817 64.4668C141.41 64.4668 141.916 64.5716 142.335 64.7812C142.754 64.9909 143.076 65.2712 143.299 65.6221C143.522 65.9684 143.634 66.3535 143.634 66.7773H142.369C142.369 66.5723 142.308 66.374 142.185 66.1826C142.066 65.9867 141.891 65.8249 141.658 65.6973C141.43 65.5697 141.15 65.5059 140.817 65.5059C140.466 65.5059 140.182 65.5605 139.963 65.6699C139.749 65.7747 139.591 65.9092 139.491 66.0732C139.396 66.2373 139.348 66.4105 139.348 66.5928C139.348 66.7295 139.37 66.8525 139.416 66.9619C139.466 67.0667 139.553 67.1647 139.676 67.2559C139.799 67.3424 139.972 67.4245 140.195 67.502C140.419 67.5794 140.703 67.6569 141.05 67.7344C141.656 67.8711 142.155 68.0352 142.547 68.2266C142.939 68.418 143.23 68.6527 143.422 68.9307C143.613 69.2087 143.709 69.5459 143.709 69.9424C143.709 70.266 143.641 70.5622 143.504 70.8311C143.372 71.0999 143.178 71.3324 142.923 71.5283C142.672 71.7197 142.371 71.8701 142.021 71.9795C141.674 72.0843 141.285 72.1367 140.852 72.1367C140.2 72.1367 139.648 72.0205 139.197 71.7881C138.746 71.5557 138.404 71.2549 138.172 70.8857C137.939 70.5166 137.823 70.127 137.823 69.7168H139.095C139.113 70.0632 139.213 70.3389 139.396 70.5439C139.578 70.7445 139.801 70.888 140.065 70.9746C140.33 71.0566 140.592 71.0977 140.852 71.0977C141.198 71.0977 141.487 71.0521 141.72 70.9609C141.957 70.8698 142.137 70.7445 142.26 70.585C142.383 70.4255 142.444 70.2432 142.444 70.0381ZM149.896 70.291V64.6035H151.167V72H149.957L149.896 70.291ZM150.135 68.7324L150.661 68.7188C150.661 69.2109 150.609 69.6667 150.504 70.0859C150.404 70.5007 150.24 70.8607 150.012 71.166C149.784 71.4714 149.485 71.7106 149.116 71.8838C148.747 72.0524 148.298 72.1367 147.77 72.1367C147.41 72.1367 147.079 72.0843 146.778 71.9795C146.482 71.8747 146.227 71.7129 146.013 71.4941C145.799 71.2754 145.632 70.9906 145.514 70.6396C145.4 70.2887 145.343 69.8672 145.343 69.375V64.6035H146.607V69.3887C146.607 69.7214 146.644 69.9971 146.717 70.2158C146.794 70.43 146.897 70.6009 147.024 70.7285C147.157 70.8516 147.302 70.9382 147.462 70.9883C147.626 71.0384 147.795 71.0635 147.968 71.0635C148.506 71.0635 148.932 70.9609 149.246 70.7559C149.561 70.5462 149.786 70.266 149.923 69.915C150.064 69.5596 150.135 69.1654 150.135 68.7324ZM156.055 71.0977C156.355 71.0977 156.633 71.0361 156.889 70.9131C157.144 70.79 157.354 70.6214 157.518 70.4072C157.682 70.1885 157.775 69.9401 157.798 69.6621H159.001C158.978 70.0996 158.83 70.5075 158.557 70.8857C158.288 71.2594 157.935 71.5625 157.497 71.7949C157.06 72.0228 156.579 72.1367 156.055 72.1367C155.499 72.1367 155.013 72.0387 154.599 71.8428C154.188 71.6468 153.847 71.3779 153.573 71.0361C153.304 70.6943 153.102 70.3024 152.965 69.8604C152.833 69.4137 152.767 68.9421 152.767 68.4453V68.1582C152.767 67.6615 152.833 67.1921 152.965 66.75C153.102 66.3034 153.304 65.9092 153.573 65.5674C153.847 65.2256 154.188 64.9567 154.599 64.7607C155.013 64.5648 155.499 64.4668 156.055 64.4668C156.633 64.4668 157.139 64.5853 157.572 64.8223C158.005 65.0547 158.345 65.3737 158.591 65.7793C158.841 66.1803 158.978 66.6361 159.001 67.1465H157.798C157.775 66.8411 157.688 66.5654 157.538 66.3193C157.392 66.0732 157.192 65.8773 156.937 65.7314C156.686 65.5811 156.392 65.5059 156.055 65.5059C155.667 65.5059 155.341 65.5833 155.077 65.7383C154.817 65.8887 154.61 66.0938 154.455 66.3535C154.305 66.6087 154.195 66.8936 154.127 67.208C154.063 67.5179 154.031 67.8346 154.031 68.1582V68.4453C154.031 68.7689 154.063 69.0879 154.127 69.4023C154.191 69.7168 154.298 70.0016 154.448 70.2568C154.603 70.512 154.811 70.7171 155.07 70.8721C155.335 71.0225 155.663 71.0977 156.055 71.0977ZM163.383 71.0977C163.684 71.0977 163.962 71.0361 164.217 70.9131C164.472 70.79 164.682 70.6214 164.846 70.4072C165.01 70.1885 165.103 69.9401 165.126 69.6621H166.329C166.306 70.0996 166.158 70.5075 165.885 70.8857C165.616 71.2594 165.263 71.5625 164.825 71.7949C164.388 72.0228 163.907 72.1367 163.383 72.1367C162.827 72.1367 162.341 72.0387 161.927 71.8428C161.517 71.6468 161.175 71.3779 160.901 71.0361C160.632 70.6943 160.43 70.3024 160.293 69.8604C160.161 69.4137 160.095 68.9421 160.095 68.4453V68.1582C160.095 67.6615 160.161 67.1921 160.293 66.75C160.43 66.3034 160.632 65.9092 160.901 65.5674C161.175 65.2256 161.517 64.9567 161.927 64.7607C162.341 64.5648 162.827 64.4668 163.383 64.4668C163.962 64.4668 164.467 64.5853 164.9 64.8223C165.333 65.0547 165.673 65.3737 165.919 65.7793C166.17 66.1803 166.306 66.6361 166.329 67.1465H165.126C165.103 66.8411 165.017 66.5654 164.866 66.3193C164.72 66.0732 164.52 65.8773 164.265 65.7314C164.014 65.5811 163.72 65.5059 163.383 65.5059C162.995 65.5059 162.67 65.5833 162.405 65.7383C162.146 65.8887 161.938 66.0938 161.783 66.3535C161.633 66.6087 161.523 66.8936 161.455 67.208C161.391 67.5179 161.359 67.8346 161.359 68.1582V68.4453C161.359 68.7689 161.391 69.0879 161.455 69.4023C161.519 69.7168 161.626 70.0016 161.776 70.2568C161.931 70.512 162.139 70.7171 162.398 70.8721C162.663 71.0225 162.991 71.0977 163.383 71.0977ZM170.82 72.1367C170.305 72.1367 169.838 72.0501 169.419 71.877C169.004 71.6992 168.646 71.4508 168.346 71.1318C168.049 70.8128 167.822 70.4346 167.662 69.9971C167.503 69.5596 167.423 69.0811 167.423 68.5615V68.2744C167.423 67.6729 167.512 67.1374 167.689 66.668C167.867 66.194 168.109 65.793 168.414 65.4648C168.719 65.1367 169.066 64.8883 169.453 64.7197C169.84 64.5511 170.242 64.4668 170.656 64.4668C171.185 64.4668 171.641 64.5579 172.023 64.7402C172.411 64.9225 172.728 65.1777 172.974 65.5059C173.22 65.8294 173.402 66.2122 173.521 66.6543C173.639 67.0918 173.698 67.5703 173.698 68.0898V68.6572H168.175V67.625H172.434V67.5293C172.415 67.2012 172.347 66.8822 172.229 66.5723C172.115 66.2624 171.932 66.0072 171.682 65.8066C171.431 65.6061 171.089 65.5059 170.656 65.5059C170.369 65.5059 170.105 65.5674 169.863 65.6904C169.622 65.8089 169.414 65.9867 169.241 66.2236C169.068 66.4606 168.934 66.75 168.838 67.0918C168.742 67.4336 168.694 67.8278 168.694 68.2744V68.5615C168.694 68.9124 168.742 69.2428 168.838 69.5527C168.938 69.8581 169.082 70.127 169.269 70.3594C169.46 70.5918 169.69 70.7741 169.959 70.9062C170.232 71.0384 170.542 71.1045 170.889 71.1045C171.335 71.1045 171.714 71.0133 172.023 70.8311C172.333 70.6488 172.604 70.4049 172.837 70.0996L173.603 70.708C173.443 70.9495 173.24 71.1797 172.994 71.3984C172.748 71.6172 172.445 71.7949 172.085 71.9316C171.729 72.0684 171.308 72.1367 170.82 72.1367ZM179.481 70.0381C179.481 69.8558 179.44 69.6872 179.358 69.5322C179.281 69.3727 179.119 69.2292 178.873 69.1016C178.632 68.9694 178.267 68.8555 177.779 68.7598C177.369 68.6732 176.998 68.5706 176.665 68.4521C176.337 68.3337 176.057 68.1901 175.824 68.0215C175.596 67.8529 175.421 67.6546 175.298 67.4268C175.175 67.1989 175.113 66.9323 175.113 66.627C175.113 66.3353 175.177 66.0596 175.305 65.7998C175.437 65.54 175.621 65.3099 175.858 65.1094C176.1 64.9089 176.389 64.7516 176.727 64.6377C177.064 64.5238 177.44 64.4668 177.854 64.4668C178.447 64.4668 178.953 64.5716 179.372 64.7812C179.791 64.9909 180.113 65.2712 180.336 65.6221C180.559 65.9684 180.671 66.3535 180.671 66.7773H179.406C179.406 66.5723 179.345 66.374 179.222 66.1826C179.103 65.9867 178.928 65.8249 178.695 65.6973C178.467 65.5697 178.187 65.5059 177.854 65.5059C177.504 65.5059 177.219 65.5605 177 65.6699C176.786 65.7747 176.629 65.9092 176.528 66.0732C176.433 66.2373 176.385 66.4105 176.385 66.5928C176.385 66.7295 176.408 66.8525 176.453 66.9619C176.503 67.0667 176.59 67.1647 176.713 67.2559C176.836 67.3424 177.009 67.4245 177.232 67.502C177.456 67.5794 177.741 67.6569 178.087 67.7344C178.693 67.8711 179.192 68.0352 179.584 68.2266C179.976 68.418 180.268 68.6527 180.459 68.9307C180.65 69.2087 180.746 69.5459 180.746 69.9424C180.746 70.266 180.678 70.5622 180.541 70.8311C180.409 71.0999 180.215 71.3324 179.96 71.5283C179.709 71.7197 179.409 71.8701 179.058 71.9795C178.711 72.0843 178.322 72.1367 177.889 72.1367C177.237 72.1367 176.686 72.0205 176.234 71.7881C175.783 71.5557 175.441 71.2549 175.209 70.8857C174.977 70.5166 174.86 70.127 174.86 69.7168H176.132C176.15 70.0632 176.25 70.3389 176.433 70.5439C176.615 70.7445 176.838 70.888 177.103 70.9746C177.367 71.0566 177.629 71.0977 177.889 71.0977C178.235 71.0977 178.524 71.0521 178.757 70.9609C178.994 70.8698 179.174 70.7445 179.297 70.585C179.42 70.4255 179.481 70.2432 179.481 70.0381ZM186.714 70.0381C186.714 69.8558 186.673 69.6872 186.591 69.5322C186.513 69.3727 186.352 69.2292 186.105 69.1016C185.864 68.9694 185.499 68.8555 185.012 68.7598C184.602 68.6732 184.23 68.5706 183.897 68.4521C183.569 68.3337 183.289 68.1901 183.057 68.0215C182.829 67.8529 182.653 67.6546 182.53 67.4268C182.407 67.1989 182.346 66.9323 182.346 66.627C182.346 66.3353 182.41 66.0596 182.537 65.7998C182.669 65.54 182.854 65.3099 183.091 65.1094C183.332 64.9089 183.622 64.7516 183.959 64.6377C184.296 64.5238 184.672 64.4668 185.087 64.4668C185.679 64.4668 186.185 64.5716 186.604 64.7812C187.024 64.9909 187.345 65.2712 187.568 65.6221C187.792 65.9684 187.903 66.3535 187.903 66.7773H186.639C186.639 66.5723 186.577 66.374 186.454 66.1826C186.336 65.9867 186.16 65.8249 185.928 65.6973C185.7 65.5697 185.42 65.5059 185.087 65.5059C184.736 65.5059 184.451 65.5605 184.232 65.6699C184.018 65.7747 183.861 65.9092 183.761 66.0732C183.665 66.2373 183.617 66.4105 183.617 66.5928C183.617 66.7295 183.64 66.8525 183.686 66.9619C183.736 67.0667 183.822 67.1647 183.945 67.2559C184.068 67.3424 184.242 67.4245 184.465 67.502C184.688 67.5794 184.973 67.6569 185.319 67.7344C185.925 67.8711 186.424 68.0352 186.816 68.2266C187.208 68.418 187.5 68.6527 187.691 68.9307C187.883 69.2087 187.979 69.5459 187.979 69.9424C187.979 70.266 187.91 70.5622 187.773 70.8311C187.641 71.0999 187.448 71.3324 187.192 71.5283C186.942 71.7197 186.641 71.8701 186.29 71.9795C185.944 72.0843 185.554 72.1367 185.121 72.1367C184.469 72.1367 183.918 72.0205 183.467 71.7881C183.016 71.5557 182.674 71.2549 182.441 70.8857C182.209 70.5166 182.093 70.127 182.093 69.7168H183.364C183.382 70.0632 183.483 70.3389 183.665 70.5439C183.847 70.7445 184.071 70.888 184.335 70.9746C184.599 71.0566 184.861 71.0977 185.121 71.0977C185.467 71.0977 185.757 71.0521 185.989 70.9609C186.226 70.8698 186.406 70.7445 186.529 70.585C186.652 70.4255 186.714 70.2432 186.714 70.0381ZM191.526 72H190.262V63.8242C190.262 63.291 190.357 62.8421 190.549 62.4775C190.745 62.1084 191.025 61.8304 191.39 61.6436C191.754 61.4521 192.187 61.3564 192.688 61.3564C192.834 61.3564 192.98 61.3656 193.126 61.3838C193.276 61.402 193.422 61.4294 193.563 61.4658L193.495 62.498C193.399 62.4753 193.29 62.4593 193.167 62.4502C193.049 62.4411 192.93 62.4365 192.812 62.4365C192.543 62.4365 192.31 62.4912 192.114 62.6006C191.923 62.7054 191.777 62.8604 191.677 63.0654C191.576 63.2705 191.526 63.5234 191.526 63.8242V72ZM193.099 64.6035V65.5742H189.093V64.6035H193.099ZM199.032 70.291V64.6035H200.304V72H199.094L199.032 70.291ZM199.271 68.7324L199.798 68.7188C199.798 69.2109 199.745 69.6667 199.641 70.0859C199.54 70.5007 199.376 70.8607 199.148 71.166C198.921 71.4714 198.622 71.7106 198.253 71.8838C197.884 72.0524 197.435 72.1367 196.906 72.1367C196.546 72.1367 196.216 72.0843 195.915 71.9795C195.619 71.8747 195.364 71.7129 195.149 71.4941C194.935 71.2754 194.769 70.9906 194.65 70.6396C194.536 70.2887 194.479 69.8672 194.479 69.375V64.6035H195.744V69.3887C195.744 69.7214 195.781 69.9971 195.854 70.2158C195.931 70.43 196.034 70.6009 196.161 70.7285C196.293 70.8516 196.439 70.9382 196.599 70.9883C196.763 71.0384 196.931 71.0635 197.104 71.0635C197.642 71.0635 198.068 70.9609 198.383 70.7559C198.697 70.5462 198.923 70.266 199.06 69.915C199.201 69.5596 199.271 69.1654 199.271 68.7324ZM203.605 61.5V72H202.334V61.5H203.605ZM207.01 61.5V72H205.738V61.5H207.01ZM211.118 71.2344L213.176 64.6035H214.529L211.562 73.1416C211.494 73.3239 211.403 73.5199 211.289 73.7295C211.18 73.9437 211.038 74.1465 210.865 74.3379C210.692 74.5293 210.482 74.6842 210.236 74.8027C209.995 74.9258 209.705 74.9873 209.368 74.9873C209.268 74.9873 209.14 74.9736 208.985 74.9463C208.83 74.9189 208.721 74.8962 208.657 74.8779L208.65 73.8525C208.687 73.8571 208.744 73.8617 208.821 73.8662C208.903 73.8753 208.96 73.8799 208.992 73.8799C209.279 73.8799 209.523 73.8411 209.724 73.7637C209.924 73.6908 210.093 73.5654 210.229 73.3877C210.371 73.2145 210.492 72.9753 210.592 72.6699L211.118 71.2344ZM209.607 64.6035L211.528 70.3457L211.856 71.6787L210.947 72.1436L208.227 64.6035H209.607ZM223.45 70.0381C223.45 69.8558 223.409 69.6872 223.327 69.5322C223.25 69.3727 223.088 69.2292 222.842 69.1016C222.6 68.9694 222.236 68.8555 221.748 68.7598C221.338 68.6732 220.966 68.5706 220.634 68.4521C220.306 68.3337 220.025 68.1901 219.793 68.0215C219.565 67.8529 219.39 67.6546 219.267 67.4268C219.144 67.1989 219.082 66.9323 219.082 66.627C219.082 66.3353 219.146 66.0596 219.273 65.7998C219.406 65.54 219.59 65.3099 219.827 65.1094C220.069 64.9089 220.358 64.7516 220.695 64.6377C221.033 64.5238 221.409 64.4668 221.823 64.4668C222.416 64.4668 222.922 64.5716 223.341 64.7812C223.76 64.9909 224.081 65.2712 224.305 65.6221C224.528 65.9684 224.64 66.3535 224.64 66.7773H223.375C223.375 66.5723 223.313 66.374 223.19 66.1826C223.072 65.9867 222.896 65.8249 222.664 65.6973C222.436 65.5697 222.156 65.5059 221.823 65.5059C221.472 65.5059 221.188 65.5605 220.969 65.6699C220.755 65.7747 220.597 65.9092 220.497 66.0732C220.401 66.2373 220.354 66.4105 220.354 66.5928C220.354 66.7295 220.376 66.8525 220.422 66.9619C220.472 67.0667 220.559 67.1647 220.682 67.2559C220.805 67.3424 220.978 67.4245 221.201 67.502C221.424 67.5794 221.709 67.6569 222.056 67.7344C222.662 67.8711 223.161 68.0352 223.553 68.2266C223.945 68.418 224.236 68.6527 224.428 68.9307C224.619 69.2087 224.715 69.5459 224.715 69.9424C224.715 70.266 224.646 70.5622 224.51 70.8311C224.378 71.0999 224.184 71.3324 223.929 71.5283C223.678 71.7197 223.377 71.8701 223.026 71.9795C222.68 72.0843 222.29 72.1367 221.857 72.1367C221.206 72.1367 220.654 72.0205 220.203 71.7881C219.752 71.5557 219.41 71.2549 219.178 70.8857C218.945 70.5166 218.829 70.127 218.829 69.7168H220.101C220.119 70.0632 220.219 70.3389 220.401 70.5439C220.584 70.7445 220.807 70.888 221.071 70.9746C221.336 71.0566 221.598 71.0977 221.857 71.0977C222.204 71.0977 222.493 71.0521 222.726 70.9609C222.963 70.8698 223.143 70.7445 223.266 70.585C223.389 70.4255 223.45 70.2432 223.45 70.0381ZM230.737 70.7354V66.9277C230.737 66.6361 230.678 66.3831 230.56 66.1689C230.446 65.9502 230.272 65.7816 230.04 65.6631C229.808 65.5446 229.521 65.4854 229.179 65.4854C228.86 65.4854 228.579 65.54 228.338 65.6494C228.101 65.7588 227.914 65.9023 227.777 66.0801C227.645 66.2578 227.579 66.4492 227.579 66.6543H226.314C226.314 66.39 226.383 66.1279 226.52 65.8682C226.656 65.6084 226.852 65.3737 227.107 65.1641C227.367 64.9499 227.677 64.7812 228.037 64.6582C228.402 64.5306 228.807 64.4668 229.254 64.4668C229.792 64.4668 230.266 64.5579 230.676 64.7402C231.09 64.9225 231.414 65.1982 231.646 65.5674C231.883 65.932 232.002 66.39 232.002 66.9414V70.3867C232.002 70.6328 232.022 70.8949 232.063 71.1729C232.109 71.4508 232.175 71.6901 232.262 71.8906V72H230.942C230.879 71.8542 230.828 71.6605 230.792 71.4189C230.756 71.1729 230.737 70.945 230.737 70.7354ZM230.956 67.5156L230.97 68.4043H229.691C229.331 68.4043 229.01 68.4339 228.728 68.4932C228.445 68.5479 228.208 68.6322 228.017 68.7461C227.825 68.86 227.679 69.0036 227.579 69.1768C227.479 69.3454 227.429 69.5436 227.429 69.7715C227.429 70.0039 227.481 70.2158 227.586 70.4072C227.691 70.5986 227.848 70.7513 228.058 70.8652C228.272 70.9746 228.534 71.0293 228.844 71.0293C229.231 71.0293 229.573 70.9473 229.869 70.7832C230.165 70.6191 230.4 70.4186 230.573 70.1816C230.751 69.9447 230.847 69.7145 230.86 69.4912L231.4 70.0996C231.368 70.291 231.282 70.5029 231.141 70.7354C230.999 70.9678 230.81 71.1911 230.573 71.4053C230.341 71.6149 230.063 71.7904 229.739 71.9316C229.42 72.0684 229.06 72.1367 228.659 72.1367C228.158 72.1367 227.718 72.0387 227.34 71.8428C226.966 71.6468 226.674 71.3848 226.465 71.0566C226.26 70.724 226.157 70.3525 226.157 69.9424C226.157 69.5459 226.235 69.1973 226.39 68.8965C226.545 68.5911 226.768 68.3382 227.06 68.1377C227.351 67.9326 227.702 67.7777 228.112 67.6729C228.522 67.568 228.98 67.5156 229.486 67.5156H230.956ZM236.131 70.8584L238.154 64.6035H239.446L236.787 72H235.939L236.131 70.8584ZM234.442 64.6035L236.527 70.8926L236.671 72H235.823L233.144 64.6035H234.442ZM243.637 72.1367C243.122 72.1367 242.655 72.0501 242.235 71.877C241.821 71.6992 241.463 71.4508 241.162 71.1318C240.866 70.8128 240.638 70.4346 240.479 69.9971C240.319 69.5596 240.239 69.0811 240.239 68.5615V68.2744C240.239 67.6729 240.328 67.1374 240.506 66.668C240.684 66.194 240.925 65.793 241.23 65.4648C241.536 65.1367 241.882 64.8883 242.27 64.7197C242.657 64.5511 243.058 64.4668 243.473 64.4668C244.001 64.4668 244.457 64.5579 244.84 64.7402C245.227 64.9225 245.544 65.1777 245.79 65.5059C246.036 65.8294 246.218 66.2122 246.337 66.6543C246.455 67.0918 246.515 67.5703 246.515 68.0898V68.6572H240.991V67.625H245.25V67.5293C245.232 67.2012 245.163 66.8822 245.045 66.5723C244.931 66.2624 244.749 66.0072 244.498 65.8066C244.247 65.6061 243.906 65.5059 243.473 65.5059C243.186 65.5059 242.921 65.5674 242.68 65.6904C242.438 65.8089 242.231 65.9867 242.058 66.2236C241.884 66.4606 241.75 66.75 241.654 67.0918C241.559 67.4336 241.511 67.8278 241.511 68.2744V68.5615C241.511 68.9124 241.559 69.2428 241.654 69.5527C241.755 69.8581 241.898 70.127 242.085 70.3594C242.276 70.5918 242.507 70.7741 242.775 70.9062C243.049 71.0384 243.359 71.1045 243.705 71.1045C244.152 71.1045 244.53 71.0133 244.84 70.8311C245.15 70.6488 245.421 70.4049 245.653 70.0996L246.419 70.708C246.259 70.9495 246.057 71.1797 245.811 71.3984C245.564 71.6172 245.261 71.7949 244.901 71.9316C244.546 72.0684 244.124 72.1367 243.637 72.1367ZM252.653 70.5645V61.5H253.925V72H252.763L252.653 70.5645ZM247.677 68.3838V68.2402C247.677 67.6751 247.745 67.1624 247.882 66.7021C248.023 66.2373 248.221 65.8385 248.477 65.5059C248.736 65.1732 249.044 64.918 249.399 64.7402C249.759 64.5579 250.16 64.4668 250.603 64.4668C251.067 64.4668 251.473 64.5488 251.819 64.7129C252.17 64.8724 252.466 65.1071 252.708 65.417C252.954 65.7223 253.148 66.0915 253.289 66.5244C253.43 66.9574 253.528 67.4473 253.583 67.9941V68.623C253.533 69.1654 253.435 69.653 253.289 70.0859C253.148 70.5189 252.954 70.888 252.708 71.1934C252.466 71.4987 252.17 71.7334 251.819 71.8975C251.468 72.057 251.058 72.1367 250.589 72.1367C250.156 72.1367 249.759 72.0433 249.399 71.8564C249.044 71.6696 248.736 71.4076 248.477 71.0703C248.221 70.7331 248.023 70.3366 247.882 69.8809C247.745 69.4206 247.677 68.9215 247.677 68.3838ZM248.948 68.2402V68.3838C248.948 68.7529 248.985 69.0993 249.058 69.4229C249.135 69.7464 249.254 70.0312 249.413 70.2773C249.573 70.5234 249.775 70.7171 250.021 70.8584C250.268 70.9951 250.562 71.0635 250.903 71.0635C251.323 71.0635 251.667 70.9746 251.936 70.7969C252.209 70.6191 252.428 70.3844 252.592 70.0928C252.756 69.8011 252.883 69.4844 252.975 69.1426V67.4951C252.92 67.2445 252.84 67.0029 252.735 66.7705C252.635 66.5335 252.503 66.3239 252.339 66.1416C252.179 65.9548 251.981 65.8066 251.744 65.6973C251.512 65.5879 251.236 65.5332 250.917 65.5332C250.571 65.5332 250.272 65.6061 250.021 65.752C249.775 65.8932 249.573 66.0892 249.413 66.3398C249.254 66.5859 249.135 66.873 249.058 67.2012C248.985 67.5247 248.948 67.8711 248.948 68.2402Z" fill="black"/>
<g filter="url(#filter1_d_166_6)">
<rect x="30" y="105" width="300" height="70" rx="5" fill="white"/>
</g>
<path d="M302.4 137L301 135.6L306.6 130L301 124.4L302.4 123L308 128.6L313.6 123L315 124.4L309.4 130L315 135.6L313.6 137L308 131.4L302.4 137Z" fill="#333333"/>
<path d="M30 110C30 107.239 32.2386 105 35 105V105V175V175C32.2386 175 30 172.761 30 170V110Z" fill="#EC0000"/>
<circle cx="57" cy="130" r="12" fill="#EC0000"/>
<g clip-path="url(#clip1_166_6)">
<path d="M52.8 135.25L51.75 134.2L55.95 130L51.75 125.8L52.8 124.75L57 128.95L61.2 124.75L62.25 125.8L58.05 130L62.25 134.2L61.2 135.25L57 131.05L52.8 135.25Z" fill="white"/>
</g>
<path d="M87.6484 133.172V135H81.5938V133.172H87.6484ZM82.3594 123.625V135H80.0156V123.625H82.3594ZM86.8594 128.258V130.039H81.5938V128.258H86.8594ZM87.6406 123.625V125.461H81.5938V123.625H87.6406ZM91.125 128.391V135H88.875V126.547H90.9922L91.125 128.391ZM93.6719 126.492L93.6328 128.578C93.5234 128.562 93.3906 128.549 93.2344 128.539C93.0833 128.523 92.9453 128.516 92.8203 128.516C92.5026 128.516 92.2266 128.557 91.9922 128.641C91.763 128.719 91.5703 128.836 91.4141 128.992C91.263 129.148 91.1484 129.339 91.0703 129.562C90.9974 129.786 90.9557 130.042 90.9453 130.328L90.4922 130.188C90.4922 129.641 90.5469 129.138 90.6562 128.68C90.7656 128.216 90.9245 127.812 91.1328 127.469C91.3464 127.125 91.6068 126.859 91.9141 126.672C92.2214 126.484 92.5729 126.391 92.9688 126.391C93.0938 126.391 93.2214 126.401 93.3516 126.422C93.4818 126.438 93.5885 126.461 93.6719 126.492ZM96.9844 128.391V135H94.7344V126.547H96.8516L96.9844 128.391ZM99.5312 126.492L99.4922 128.578C99.3828 128.562 99.25 128.549 99.0938 128.539C98.9427 128.523 98.8047 128.516 98.6797 128.516C98.362 128.516 98.0859 128.557 97.8516 128.641C97.6224 128.719 97.4297 128.836 97.2734 128.992C97.1224 129.148 97.0078 129.339 96.9297 129.562C96.8568 129.786 96.8151 130.042 96.8047 130.328L96.3516 130.188C96.3516 129.641 96.4062 129.138 96.5156 128.68C96.625 128.216 96.7839 127.812 96.9922 127.469C97.2057 127.125 97.4661 126.859 97.7734 126.672C98.0807 126.484 98.4323 126.391 98.8281 126.391C98.9531 126.391 99.0807 126.401 99.2109 126.422C99.3411 126.438 99.4479 126.461 99.5312 126.492ZM100 130.859V130.695C100 130.076 100.089 129.505 100.266 128.984C100.443 128.458 100.701 128.003 101.039 127.617C101.378 127.232 101.794 126.932 102.289 126.719C102.784 126.5 103.352 126.391 103.992 126.391C104.633 126.391 105.203 126.5 105.703 126.719C106.203 126.932 106.622 127.232 106.961 127.617C107.305 128.003 107.565 128.458 107.742 128.984C107.919 129.505 108.008 130.076 108.008 130.695V130.859C108.008 131.474 107.919 132.044 107.742 132.57C107.565 133.091 107.305 133.547 106.961 133.938C106.622 134.323 106.206 134.622 105.711 134.836C105.216 135.049 104.648 135.156 104.008 135.156C103.367 135.156 102.797 135.049 102.297 134.836C101.802 134.622 101.383 134.323 101.039 133.938C100.701 133.547 100.443 133.091 100.266 132.57C100.089 132.044 100 131.474 100 130.859ZM102.25 130.695V130.859C102.25 131.214 102.281 131.544 102.344 131.852C102.406 132.159 102.505 132.43 102.641 132.664C102.781 132.893 102.964 133.073 103.188 133.203C103.411 133.333 103.685 133.398 104.008 133.398C104.32 133.398 104.589 133.333 104.812 133.203C105.036 133.073 105.216 132.893 105.352 132.664C105.487 132.43 105.586 132.159 105.648 131.852C105.716 131.544 105.75 131.214 105.75 130.859V130.695C105.75 130.352 105.716 130.029 105.648 129.727C105.586 129.419 105.484 129.148 105.344 128.914C105.208 128.674 105.029 128.487 104.805 128.352C104.581 128.216 104.31 128.148 103.992 128.148C103.674 128.148 103.404 128.216 103.18 128.352C102.961 128.487 102.781 128.674 102.641 128.914C102.505 129.148 102.406 129.419 102.344 129.727C102.281 130.029 102.25 130.352 102.25 130.695ZM111.641 128.391V135H109.391V126.547H111.508L111.641 128.391ZM114.188 126.492L114.148 128.578C114.039 128.562 113.906 128.549 113.75 128.539C113.599 128.523 113.461 128.516 113.336 128.516C113.018 128.516 112.742 128.557 112.508 128.641C112.279 128.719 112.086 128.836 111.93 128.992C111.779 129.148 111.664 129.339 111.586 129.562C111.513 129.786 111.471 130.042 111.461 130.328L111.008 130.188C111.008 129.641 111.062 129.138 111.172 128.68C111.281 128.216 111.44 127.812 111.648 127.469C111.862 127.125 112.122 126.859 112.43 126.672C112.737 126.484 113.089 126.391 113.484 126.391C113.609 126.391 113.737 126.401 113.867 126.422C113.997 126.438 114.104 126.461 114.188 126.492Z" fill="black"/>
<path d="M83.8398 143.929L80.5449 153H79.1982L82.9922 143.047H83.8604L83.8398 143.929ZM86.6016 153L83.2998 143.929L83.2793 143.047H84.1475L87.9551 153H86.6016ZM86.4307 149.315V150.396H80.8389V149.315H86.4307ZM90.3613 147.183V153H89.0967V145.604H90.293L90.3613 147.183ZM90.0605 149.021L89.5342 149.001C89.5387 148.495 89.6139 148.028 89.7598 147.6C89.9056 147.167 90.1107 146.791 90.375 146.472C90.6393 146.153 90.9538 145.907 91.3184 145.733C91.6875 145.556 92.0954 145.467 92.542 145.467C92.9066 145.467 93.2347 145.517 93.5264 145.617C93.818 145.713 94.0664 145.868 94.2715 146.082C94.4811 146.296 94.6406 146.574 94.75 146.916C94.8594 147.253 94.9141 147.666 94.9141 148.153V153H93.6426V148.14C93.6426 147.752 93.5856 147.442 93.4717 147.21C93.3577 146.973 93.1914 146.802 92.9727 146.697C92.7539 146.588 92.485 146.533 92.166 146.533C91.8516 146.533 91.5645 146.599 91.3047 146.731C91.0495 146.864 90.8285 147.046 90.6416 147.278C90.4593 147.511 90.3158 147.777 90.2109 148.078C90.1107 148.374 90.0605 148.689 90.0605 149.021ZM103.377 153.137C102.862 153.137 102.395 153.05 101.976 152.877C101.561 152.699 101.203 152.451 100.902 152.132C100.606 151.813 100.378 151.435 100.219 150.997C100.059 150.56 99.9795 150.081 99.9795 149.562V149.274C99.9795 148.673 100.068 148.137 100.246 147.668C100.424 147.194 100.665 146.793 100.971 146.465C101.276 146.137 101.622 145.888 102.01 145.72C102.397 145.551 102.798 145.467 103.213 145.467C103.742 145.467 104.197 145.558 104.58 145.74C104.967 145.923 105.284 146.178 105.53 146.506C105.776 146.829 105.959 147.212 106.077 147.654C106.196 148.092 106.255 148.57 106.255 149.09V149.657H100.731V148.625H104.99V148.529C104.972 148.201 104.904 147.882 104.785 147.572C104.671 147.262 104.489 147.007 104.238 146.807C103.988 146.606 103.646 146.506 103.213 146.506C102.926 146.506 102.661 146.567 102.42 146.69C102.178 146.809 101.971 146.987 101.798 147.224C101.625 147.461 101.49 147.75 101.395 148.092C101.299 148.434 101.251 148.828 101.251 149.274V149.562C101.251 149.912 101.299 150.243 101.395 150.553C101.495 150.858 101.638 151.127 101.825 151.359C102.017 151.592 102.247 151.774 102.516 151.906C102.789 152.038 103.099 152.104 103.445 152.104C103.892 152.104 104.27 152.013 104.58 151.831C104.89 151.649 105.161 151.405 105.394 151.1L106.159 151.708C106 151.95 105.797 152.18 105.551 152.398C105.305 152.617 105.002 152.795 104.642 152.932C104.286 153.068 103.865 153.137 103.377 153.137ZM108.996 146.766V153H107.731V145.604H108.962L108.996 146.766ZM111.307 145.562L111.3 146.738C111.195 146.715 111.095 146.702 110.999 146.697C110.908 146.688 110.803 146.684 110.685 146.684C110.393 146.684 110.135 146.729 109.912 146.82C109.689 146.911 109.5 147.039 109.345 147.203C109.19 147.367 109.067 147.563 108.976 147.791C108.889 148.014 108.832 148.26 108.805 148.529L108.449 148.734C108.449 148.288 108.493 147.868 108.579 147.477C108.67 147.085 108.809 146.738 108.996 146.438C109.183 146.132 109.42 145.895 109.707 145.727C109.999 145.553 110.345 145.467 110.746 145.467C110.837 145.467 110.942 145.478 111.061 145.501C111.179 145.519 111.261 145.54 111.307 145.562ZM113.74 146.766V153H112.476V145.604H113.706L113.74 146.766ZM116.051 145.562L116.044 146.738C115.939 146.715 115.839 146.702 115.743 146.697C115.652 146.688 115.547 146.684 115.429 146.684C115.137 146.684 114.88 146.729 114.656 146.82C114.433 146.911 114.244 147.039 114.089 147.203C113.934 147.367 113.811 147.563 113.72 147.791C113.633 148.014 113.576 148.26 113.549 148.529L113.193 148.734C113.193 148.288 113.237 147.868 113.323 147.477C113.414 147.085 113.553 146.738 113.74 146.438C113.927 146.132 114.164 145.895 114.451 145.727C114.743 145.553 115.089 145.467 115.49 145.467C115.581 145.467 115.686 145.478 115.805 145.501C115.923 145.519 116.005 145.54 116.051 145.562ZM116.748 149.384V149.227C116.748 148.693 116.826 148.199 116.98 147.743C117.135 147.283 117.359 146.884 117.65 146.547C117.942 146.205 118.295 145.941 118.71 145.754C119.125 145.562 119.59 145.467 120.104 145.467C120.624 145.467 121.091 145.562 121.506 145.754C121.925 145.941 122.281 146.205 122.572 146.547C122.868 146.884 123.094 147.283 123.249 147.743C123.404 148.199 123.481 148.693 123.481 149.227V149.384C123.481 149.917 123.404 150.411 123.249 150.867C123.094 151.323 122.868 151.722 122.572 152.063C122.281 152.401 121.927 152.665 121.513 152.856C121.103 153.043 120.638 153.137 120.118 153.137C119.599 153.137 119.132 153.043 118.717 152.856C118.302 152.665 117.947 152.401 117.65 152.063C117.359 151.722 117.135 151.323 116.98 150.867C116.826 150.411 116.748 149.917 116.748 149.384ZM118.013 149.227V149.384C118.013 149.753 118.056 150.102 118.143 150.43C118.229 150.753 118.359 151.04 118.532 151.291C118.71 151.542 118.931 151.74 119.195 151.886C119.46 152.027 119.767 152.098 120.118 152.098C120.465 152.098 120.768 152.027 121.027 151.886C121.292 151.74 121.51 151.542 121.684 151.291C121.857 151.04 121.987 150.753 122.073 150.43C122.164 150.102 122.21 149.753 122.21 149.384V149.227C122.21 148.862 122.164 148.518 122.073 148.194C121.987 147.866 121.854 147.577 121.677 147.326C121.504 147.071 121.285 146.87 121.021 146.725C120.761 146.579 120.455 146.506 120.104 146.506C119.758 146.506 119.453 146.579 119.188 146.725C118.929 146.87 118.71 147.071 118.532 147.326C118.359 147.577 118.229 147.866 118.143 148.194C118.056 148.518 118.013 148.862 118.013 149.227ZM126.332 146.766V153H125.067V145.604H126.298L126.332 146.766ZM128.643 145.562L128.636 146.738C128.531 146.715 128.431 146.702 128.335 146.697C128.244 146.688 128.139 146.684 128.021 146.684C127.729 146.684 127.471 146.729 127.248 146.82C127.025 146.911 126.836 147.039 126.681 147.203C126.526 147.367 126.403 147.563 126.312 147.791C126.225 148.014 126.168 148.26 126.141 148.529L125.785 148.734C125.785 148.288 125.828 147.868 125.915 147.477C126.006 147.085 126.145 146.738 126.332 146.438C126.519 146.132 126.756 145.895 127.043 145.727C127.335 145.553 127.681 145.467 128.082 145.467C128.173 145.467 128.278 145.478 128.396 145.501C128.515 145.519 128.597 145.54 128.643 145.562ZM132.949 149.384V149.227C132.949 148.693 133.027 148.199 133.182 147.743C133.337 147.283 133.56 146.884 133.852 146.547C134.143 146.205 134.496 145.941 134.911 145.754C135.326 145.562 135.791 145.467 136.306 145.467C136.825 145.467 137.292 145.562 137.707 145.754C138.126 145.941 138.482 146.205 138.773 146.547C139.07 146.884 139.295 147.283 139.45 147.743C139.605 148.199 139.683 148.693 139.683 149.227V149.384C139.683 149.917 139.605 150.411 139.45 150.867C139.295 151.323 139.07 151.722 138.773 152.063C138.482 152.401 138.129 152.665 137.714 152.856C137.304 153.043 136.839 153.137 136.319 153.137C135.8 153.137 135.333 153.043 134.918 152.856C134.503 152.665 134.148 152.401 133.852 152.063C133.56 151.722 133.337 151.323 133.182 150.867C133.027 150.411 132.949 149.917 132.949 149.384ZM134.214 149.227V149.384C134.214 149.753 134.257 150.102 134.344 150.43C134.43 150.753 134.56 151.04 134.733 151.291C134.911 151.542 135.132 151.74 135.396 151.886C135.661 152.027 135.968 152.098 136.319 152.098C136.666 152.098 136.969 152.027 137.229 151.886C137.493 151.74 137.712 151.542 137.885 151.291C138.058 151.04 138.188 150.753 138.274 150.43C138.366 150.102 138.411 149.753 138.411 149.384V149.227C138.411 148.862 138.366 148.518 138.274 148.194C138.188 147.866 138.056 147.577 137.878 147.326C137.705 147.071 137.486 146.87 137.222 146.725C136.962 146.579 136.657 146.506 136.306 146.506C135.959 146.506 135.654 146.579 135.39 146.725C135.13 146.87 134.911 147.071 134.733 147.326C134.56 147.577 134.43 147.866 134.344 148.194C134.257 148.518 134.214 148.862 134.214 149.227ZM144.229 152.098C144.529 152.098 144.807 152.036 145.062 151.913C145.318 151.79 145.527 151.621 145.691 151.407C145.855 151.188 145.949 150.94 145.972 150.662H147.175C147.152 151.1 147.004 151.507 146.73 151.886C146.462 152.259 146.108 152.562 145.671 152.795C145.233 153.023 144.753 153.137 144.229 153.137C143.673 153.137 143.187 153.039 142.772 152.843C142.362 152.647 142.021 152.378 141.747 152.036C141.478 151.694 141.275 151.302 141.139 150.86C141.007 150.414 140.94 149.942 140.94 149.445V149.158C140.94 148.661 141.007 148.192 141.139 147.75C141.275 147.303 141.478 146.909 141.747 146.567C142.021 146.226 142.362 145.957 142.772 145.761C143.187 145.565 143.673 145.467 144.229 145.467C144.807 145.467 145.313 145.585 145.746 145.822C146.179 146.055 146.519 146.374 146.765 146.779C147.015 147.18 147.152 147.636 147.175 148.146H145.972C145.949 147.841 145.862 147.565 145.712 147.319C145.566 147.073 145.366 146.877 145.11 146.731C144.86 146.581 144.566 146.506 144.229 146.506C143.841 146.506 143.515 146.583 143.251 146.738C142.991 146.889 142.784 147.094 142.629 147.354C142.479 147.609 142.369 147.894 142.301 148.208C142.237 148.518 142.205 148.835 142.205 149.158V149.445C142.205 149.769 142.237 150.088 142.301 150.402C142.365 150.717 142.472 151.002 142.622 151.257C142.777 151.512 142.984 151.717 143.244 151.872C143.508 152.022 143.837 152.098 144.229 152.098ZM151.557 152.098C151.857 152.098 152.135 152.036 152.391 151.913C152.646 151.79 152.855 151.621 153.02 151.407C153.184 151.188 153.277 150.94 153.3 150.662H154.503C154.48 151.1 154.332 151.507 154.059 151.886C153.79 152.259 153.437 152.562 152.999 152.795C152.562 153.023 152.081 153.137 151.557 153.137C151.001 153.137 150.515 153.039 150.101 152.843C149.69 152.647 149.349 152.378 149.075 152.036C148.806 151.694 148.604 151.302 148.467 150.86C148.335 150.414 148.269 149.942 148.269 149.445V149.158C148.269 148.661 148.335 148.192 148.467 147.75C148.604 147.303 148.806 146.909 149.075 146.567C149.349 146.226 149.69 145.957 150.101 145.761C150.515 145.565 151.001 145.467 151.557 145.467C152.135 145.467 152.641 145.585 153.074 145.822C153.507 146.055 153.847 146.374 154.093 146.779C154.343 147.18 154.48 147.636 154.503 148.146H153.3C153.277 147.841 153.19 147.565 153.04 147.319C152.894 147.073 152.694 146.877 152.438 146.731C152.188 146.581 151.894 146.506 151.557 146.506C151.169 146.506 150.843 146.583 150.579 146.738C150.319 146.889 150.112 147.094 149.957 147.354C149.807 147.609 149.697 147.894 149.629 148.208C149.565 148.518 149.533 148.835 149.533 149.158V149.445C149.533 149.769 149.565 150.088 149.629 150.402C149.693 150.717 149.8 151.002 149.95 151.257C150.105 151.512 150.312 151.717 150.572 151.872C150.837 152.022 151.165 152.098 151.557 152.098ZM160.45 151.291V145.604H161.722V153H160.512L160.45 151.291ZM160.689 149.732L161.216 149.719C161.216 150.211 161.163 150.667 161.059 151.086C160.958 151.501 160.794 151.861 160.566 152.166C160.339 152.471 160.04 152.711 159.671 152.884C159.302 153.052 158.853 153.137 158.324 153.137C157.964 153.137 157.634 153.084 157.333 152.979C157.037 152.875 156.782 152.713 156.567 152.494C156.353 152.275 156.187 151.991 156.068 151.64C155.954 151.289 155.897 150.867 155.897 150.375V145.604H157.162V150.389C157.162 150.721 157.199 150.997 157.271 151.216C157.349 151.43 157.451 151.601 157.579 151.729C157.711 151.852 157.857 151.938 158.017 151.988C158.181 152.038 158.349 152.063 158.522 152.063C159.06 152.063 159.486 151.961 159.801 151.756C160.115 151.546 160.341 151.266 160.478 150.915C160.619 150.56 160.689 150.165 160.689 149.732ZM164.914 146.766V153H163.649V145.604H164.88L164.914 146.766ZM167.225 145.562L167.218 146.738C167.113 146.715 167.013 146.702 166.917 146.697C166.826 146.688 166.721 146.684 166.603 146.684C166.311 146.684 166.053 146.729 165.83 146.82C165.607 146.911 165.418 147.039 165.263 147.203C165.108 147.367 164.985 147.563 164.894 147.791C164.807 148.014 164.75 148.26 164.723 148.529L164.367 148.734C164.367 148.288 164.41 147.868 164.497 147.477C164.588 147.085 164.727 146.738 164.914 146.438C165.101 146.132 165.338 145.895 165.625 145.727C165.917 145.553 166.263 145.467 166.664 145.467C166.755 145.467 166.86 145.478 166.979 145.501C167.097 145.519 167.179 145.54 167.225 145.562ZM169.658 146.766V153H168.394V145.604H169.624L169.658 146.766ZM171.969 145.562L171.962 146.738C171.857 146.715 171.757 146.702 171.661 146.697C171.57 146.688 171.465 146.684 171.347 146.684C171.055 146.684 170.798 146.729 170.574 146.82C170.351 146.911 170.162 147.039 170.007 147.203C169.852 147.367 169.729 147.563 169.638 147.791C169.551 148.014 169.494 148.26 169.467 148.529L169.111 148.734C169.111 148.288 169.155 147.868 169.241 147.477C169.332 147.085 169.471 146.738 169.658 146.438C169.845 146.132 170.082 145.895 170.369 145.727C170.661 145.553 171.007 145.467 171.408 145.467C171.499 145.467 171.604 145.478 171.723 145.501C171.841 145.519 171.923 145.54 171.969 145.562ZM176.07 153.137C175.555 153.137 175.088 153.05 174.669 152.877C174.254 152.699 173.896 152.451 173.596 152.132C173.299 151.813 173.072 151.435 172.912 150.997C172.753 150.56 172.673 150.081 172.673 149.562V149.274C172.673 148.673 172.762 148.137 172.939 147.668C173.117 147.194 173.359 146.793 173.664 146.465C173.969 146.137 174.316 145.888 174.703 145.72C175.09 145.551 175.492 145.467 175.906 145.467C176.435 145.467 176.891 145.558 177.273 145.74C177.661 145.923 177.978 146.178 178.224 146.506C178.47 146.829 178.652 147.212 178.771 147.654C178.889 148.092 178.948 148.57 178.948 149.09V149.657H173.425V148.625H177.684V148.529C177.665 148.201 177.597 147.882 177.479 147.572C177.365 147.262 177.182 147.007 176.932 146.807C176.681 146.606 176.339 146.506 175.906 146.506C175.619 146.506 175.355 146.567 175.113 146.69C174.872 146.809 174.664 146.987 174.491 147.224C174.318 147.461 174.184 147.75 174.088 148.092C173.992 148.434 173.944 148.828 173.944 149.274V149.562C173.944 149.912 173.992 150.243 174.088 150.553C174.188 150.858 174.332 151.127 174.519 151.359C174.71 151.592 174.94 151.774 175.209 151.906C175.482 152.038 175.792 152.104 176.139 152.104C176.585 152.104 176.964 152.013 177.273 151.831C177.583 151.649 177.854 151.405 178.087 151.1L178.853 151.708C178.693 151.95 178.49 152.18 178.244 152.398C177.998 152.617 177.695 152.795 177.335 152.932C176.979 153.068 176.558 153.137 176.07 153.137ZM185.087 151.564V142.5H186.358V153H185.196L185.087 151.564ZM180.11 149.384V149.24C180.11 148.675 180.179 148.162 180.315 147.702C180.457 147.237 180.655 146.839 180.91 146.506C181.17 146.173 181.478 145.918 181.833 145.74C182.193 145.558 182.594 145.467 183.036 145.467C183.501 145.467 183.907 145.549 184.253 145.713C184.604 145.872 184.9 146.107 185.142 146.417C185.388 146.722 185.581 147.091 185.723 147.524C185.864 147.957 185.962 148.447 186.017 148.994V149.623C185.966 150.165 185.868 150.653 185.723 151.086C185.581 151.519 185.388 151.888 185.142 152.193C184.9 152.499 184.604 152.733 184.253 152.897C183.902 153.057 183.492 153.137 183.022 153.137C182.59 153.137 182.193 153.043 181.833 152.856C181.478 152.67 181.17 152.408 180.91 152.07C180.655 151.733 180.457 151.337 180.315 150.881C180.179 150.421 180.11 149.922 180.11 149.384ZM181.382 149.24V149.384C181.382 149.753 181.418 150.099 181.491 150.423C181.569 150.746 181.687 151.031 181.847 151.277C182.006 151.523 182.209 151.717 182.455 151.858C182.701 151.995 182.995 152.063 183.337 152.063C183.756 152.063 184.1 151.975 184.369 151.797C184.643 151.619 184.861 151.384 185.025 151.093C185.189 150.801 185.317 150.484 185.408 150.143V148.495C185.354 148.244 185.274 148.003 185.169 147.771C185.069 147.534 184.937 147.324 184.772 147.142C184.613 146.955 184.415 146.807 184.178 146.697C183.945 146.588 183.67 146.533 183.351 146.533C183.004 146.533 182.706 146.606 182.455 146.752C182.209 146.893 182.006 147.089 181.847 147.34C181.687 147.586 181.569 147.873 181.491 148.201C181.418 148.525 181.382 148.871 181.382 149.24ZM189.831 143.047L189.742 150.19H188.601L188.505 143.047H189.831ZM188.464 152.364C188.464 152.159 188.525 151.986 188.648 151.845C188.776 151.703 188.963 151.633 189.209 151.633C189.451 151.633 189.635 151.703 189.763 151.845C189.895 151.986 189.961 152.159 189.961 152.364C189.961 152.56 189.895 152.729 189.763 152.87C189.635 153.011 189.451 153.082 189.209 153.082C188.963 153.082 188.776 153.011 188.648 152.87C188.525 152.729 188.464 152.56 188.464 152.364Z" fill="black"/>
</g>
<defs>
<filter id="filter0_d_166_6" x="25" y="19" width="310" height="80" filterUnits="userSpaceOnUse" color-interpolation-filters="sRGB">
<feFlood flood-opacity="0" result="BackgroundImageFix"/>
<feColorMatrix in="SourceAlpha" type="matrix" values="0 0 0 0 0 0 0 0 0 0 0 0 0 0 0 0 0 0 127 0" result="hardAlpha"/>
<feOffset/>
<feGaussianBlur stdDeviation="2.5"/>
<feComposite in2="hardAlpha" operator="out"/>
<feColorMatrix type="matrix" values="0 0 0 0 0 0 0 0 0 0 0 0 0 0 0 0 0 0 0.3 0"/>
<feBlend mode="normal" in2="BackgroundImageFix" result="effect1_dropShadow_166_6"/>
<feBlend mode="normal" in="SourceGraphic" in2="effect1_dropShadow_166_6" result="shape"/>
</filter>
<filter id="filter1_d_166_6" x="25" y="100" width="310" height="80" filterUnits="userSpaceOnUse" color-interpolation-filters="sRGB">
<feFlood flood-opacity="0" result="BackgroundImageFix"/>
<feColorMatrix in="SourceAlpha" type="matrix" values="0 0 0 0 0 0 0 0 0 0 0 0 0 0 0 0 0 0 127 0" result="hardAlpha"/>
<feOffset/>
<feGaussianBlur stdDeviation="2.5"/>
<feComposite in2="hardAlpha" operator="out"/>
<feColorMatrix type="matrix" values="0 0 0 0 0 0 0 0 0 0 0 0 0 0 0 0 0 0 0.3 0"/>
<feBlend mode="normal" in2="BackgroundImageFix" result="effect1_dropShadow_166_6"/>
<feBlend mode="normal" in="SourceGraphic" in2="effect1_dropShadow_166_6" result="shape"/>
</filter>
<clipPath id="clip0_166_6">
<rect width="360" height="200" fill="white"/>
</clipPath>
<clipPath id="clip1_166_6">
<rect width="18" height="18" fill="white" transform="translate(48 121)"/>
</clipPath>
</defs>
</svg>
